G04 (created by PCBNEW (2013-07-07 BZR 4022)-stable) date 11/5/2013 1:48:53 AM*
%MOIN*%
G04 Gerber Fmt 3.4, Leading zero omitted, Abs format*
%FSLAX34Y34*%
G01*
G70*
G90*
G04 APERTURE LIST*
%ADD10C,0.006*%
%ADD11C,0.008*%
%ADD12C,0.0787*%
%ADD13C,0.0709*%
%ADD14C,0.0984*%
%ADD15R,0.0591X0.0197*%
%ADD16R,0.0197X0.0591*%
%ADD17C,0.1063*%
%ADD18R,0.0551X0.0138*%
%ADD19C,0.0708661*%
%ADD20R,0.0255906X0.0417323*%
%ADD21C,0.0590551*%
%ADD22C,0.11811*%
%ADD23R,0.0433071X0.0433071*%
%ADD24C,0.0472441*%
%ADD25R,0.0551181X0.015748*%
%ADD26R,0.015748X0.0551181*%
%ADD27R,0.0905512X0.0748031*%
%ADD28R,0.0708661X0.0748031*%
%ADD29R,0.0669291X0.0669291*%
%ADD30C,0.0669291*%
%ADD31R,0.0629921X0.0708661*%
%ADD32R,0.0275591X0.0275591*%
%ADD33C,0.0629921*%
%ADD34R,0.0787402X0.0787402*%
%ADD35C,0.0787402*%
%ADD36C,0.141732*%
%ADD37C,0.03*%
%ADD38C,0.01*%
G04 APERTURE END LIST*
G54D10*
G54D11*
X2833Y17104D02*
X2833Y16780D01*
X2814Y16742D01*
X2795Y16723D01*
X2757Y16704D01*
X2700Y16704D01*
X2661Y16723D01*
X2833Y16857D02*
X2795Y16838D01*
X2719Y16838D01*
X2680Y16857D01*
X2661Y16876D01*
X2642Y16914D01*
X2642Y17028D01*
X2661Y17066D01*
X2680Y17085D01*
X2719Y17104D01*
X2795Y17104D01*
X2833Y17085D01*
X3023Y16838D02*
X3023Y17104D01*
X3023Y17238D02*
X3004Y17219D01*
X3023Y17200D01*
X3042Y17219D01*
X3023Y17238D01*
X3023Y17200D01*
X3157Y17104D02*
X3309Y17104D01*
X3214Y17238D02*
X3214Y16895D01*
X3233Y16857D01*
X3271Y16838D01*
X3309Y16838D01*
X3442Y16838D02*
X3442Y17238D01*
X3614Y16838D02*
X3614Y17047D01*
X3595Y17085D01*
X3557Y17104D01*
X3500Y17104D01*
X3461Y17085D01*
X3442Y17066D01*
X3976Y17104D02*
X3976Y16838D01*
X3804Y17104D02*
X3804Y16895D01*
X3823Y16857D01*
X3861Y16838D01*
X3919Y16838D01*
X3957Y16857D01*
X3976Y16876D01*
X4166Y16838D02*
X4166Y17238D01*
X4166Y17085D02*
X4204Y17104D01*
X4280Y17104D01*
X4319Y17085D01*
X4338Y17066D01*
X4357Y17028D01*
X4357Y16914D01*
X4338Y16876D01*
X4319Y16857D01*
X4280Y16838D01*
X4204Y16838D01*
X4166Y16857D01*
X4528Y16876D02*
X4547Y16857D01*
X4528Y16838D01*
X4509Y16857D01*
X4528Y16876D01*
X4528Y16838D01*
X4890Y16857D02*
X4852Y16838D01*
X4776Y16838D01*
X4738Y16857D01*
X4719Y16876D01*
X4700Y16914D01*
X4700Y17028D01*
X4719Y17066D01*
X4738Y17085D01*
X4776Y17104D01*
X4852Y17104D01*
X4890Y17085D01*
X5119Y16838D02*
X5080Y16857D01*
X5061Y16876D01*
X5042Y16914D01*
X5042Y17028D01*
X5061Y17066D01*
X5080Y17085D01*
X5119Y17104D01*
X5176Y17104D01*
X5214Y17085D01*
X5233Y17066D01*
X5252Y17028D01*
X5252Y16914D01*
X5233Y16876D01*
X5214Y16857D01*
X5176Y16838D01*
X5119Y16838D01*
X5423Y16838D02*
X5423Y17104D01*
X5423Y17066D02*
X5442Y17085D01*
X5480Y17104D01*
X5538Y17104D01*
X5576Y17085D01*
X5595Y17047D01*
X5595Y16838D01*
X5595Y17047D02*
X5614Y17085D01*
X5652Y17104D01*
X5709Y17104D01*
X5747Y17085D01*
X5766Y17047D01*
X5766Y16838D01*
X6242Y17257D02*
X5900Y16742D01*
X6376Y16838D02*
X6376Y17104D01*
X6376Y17066D02*
X6395Y17085D01*
X6433Y17104D01*
X6490Y17104D01*
X6528Y17085D01*
X6547Y17047D01*
X6547Y16838D01*
X6547Y17047D02*
X6566Y17085D01*
X6604Y17104D01*
X6661Y17104D01*
X6700Y17085D01*
X6719Y17047D01*
X6719Y16838D01*
X7080Y16857D02*
X7042Y16838D01*
X6966Y16838D01*
X6928Y16857D01*
X6909Y16876D01*
X6890Y16914D01*
X6890Y17028D01*
X6909Y17066D01*
X6928Y17085D01*
X6966Y17104D01*
X7042Y17104D01*
X7080Y17085D01*
X7309Y16838D02*
X7271Y16857D01*
X7252Y16876D01*
X7233Y16914D01*
X7233Y17028D01*
X7252Y17066D01*
X7271Y17085D01*
X7309Y17104D01*
X7366Y17104D01*
X7404Y17085D01*
X7423Y17066D01*
X7442Y17028D01*
X7442Y16914D01*
X7423Y16876D01*
X7404Y16857D01*
X7366Y16838D01*
X7309Y16838D01*
X7785Y17104D02*
X7785Y16838D01*
X7614Y17104D02*
X7614Y16895D01*
X7633Y16857D01*
X7671Y16838D01*
X7728Y16838D01*
X7766Y16857D01*
X7785Y16876D01*
X7957Y16857D02*
X7995Y16838D01*
X8071Y16838D01*
X8109Y16857D01*
X8128Y16895D01*
X8128Y16914D01*
X8109Y16952D01*
X8071Y16971D01*
X8014Y16971D01*
X7976Y16990D01*
X7957Y17028D01*
X7957Y17047D01*
X7976Y17085D01*
X8014Y17104D01*
X8071Y17104D01*
X8109Y17085D01*
X8585Y17257D02*
X8242Y16742D01*
X8719Y16838D02*
X8719Y17104D01*
X8719Y17028D02*
X8738Y17066D01*
X8757Y17085D01*
X8795Y17104D01*
X8833Y17104D01*
X9119Y16857D02*
X9080Y16838D01*
X9004Y16838D01*
X8966Y16857D01*
X8947Y16895D01*
X8947Y17047D01*
X8966Y17085D01*
X9004Y17104D01*
X9080Y17104D01*
X9119Y17085D01*
X9138Y17047D01*
X9138Y17009D01*
X8947Y16971D01*
X9252Y17104D02*
X9404Y17104D01*
X9309Y16838D02*
X9309Y17180D01*
X9328Y17219D01*
X9366Y17238D01*
X9404Y17238D01*
X9595Y16838D02*
X9557Y16857D01*
X9538Y16895D01*
X9538Y17238D01*
X9804Y16838D02*
X9766Y16857D01*
X9747Y16876D01*
X9728Y16914D01*
X9728Y17028D01*
X9747Y17066D01*
X9766Y17085D01*
X9804Y17104D01*
X9861Y17104D01*
X9899Y17085D01*
X9919Y17066D01*
X9938Y17028D01*
X9938Y16914D01*
X9919Y16876D01*
X9899Y16857D01*
X9861Y16838D01*
X9804Y16838D01*
X10071Y17104D02*
X10147Y16838D01*
X10223Y17028D01*
X10299Y16838D01*
X10376Y17104D01*
G54D12*
X6831Y11750D03*
X6831Y9750D03*
G54D13*
X6831Y6750D03*
X6831Y5750D03*
G54D14*
X7500Y3750D03*
X7500Y13750D03*
G54D15*
X14946Y13802D03*
X14946Y13487D03*
X14946Y13172D03*
X14946Y12857D03*
X14946Y12543D03*
X14946Y12228D03*
X14946Y11913D03*
X14946Y11598D03*
G54D16*
X15498Y11046D03*
X15813Y11046D03*
X16128Y11046D03*
X16443Y11046D03*
X16757Y11046D03*
X17072Y11046D03*
X17387Y11046D03*
X17702Y11046D03*
G54D15*
X18254Y11598D03*
X18254Y11913D03*
X18254Y12228D03*
X18254Y12543D03*
X18254Y12857D03*
X18254Y13172D03*
X18254Y13487D03*
X18254Y13802D03*
G54D16*
X17702Y14354D03*
X17387Y14354D03*
X17072Y14354D03*
X16757Y14354D03*
X16443Y14354D03*
X16128Y14354D03*
X15813Y14354D03*
X15498Y14354D03*
G54D17*
X21303Y10343D03*
X26697Y10343D03*
X20909Y15657D03*
X27091Y15657D03*
G54D18*
X20332Y5454D03*
X20332Y5710D03*
X20332Y5966D03*
X20332Y6222D03*
X20332Y6478D03*
X20332Y6734D03*
X20332Y6990D03*
X20332Y7246D03*
X18068Y7246D03*
X18068Y6990D03*
X18068Y6734D03*
X18068Y6478D03*
X18068Y6222D03*
X18068Y5966D03*
X18068Y5710D03*
X18068Y5454D03*
G54D19*
X23720Y2885D03*
X26279Y2885D03*
X23720Y1114D03*
X26279Y1114D03*
X23720Y6135D03*
X26279Y6135D03*
X23720Y4364D03*
X26279Y4364D03*
G54D20*
X19175Y15916D03*
X19550Y16783D03*
X19924Y15916D03*
X15775Y15266D03*
X16150Y16133D03*
X16524Y15266D03*
X14375Y15266D03*
X14750Y16133D03*
X15124Y15266D03*
X13774Y9883D03*
X13400Y9016D03*
X13025Y9883D03*
X12274Y9883D03*
X11900Y9016D03*
X11525Y9883D03*
G54D21*
X18755Y2015D03*
X13047Y2015D03*
X13047Y3000D03*
X13047Y3984D03*
X18755Y3984D03*
G54D22*
X16000Y5204D03*
X16000Y795D03*
G54D23*
X18500Y8169D03*
G54D24*
X17500Y8169D03*
X16500Y8169D03*
X15500Y8169D03*
X14500Y8169D03*
X13500Y8169D03*
X13500Y16830D03*
X14500Y16830D03*
X15500Y16830D03*
X16500Y16830D03*
X17500Y16830D03*
X18500Y16830D03*
G54D25*
X24866Y8166D03*
X24866Y8422D03*
X24866Y8677D03*
X24866Y8933D03*
X23133Y8933D03*
X23133Y8677D03*
X23133Y8422D03*
X23133Y8166D03*
G54D26*
X20588Y1702D03*
X20844Y1702D03*
X21100Y1702D03*
X21355Y1702D03*
X21611Y1702D03*
G54D27*
X19623Y580D03*
X22576Y580D03*
G54D28*
X21552Y580D03*
X20647Y580D03*
G54D29*
X28400Y13750D03*
G54D30*
X29400Y13750D03*
X28400Y12750D03*
X29400Y12750D03*
X28400Y11750D03*
X29400Y11750D03*
G54D31*
X17351Y2350D03*
X16248Y2350D03*
G54D32*
X24674Y1850D03*
X25225Y1850D03*
X24674Y1050D03*
X25225Y1050D03*
X9500Y9675D03*
X9500Y9124D03*
X21825Y5550D03*
X21274Y5550D03*
X21825Y6200D03*
X21274Y6200D03*
X17575Y3350D03*
X17024Y3350D03*
X26725Y8800D03*
X26174Y8800D03*
X27400Y8174D03*
X27400Y8725D03*
X20050Y3775D03*
X20050Y3224D03*
X14624Y2650D03*
X15175Y2650D03*
X14624Y2000D03*
X15175Y2000D03*
X24650Y3924D03*
X24650Y4475D03*
X25350Y3924D03*
X25350Y4475D03*
X20750Y3224D03*
X20750Y3775D03*
X21450Y3224D03*
X21450Y3775D03*
X24225Y7600D03*
X23674Y7600D03*
X22150Y3775D03*
X22150Y3224D03*
X16074Y7000D03*
X16625Y7000D03*
X21274Y7100D03*
X21825Y7100D03*
X17200Y5525D03*
X17200Y4974D03*
X21274Y8800D03*
X21825Y8800D03*
X26725Y8150D03*
X26174Y8150D03*
X21825Y8150D03*
X21274Y8150D03*
X24225Y6950D03*
X23674Y6950D03*
X16000Y9775D03*
X16000Y9224D03*
X10900Y9124D03*
X10900Y9675D03*
X28224Y5250D03*
X28775Y5250D03*
X28224Y4600D03*
X28775Y4600D03*
X10200Y9124D03*
X10200Y9675D03*
X18500Y15524D03*
X18500Y16075D03*
X19274Y14450D03*
X19825Y14450D03*
X19274Y15100D03*
X19825Y15100D03*
X13925Y11000D03*
X13374Y11000D03*
X16650Y9775D03*
X16650Y9224D03*
X17950Y9775D03*
X17950Y9224D03*
X18600Y9775D03*
X18600Y9224D03*
X13925Y11650D03*
X13374Y11650D03*
X17575Y1350D03*
X17024Y1350D03*
X17300Y9775D03*
X17300Y9224D03*
X17850Y16075D03*
X17850Y15524D03*
X17200Y16075D03*
X17200Y15524D03*
X13100Y16025D03*
X13100Y15474D03*
X13750Y16025D03*
X13750Y15474D03*
X15100Y9224D03*
X15100Y9775D03*
X14450Y9224D03*
X14450Y9775D03*
X4400Y5174D03*
X4400Y5725D03*
X19675Y12700D03*
X19124Y12700D03*
X19675Y12050D03*
X19124Y12050D03*
X13374Y12950D03*
X13925Y12950D03*
X13374Y12300D03*
X13925Y12300D03*
G54D33*
X28000Y3850D03*
X29000Y3850D03*
X28000Y6000D03*
X29000Y6000D03*
X3400Y6150D03*
X3400Y5150D03*
G54D34*
X1350Y11750D03*
G54D35*
X1350Y9750D03*
G54D36*
X28500Y1500D03*
X28500Y16000D03*
X1500Y1500D03*
X1500Y16000D03*
G54D37*
X14390Y10220D03*
X16680Y13020D03*
X17230Y13620D03*
X16870Y13420D03*
X14640Y10850D03*
X14940Y10570D03*
X17890Y10330D03*
X17450Y10330D03*
X16220Y13010D03*
X17190Y7320D03*
X18340Y10620D03*
X18490Y14960D03*
X16460Y11710D03*
X13560Y13580D03*
X13130Y14220D03*
X13150Y13720D03*
X16020Y13370D03*
X19130Y11270D03*
X17340Y6530D03*
X15670Y13600D03*
X6250Y7000D03*
X500Y14500D03*
X1250Y14500D03*
X2250Y14500D03*
X3250Y14500D03*
X4250Y14500D03*
X5250Y14500D03*
X5250Y15500D03*
X5750Y16000D03*
X6750Y16000D03*
X7750Y16000D03*
X8750Y16000D03*
X9750Y16000D03*
X9750Y15000D03*
X9750Y14000D03*
X9750Y13000D03*
X9500Y12000D03*
X9500Y11000D03*
X9500Y8000D03*
X9500Y7000D03*
X8500Y7000D03*
X7500Y7000D03*
X5500Y7000D03*
X4500Y7000D03*
X3500Y7000D03*
X2500Y7000D03*
X1500Y7000D03*
X500Y7000D03*
X13500Y6280D03*
X20640Y13270D03*
X20360Y12450D03*
X17570Y12950D03*
X15340Y15900D03*
X16770Y15880D03*
X22930Y2460D03*
X17970Y4980D03*
X20420Y4350D03*
X21080Y4330D03*
X13080Y14700D03*
X12770Y12090D03*
X10130Y10500D03*
X19550Y11200D03*
G54D38*
X18254Y13487D02*
X18667Y13487D01*
X20150Y14450D02*
X19825Y14450D01*
X20210Y14390D02*
X20150Y14450D01*
X20210Y14110D02*
X20210Y14390D01*
X20140Y14040D02*
X20210Y14110D01*
X19220Y14040D02*
X20140Y14040D01*
X18667Y13487D02*
X19220Y14040D01*
X18254Y13802D02*
X18612Y13802D01*
X17850Y15060D02*
X17850Y15524D01*
X18690Y14220D02*
X17850Y15060D01*
X18690Y13880D02*
X18690Y14220D01*
X18612Y13802D02*
X18690Y13880D01*
X15480Y14870D02*
X15220Y14870D01*
X13670Y14640D02*
X13100Y15210D01*
X14990Y14640D02*
X13670Y14640D01*
X15220Y14870D02*
X14990Y14640D01*
X17702Y14354D02*
X17702Y14798D01*
X13100Y15210D02*
X13100Y15474D01*
X17630Y14870D02*
X15480Y14870D01*
X17702Y14798D02*
X17630Y14870D01*
X15100Y9775D02*
X15004Y9775D01*
X14560Y10220D02*
X14390Y10220D01*
X15004Y9775D02*
X14560Y10220D01*
X17387Y13913D02*
X17387Y14354D01*
X17550Y13750D02*
X17387Y13913D01*
X17550Y13470D02*
X17550Y13750D01*
X17170Y13090D02*
X17550Y13470D01*
X16750Y13090D02*
X17170Y13090D01*
X16680Y13020D02*
X16750Y13090D01*
X17072Y14354D02*
X17072Y13778D01*
X17072Y13778D02*
X17230Y13620D01*
X13047Y2015D02*
X14608Y2015D01*
X14608Y2015D02*
X14624Y2000D01*
X16757Y14354D02*
X16757Y13533D01*
X16757Y13533D02*
X16870Y13420D01*
X14624Y2650D02*
X14280Y2650D01*
X13525Y3984D02*
X13047Y3984D01*
X13800Y3710D02*
X13525Y3984D01*
X13800Y3130D02*
X13800Y3710D01*
X14280Y2650D02*
X13800Y3130D01*
X14270Y10670D02*
X14390Y10670D01*
X14390Y10670D02*
X14530Y10530D01*
X14900Y10180D02*
X15090Y10180D01*
X14550Y10530D02*
X14900Y10180D01*
X14530Y10530D02*
X14550Y10530D01*
X15490Y10180D02*
X15090Y10180D01*
X13870Y10670D02*
X13720Y10520D01*
X14270Y10670D02*
X13870Y10670D01*
X16128Y10548D02*
X16128Y11046D01*
X15760Y10180D02*
X16128Y10548D01*
X15490Y10180D02*
X15760Y10180D01*
X10200Y9940D02*
X10200Y9675D01*
X10780Y10520D02*
X10200Y9940D01*
X13720Y10520D02*
X10780Y10520D01*
X15498Y11046D02*
X14836Y11046D01*
X14836Y11046D02*
X14640Y10850D01*
X15813Y11046D02*
X15813Y10633D01*
X15060Y10450D02*
X14940Y10570D01*
X15630Y10450D02*
X15060Y10450D01*
X15813Y10633D02*
X15630Y10450D01*
X17920Y10300D02*
X17890Y10330D01*
X17950Y10300D02*
X17920Y10300D01*
X17950Y9775D02*
X17950Y10300D01*
X17702Y10548D02*
X17702Y11046D01*
X17950Y10300D02*
X17702Y10548D01*
X17387Y10267D02*
X17450Y10330D01*
X17387Y10250D02*
X17387Y10267D01*
X17387Y11046D02*
X17387Y10250D01*
X17387Y10250D02*
X17387Y10237D01*
X17300Y10150D02*
X17300Y9775D01*
X17387Y10237D02*
X17300Y10150D01*
X16443Y14354D02*
X16443Y13233D01*
X16443Y13233D02*
X16220Y13010D01*
X17160Y6990D02*
X17160Y7290D01*
X17160Y7290D02*
X17190Y7320D01*
X18068Y6990D02*
X17160Y6990D01*
X17160Y6990D02*
X16635Y6990D01*
X16635Y6990D02*
X16625Y7000D01*
X18330Y10630D02*
X18340Y10620D01*
X18120Y10630D02*
X18330Y10630D01*
X18254Y11598D02*
X18702Y11598D01*
X18600Y10150D02*
X18600Y9775D01*
X18100Y10650D02*
X18120Y10630D01*
X18120Y10630D02*
X18600Y10150D01*
X18100Y11100D02*
X18100Y10650D01*
X18250Y11250D02*
X18100Y11100D01*
X18650Y11250D02*
X18250Y11250D01*
X18800Y11400D02*
X18650Y11250D01*
X18800Y11500D02*
X18800Y11400D01*
X18702Y11598D02*
X18800Y11500D01*
X16443Y11046D02*
X16443Y11693D01*
X18500Y14970D02*
X18500Y15524D01*
X18490Y14960D02*
X18500Y14970D01*
X16443Y11693D02*
X16460Y11710D01*
X14946Y11598D02*
X14548Y11598D01*
X14280Y11000D02*
X13925Y11000D01*
X14450Y11170D02*
X14280Y11000D01*
X14450Y11500D02*
X14450Y11170D01*
X14548Y11598D02*
X14450Y11500D01*
X17072Y11046D02*
X17072Y10272D01*
X16650Y10050D02*
X16650Y9775D01*
X16750Y10150D02*
X16650Y10050D01*
X16950Y10150D02*
X16750Y10150D01*
X17072Y10272D02*
X16950Y10150D01*
X13925Y11650D02*
X14200Y11650D01*
X14463Y11913D02*
X14946Y11913D01*
X14200Y11650D02*
X14463Y11913D01*
X16757Y11046D02*
X16757Y10457D01*
X16130Y10170D02*
X16000Y10040D01*
X16470Y10170D02*
X16130Y10170D01*
X16757Y10457D02*
X16470Y10170D01*
X16000Y10040D02*
X16000Y9775D01*
X14929Y13470D02*
X14946Y13487D01*
X13670Y13470D02*
X14929Y13470D01*
X13560Y13580D02*
X13670Y13470D01*
X17575Y1350D02*
X18090Y1350D01*
X18090Y1350D02*
X18755Y2015D01*
X13264Y14354D02*
X15498Y14354D01*
X13130Y14220D02*
X13264Y14354D01*
X26279Y1114D02*
X26279Y1860D01*
X25350Y2790D02*
X25350Y3924D01*
X26279Y1860D02*
X25350Y2790D01*
X14018Y13802D02*
X14946Y13802D01*
X13920Y13900D02*
X14018Y13802D01*
X13330Y13900D02*
X13920Y13900D01*
X13150Y13720D02*
X13330Y13900D01*
X23720Y4364D02*
X23775Y4364D01*
X24215Y3924D02*
X24650Y3924D01*
X23775Y4364D02*
X24215Y3924D01*
X22645Y9930D02*
X22645Y10695D01*
X20040Y13300D02*
X19800Y13300D01*
X22645Y10695D02*
X20040Y13300D01*
X22645Y8880D02*
X22645Y9930D01*
X18642Y13172D02*
X18254Y13172D01*
X18770Y13300D02*
X18642Y13172D01*
X19800Y13300D02*
X18770Y13300D01*
X23133Y8677D02*
X22702Y8677D01*
X22698Y8933D02*
X23133Y8933D01*
X22645Y8880D02*
X22698Y8933D01*
X22645Y8735D02*
X22645Y8880D01*
X22702Y8677D02*
X22645Y8735D01*
X16128Y14354D02*
X16128Y13478D01*
X16128Y13478D02*
X16020Y13370D01*
X19040Y10160D02*
X19040Y11180D01*
X19040Y11180D02*
X19130Y11270D01*
X18068Y7246D02*
X17694Y7246D01*
X19040Y10160D02*
X19040Y10160D01*
X19040Y7750D02*
X19040Y10160D01*
X18850Y7560D02*
X19040Y7750D01*
X17700Y7560D02*
X18850Y7560D01*
X17590Y7450D02*
X17700Y7560D01*
X17590Y7350D02*
X17590Y7450D01*
X17694Y7246D02*
X17590Y7350D01*
X17392Y6478D02*
X17340Y6530D01*
X18068Y6478D02*
X17392Y6478D01*
X15813Y13743D02*
X15813Y14354D01*
X15670Y13600D02*
X15813Y13743D01*
X2250Y14500D02*
X1250Y14500D01*
X4250Y14500D02*
X3250Y14500D01*
X5250Y15500D02*
X5250Y14500D01*
X6750Y16000D02*
X5750Y16000D01*
X8750Y16000D02*
X7750Y16000D01*
X9750Y15000D02*
X9750Y16000D01*
X9750Y13000D02*
X9750Y14000D01*
X9500Y11000D02*
X9500Y12000D01*
X9500Y7000D02*
X9500Y8000D01*
X7500Y7000D02*
X8500Y7000D01*
X6250Y7000D02*
X6260Y7000D01*
X13047Y3000D02*
X9500Y3000D01*
X3500Y7000D02*
X4500Y7000D01*
X1500Y7000D02*
X2500Y7000D01*
X500Y5000D02*
X500Y7000D01*
X3250Y2250D02*
X500Y5000D01*
X8750Y2250D02*
X3250Y2250D01*
X9500Y3000D02*
X8750Y2250D01*
X6250Y7000D02*
X5500Y7000D01*
X13025Y9883D02*
X13025Y9705D01*
X12590Y7190D02*
X13500Y6280D01*
X12590Y9270D02*
X12590Y7190D01*
X13025Y9705D02*
X12590Y9270D01*
X20055Y12390D02*
X20300Y12390D01*
X21240Y13870D02*
X21240Y14240D01*
X20640Y13270D02*
X21240Y13870D01*
X20300Y12390D02*
X20360Y12450D01*
X25460Y10640D02*
X24840Y10640D01*
X24840Y10640D02*
X21240Y14240D01*
X20580Y14590D02*
X20070Y15100D01*
X21240Y14240D02*
X20890Y14590D01*
X20890Y14590D02*
X20580Y14590D01*
X23720Y6135D02*
X23614Y6135D01*
X20940Y8150D02*
X21274Y8150D01*
X20860Y8070D02*
X20940Y8150D01*
X20860Y7960D02*
X20860Y8070D01*
X21140Y7680D02*
X20860Y7960D01*
X22670Y7680D02*
X21140Y7680D01*
X23010Y7340D02*
X22670Y7680D01*
X23010Y6740D02*
X23010Y7340D01*
X23614Y6135D02*
X23010Y6740D01*
X17580Y12857D02*
X17580Y12940D01*
X17580Y12940D02*
X17570Y12950D01*
X15124Y15266D02*
X15124Y15684D01*
X15124Y15684D02*
X15340Y15900D01*
X16840Y15810D02*
X16840Y15266D01*
X16770Y15880D02*
X16840Y15810D01*
X14946Y13172D02*
X15528Y13172D01*
X17287Y12857D02*
X17580Y12857D01*
X17580Y12857D02*
X18254Y12857D01*
X17120Y12690D02*
X17287Y12857D01*
X16010Y12690D02*
X17120Y12690D01*
X15528Y13172D02*
X16010Y12690D01*
X16904Y3984D02*
X15295Y3984D01*
X15210Y6180D02*
X17580Y6180D01*
X14990Y5960D02*
X15210Y6180D01*
X14990Y4290D02*
X14990Y5960D01*
X15295Y3984D02*
X14990Y4290D01*
X23720Y6135D02*
X26279Y6135D01*
X26279Y2885D02*
X26279Y3229D01*
X26279Y3229D02*
X27750Y4700D01*
X22200Y5650D02*
X22200Y4290D01*
X22200Y4290D02*
X22280Y4210D01*
X20332Y6478D02*
X20828Y6478D01*
X22200Y6560D02*
X22200Y6150D01*
X22090Y6670D02*
X22200Y6560D01*
X21020Y6670D02*
X22090Y6670D01*
X20828Y6478D02*
X21020Y6670D01*
X14450Y9775D02*
X14184Y9775D01*
X14070Y9890D02*
X14070Y10200D01*
X14184Y9775D02*
X14070Y9890D01*
X14070Y10200D02*
X13990Y10280D01*
X27750Y5100D02*
X27210Y5640D01*
X26775Y5640D02*
X26279Y6135D01*
X27210Y5640D02*
X26775Y5640D01*
X19924Y15916D02*
X19924Y15615D01*
X19924Y15615D02*
X20140Y15400D01*
X20140Y15400D02*
X20140Y15170D01*
X20140Y15170D02*
X20070Y15100D01*
X20070Y15100D02*
X19825Y15100D01*
X28224Y4600D02*
X27850Y4600D01*
X27900Y5250D02*
X28224Y5250D01*
X27750Y5100D02*
X27900Y5250D01*
X27750Y4700D02*
X27750Y5100D01*
X27850Y4600D02*
X27750Y4700D01*
X25310Y8530D02*
X25320Y8530D01*
X28210Y10450D02*
X29400Y10450D01*
X27110Y11550D02*
X28210Y10450D01*
X26220Y11550D02*
X27110Y11550D01*
X25460Y10790D02*
X26220Y11550D01*
X25460Y8670D02*
X25460Y10640D01*
X25460Y10640D02*
X25460Y10790D01*
X25320Y8530D02*
X25460Y8670D01*
X27320Y7820D02*
X28050Y7820D01*
X29400Y10030D02*
X29400Y10450D01*
X28050Y7820D02*
X29400Y9170D01*
X29400Y9170D02*
X29400Y10030D01*
X29400Y10450D02*
X29400Y11750D01*
X27320Y7820D02*
X27320Y7176D01*
X27320Y7176D02*
X26279Y6135D01*
X21825Y5550D02*
X22100Y5550D01*
X22150Y6200D02*
X21825Y6200D01*
X22200Y6150D02*
X22150Y6200D01*
X22200Y5650D02*
X22200Y6150D01*
X22100Y5550D02*
X22200Y5650D01*
X18755Y3984D02*
X16904Y3984D01*
X16690Y3350D02*
X17024Y3350D01*
X16600Y3440D02*
X16690Y3350D01*
X16600Y3680D02*
X16600Y3440D01*
X16904Y3984D02*
X16600Y3680D01*
X20050Y3775D02*
X20050Y4100D01*
X20050Y4100D02*
X19940Y4210D01*
X19940Y4210D02*
X18981Y4210D01*
X18981Y4210D02*
X18755Y3984D01*
X11460Y10310D02*
X13060Y10310D01*
X13060Y10310D02*
X13110Y10260D01*
X18068Y5966D02*
X17674Y5966D01*
X17580Y6060D02*
X17580Y6180D01*
X17674Y5966D02*
X17580Y6060D01*
X17580Y6180D02*
X17622Y6222D01*
X17622Y6222D02*
X18068Y6222D01*
X24225Y7600D02*
X24225Y8225D01*
X24422Y8422D02*
X24866Y8422D01*
X24225Y8225D02*
X24422Y8422D01*
X24866Y8677D02*
X25272Y8677D01*
X25262Y8422D02*
X24866Y8422D01*
X25310Y8470D02*
X25262Y8422D01*
X25310Y8640D02*
X25310Y8530D01*
X25310Y8530D02*
X25310Y8470D01*
X25272Y8677D02*
X25310Y8640D01*
X26725Y8150D02*
X27010Y8150D01*
X27400Y7900D02*
X27400Y8174D01*
X27320Y7820D02*
X27400Y7900D01*
X27130Y7820D02*
X27320Y7820D01*
X27060Y7890D02*
X27130Y7820D01*
X27060Y8100D02*
X27060Y7890D01*
X27010Y8150D02*
X27060Y8100D01*
X20055Y12755D02*
X20055Y12390D01*
X20055Y12390D02*
X20055Y12145D01*
X19960Y12050D02*
X19675Y12050D01*
X20055Y12145D02*
X19960Y12050D01*
X18254Y12857D02*
X18617Y12857D01*
X18617Y12857D02*
X18800Y13040D01*
X18800Y13040D02*
X19980Y13040D01*
X19980Y13040D02*
X20060Y12960D01*
X20060Y12960D02*
X20060Y12760D01*
X20060Y12760D02*
X20055Y12755D01*
X20000Y12700D02*
X19675Y12700D01*
X20055Y12755D02*
X20000Y12700D01*
X22610Y2770D02*
X23604Y2770D01*
X23604Y2770D02*
X23720Y2885D01*
X21611Y1702D02*
X21611Y2181D01*
X22150Y4080D02*
X22150Y3775D01*
X22280Y4210D02*
X22150Y4080D01*
X22440Y4210D02*
X22280Y4210D01*
X22610Y2770D02*
X22610Y4040D01*
X22610Y4040D02*
X22440Y4210D01*
X22350Y2510D02*
X22610Y2770D01*
X21940Y2510D02*
X22350Y2510D01*
X21611Y2181D02*
X21940Y2510D01*
X13750Y15474D02*
X13750Y15070D01*
X15124Y15074D02*
X15124Y15266D01*
X14910Y14860D02*
X15124Y15074D01*
X13960Y14860D02*
X14910Y14860D01*
X13750Y15070D02*
X13960Y14860D01*
X16524Y15266D02*
X16840Y15266D01*
X16840Y15266D02*
X16942Y15266D01*
X16942Y15266D02*
X17200Y15524D01*
X10900Y9675D02*
X10900Y9990D01*
X11525Y10244D02*
X11525Y9883D01*
X11460Y10310D02*
X11525Y10244D01*
X11220Y10310D02*
X11460Y10310D01*
X10900Y9990D02*
X11220Y10310D01*
X13990Y10280D02*
X13130Y10280D01*
X13130Y10280D02*
X13110Y10260D01*
X13025Y10175D02*
X13025Y9883D01*
X13110Y10260D02*
X13025Y10175D01*
X13080Y12950D02*
X13030Y12900D01*
X13030Y12900D02*
X13030Y12580D01*
X14946Y13172D02*
X14338Y13172D01*
X13080Y12950D02*
X13374Y12950D01*
X13060Y12970D02*
X13080Y12950D01*
X13060Y13210D02*
X13060Y12970D01*
X13110Y13260D02*
X13060Y13210D01*
X14250Y13260D02*
X13110Y13260D01*
X14338Y13172D02*
X14250Y13260D01*
X14946Y12543D02*
X14347Y12543D01*
X14347Y12543D02*
X14260Y12630D01*
X14260Y12630D02*
X13080Y12630D01*
X13080Y12630D02*
X13030Y12580D01*
X13040Y12300D02*
X13374Y12300D01*
X13030Y12580D02*
X13030Y12310D01*
X13030Y12310D02*
X13040Y12300D01*
X18500Y16075D02*
X18500Y16350D01*
X17910Y16420D02*
X17500Y16830D01*
X18430Y16420D02*
X17910Y16420D01*
X18500Y16350D02*
X18430Y16420D01*
X16000Y9224D02*
X16000Y8840D01*
X14930Y8600D02*
X14500Y8169D01*
X15760Y8600D02*
X14930Y8600D01*
X16000Y8840D02*
X15760Y8600D01*
X17300Y9224D02*
X17300Y8969D01*
X17300Y8969D02*
X16500Y8169D01*
X18960Y15100D02*
X18960Y15370D01*
X19175Y15585D02*
X19175Y15916D01*
X18960Y15370D02*
X19175Y15585D01*
X19274Y14450D02*
X18960Y14450D01*
X18960Y15100D02*
X19274Y15100D01*
X18920Y15060D02*
X18960Y15100D01*
X18920Y14490D02*
X18920Y15060D01*
X18960Y14450D02*
X18920Y14490D01*
X9500Y9124D02*
X9500Y8810D01*
X7471Y6110D02*
X6831Y6750D01*
X9140Y6110D02*
X7471Y6110D01*
X10210Y7180D02*
X9140Y6110D01*
X10210Y8100D02*
X10210Y7180D01*
X9500Y8810D02*
X10210Y8100D01*
X13810Y16320D02*
X13150Y16320D01*
X13100Y16270D02*
X13100Y16025D01*
X13150Y16320D02*
X13100Y16270D01*
X14375Y15266D02*
X14375Y16084D01*
X13750Y16260D02*
X13750Y16025D01*
X13810Y16320D02*
X13750Y16260D01*
X14140Y16320D02*
X13810Y16320D01*
X14375Y16084D02*
X14140Y16320D01*
X13774Y9883D02*
X13774Y8995D01*
X13950Y8820D02*
X14550Y8820D01*
X13774Y8995D02*
X13950Y8820D01*
X15100Y9224D02*
X15100Y8920D01*
X14450Y8920D02*
X14450Y9224D01*
X14550Y8820D02*
X14450Y8920D01*
X15000Y8820D02*
X14550Y8820D01*
X15100Y8920D02*
X15000Y8820D01*
X19550Y16783D02*
X19550Y17110D01*
X18829Y17160D02*
X18500Y16830D01*
X19500Y17160D02*
X18829Y17160D01*
X19550Y17110D02*
X19500Y17160D01*
X28775Y4600D02*
X29250Y4600D01*
X29400Y4250D02*
X29000Y3850D01*
X29400Y4450D02*
X29400Y4250D01*
X29250Y4600D02*
X29400Y4450D01*
X16150Y16133D02*
X16150Y16400D01*
X15719Y16830D02*
X15500Y16830D01*
X16150Y16400D02*
X15719Y16830D01*
X29000Y6000D02*
X29250Y6000D01*
X29250Y5250D02*
X28775Y5250D01*
X29500Y5500D02*
X29250Y5250D01*
X29500Y5750D02*
X29500Y5500D01*
X29250Y6000D02*
X29500Y5750D01*
X17310Y16410D02*
X16720Y16410D01*
X16460Y15780D02*
X16370Y15690D01*
X16460Y16150D02*
X16460Y15780D01*
X16720Y16410D02*
X16460Y16150D01*
X15775Y15266D02*
X15775Y15585D01*
X15775Y15585D02*
X15880Y15690D01*
X15880Y15690D02*
X16370Y15690D01*
X17850Y16075D02*
X17850Y16180D01*
X17200Y16300D02*
X17200Y16075D01*
X17310Y16410D02*
X17200Y16300D01*
X17620Y16410D02*
X17310Y16410D01*
X17850Y16180D02*
X17620Y16410D01*
X20332Y6734D02*
X20734Y6734D01*
X21100Y7100D02*
X21274Y7100D01*
X20734Y6734D02*
X21100Y7100D01*
X17200Y5525D02*
X17200Y5750D01*
X17620Y5710D02*
X18068Y5710D01*
X17490Y5840D02*
X17620Y5710D01*
X17290Y5840D02*
X17490Y5840D01*
X17200Y5750D02*
X17290Y5840D01*
X23570Y1820D02*
X24040Y1820D01*
X22930Y2460D02*
X23570Y1820D01*
X24390Y1050D02*
X24674Y1050D01*
X24300Y1140D02*
X24390Y1050D01*
X24300Y1560D02*
X24300Y1140D01*
X24040Y1820D02*
X24300Y1560D01*
X17200Y4974D02*
X17964Y4974D01*
X17964Y4974D02*
X17970Y4980D01*
X21450Y3775D02*
X21450Y3960D01*
X18486Y5454D02*
X18068Y5454D01*
X18770Y5170D02*
X18486Y5454D01*
X20210Y5170D02*
X18770Y5170D01*
X20520Y4860D02*
X20210Y5170D01*
X20520Y4450D02*
X20520Y4860D01*
X20420Y4350D02*
X20520Y4450D01*
X21450Y3960D02*
X21080Y4330D01*
X21450Y2440D02*
X21750Y2740D01*
X22150Y2880D02*
X22150Y3224D01*
X22010Y2740D02*
X22150Y2880D01*
X21750Y2740D02*
X22010Y2740D01*
X21100Y1702D02*
X21100Y2090D01*
X21450Y2440D02*
X21450Y3224D01*
X21100Y2090D02*
X21450Y2440D01*
X22870Y4520D02*
X22870Y5230D01*
X22480Y6970D02*
X22350Y7100D01*
X22480Y5620D02*
X22480Y6970D01*
X22870Y5230D02*
X22480Y5620D01*
X24340Y1950D02*
X24440Y1850D01*
X24340Y3150D02*
X24340Y1950D01*
X23990Y3500D02*
X24340Y3150D01*
X23100Y3500D02*
X23990Y3500D01*
X22870Y3730D02*
X23100Y3500D01*
X22870Y4520D02*
X22870Y3730D01*
X24674Y1850D02*
X24440Y1850D01*
X22350Y7100D02*
X21825Y7100D01*
X21303Y10343D02*
X21133Y10343D01*
X20950Y8800D02*
X21274Y8800D01*
X20750Y9000D02*
X20950Y8800D01*
X20750Y9960D02*
X20750Y9000D01*
X21133Y10343D02*
X20750Y9960D01*
X6831Y5750D02*
X4424Y5750D01*
X4424Y5750D02*
X4400Y5725D01*
X6831Y5750D02*
X9160Y5750D01*
X11900Y8490D02*
X11900Y9016D01*
X9160Y5750D02*
X11900Y8490D01*
X20750Y3775D02*
X20750Y5000D01*
X20746Y5454D02*
X20332Y5454D01*
X20850Y5350D02*
X20746Y5454D01*
X20850Y5100D02*
X20850Y5350D01*
X20750Y5000D02*
X20850Y5100D01*
X20332Y5710D02*
X19970Y5710D01*
X18486Y6734D02*
X18068Y6734D01*
X18580Y6640D02*
X18486Y6734D01*
X18580Y5680D02*
X18580Y6640D01*
X18880Y5380D02*
X18580Y5680D01*
X19640Y5380D02*
X18880Y5380D01*
X19970Y5710D02*
X19640Y5380D01*
X20790Y5710D02*
X20790Y5940D01*
X20764Y5966D02*
X20332Y5966D01*
X20790Y5940D02*
X20764Y5966D01*
X20332Y5710D02*
X20790Y5710D01*
X20950Y5550D02*
X21274Y5550D01*
X20790Y5710D02*
X20950Y5550D01*
X13374Y11000D02*
X12670Y11000D01*
X12240Y12380D02*
X12540Y12680D01*
X12240Y11430D02*
X12240Y12380D01*
X12670Y11000D02*
X12240Y11430D01*
X13080Y16830D02*
X13500Y16830D01*
X12540Y16290D02*
X13080Y16830D01*
X12540Y12680D02*
X12540Y16290D01*
X4400Y5174D02*
X3424Y5174D01*
X3424Y5174D02*
X3400Y5150D01*
X20844Y2250D02*
X20844Y2345D01*
X20050Y2900D02*
X20050Y3224D01*
X20180Y2770D02*
X20050Y2900D01*
X20420Y2770D02*
X20180Y2770D01*
X20844Y2345D02*
X20420Y2770D01*
X20844Y1702D02*
X20844Y2250D01*
X20844Y2250D02*
X20844Y3130D01*
X20844Y3130D02*
X20750Y3224D01*
X10200Y9124D02*
X10200Y8800D01*
X10220Y8780D02*
X10940Y8780D01*
X10200Y8800D02*
X10220Y8780D01*
X10900Y9124D02*
X10900Y8820D01*
X12274Y9584D02*
X12274Y9883D01*
X12160Y9470D02*
X12274Y9584D01*
X11640Y9470D02*
X12160Y9470D01*
X11490Y9320D02*
X11640Y9470D01*
X11490Y9080D02*
X11490Y9320D01*
X11190Y8780D02*
X11490Y9080D01*
X10940Y8780D02*
X11190Y8780D01*
X10900Y8820D02*
X10940Y8780D01*
X14750Y16133D02*
X14750Y16580D01*
X14750Y16580D02*
X14500Y16830D01*
X13400Y9016D02*
X13400Y8269D01*
X13400Y8269D02*
X13500Y8169D01*
X16650Y9224D02*
X16650Y9020D01*
X15799Y8169D02*
X15500Y8169D01*
X16650Y9020D02*
X15799Y8169D01*
X23674Y6950D02*
X23500Y6950D01*
X22700Y7900D02*
X22450Y8150D01*
X23100Y7900D02*
X22700Y7900D01*
X23300Y7700D02*
X23100Y7900D01*
X23300Y7150D02*
X23300Y7700D01*
X23500Y6950D02*
X23300Y7150D01*
X21825Y8150D02*
X22450Y8150D01*
X22450Y8150D02*
X23117Y8150D01*
X23117Y8150D02*
X23133Y8166D01*
X21825Y8800D02*
X22120Y8800D01*
X22130Y8150D02*
X21825Y8150D01*
X22180Y8200D02*
X22130Y8150D01*
X22180Y8740D02*
X22180Y8200D01*
X22120Y8800D02*
X22180Y8740D01*
X26725Y8800D02*
X26920Y8800D01*
X27050Y8930D02*
X27050Y9560D01*
X26920Y8800D02*
X27050Y8930D01*
X26697Y10343D02*
X26697Y9913D01*
X27400Y9210D02*
X27400Y8725D01*
X26697Y9913D02*
X27050Y9560D01*
X27050Y9560D02*
X27400Y9210D01*
X24225Y6950D02*
X24550Y6950D01*
X25400Y7950D02*
X25600Y8150D01*
X25000Y7950D02*
X25400Y7950D01*
X24650Y7600D02*
X25000Y7950D01*
X24650Y7050D02*
X24650Y7600D01*
X24550Y6950D02*
X24650Y7050D01*
X26174Y8150D02*
X25600Y8150D01*
X25600Y8150D02*
X24882Y8150D01*
X24882Y8150D02*
X24866Y8166D01*
X26174Y8800D02*
X25930Y8800D01*
X25840Y8150D02*
X26174Y8150D01*
X25790Y8200D02*
X25840Y8150D01*
X25790Y8660D02*
X25790Y8200D01*
X25930Y8800D02*
X25790Y8660D01*
X17575Y3350D02*
X17810Y3350D01*
X18640Y2520D02*
X18700Y2520D01*
X17810Y3350D02*
X18640Y2520D01*
X20588Y1702D02*
X20588Y2231D01*
X17521Y2520D02*
X17351Y2350D01*
X20300Y2520D02*
X18700Y2520D01*
X18700Y2520D02*
X17521Y2520D01*
X20588Y2231D02*
X20300Y2520D01*
X17950Y9224D02*
X17950Y8619D01*
X17950Y8619D02*
X17500Y8169D01*
X18600Y9224D02*
X18600Y8269D01*
X18600Y8269D02*
X18500Y8169D01*
X13374Y11650D02*
X12740Y11650D01*
X12440Y12290D02*
X12790Y12640D01*
X12440Y11949D02*
X12440Y12290D01*
X12740Y11650D02*
X12440Y11949D01*
X12790Y14410D02*
X13080Y14700D01*
X12790Y12640D02*
X12790Y14410D01*
X14946Y12857D02*
X15383Y12857D01*
X15460Y12316D02*
X15372Y12228D01*
X15460Y12780D02*
X15460Y12316D01*
X15383Y12857D02*
X15460Y12780D01*
X17850Y12543D02*
X17833Y12543D01*
X17833Y12543D02*
X17670Y12380D01*
X17800Y11913D02*
X17800Y11910D01*
X17800Y11910D02*
X17460Y11570D01*
X17460Y11570D02*
X16950Y11570D01*
X16950Y11570D02*
X16800Y11720D01*
X16800Y11720D02*
X16800Y11840D01*
X16800Y11840D02*
X16610Y12030D01*
X16610Y12030D02*
X16340Y12030D01*
X16340Y12030D02*
X16140Y11830D01*
X16140Y11830D02*
X16140Y11640D01*
X16140Y11640D02*
X16070Y11570D01*
X16070Y11570D02*
X15620Y11570D01*
X15620Y11570D02*
X15560Y11630D01*
X15560Y11630D02*
X15560Y12040D01*
X15560Y12040D02*
X15372Y12228D01*
X14340Y12228D02*
X14340Y12080D01*
X12880Y11980D02*
X12770Y12090D01*
X14240Y11980D02*
X12880Y11980D01*
X14340Y12080D02*
X14240Y11980D01*
X9500Y9675D02*
X9500Y9870D01*
X9500Y9870D02*
X10130Y10500D01*
X14946Y12228D02*
X15372Y12228D01*
X22790Y6920D02*
X22790Y7040D01*
X20810Y7450D02*
X20680Y7580D01*
X22380Y7450D02*
X20810Y7450D01*
X22790Y7040D02*
X22380Y7450D01*
X18254Y11913D02*
X17800Y11913D01*
X17800Y11913D02*
X17797Y11913D01*
X17797Y11913D02*
X17670Y12040D01*
X17670Y12040D02*
X17670Y12380D01*
X17850Y12543D02*
X18254Y12543D01*
X3400Y6150D02*
X3030Y6150D01*
X13710Y4900D02*
X14320Y4290D01*
X6190Y4900D02*
X13710Y4900D01*
X5540Y4250D02*
X6190Y4900D01*
X2810Y4250D02*
X5540Y4250D01*
X2460Y4600D02*
X2810Y4250D01*
X2460Y5580D02*
X2460Y4600D01*
X3030Y6150D02*
X2460Y5580D01*
X15500Y2650D02*
X15500Y3110D01*
X15110Y7000D02*
X16074Y7000D01*
X14320Y6210D02*
X15110Y7000D01*
X14320Y4290D02*
X14320Y6210D01*
X15500Y3110D02*
X14320Y4290D01*
X20332Y6222D02*
X19888Y6222D01*
X19790Y7710D02*
X20170Y8090D01*
X19790Y6320D02*
X19790Y7710D01*
X19888Y6222D02*
X19790Y6320D01*
X23400Y5070D02*
X23330Y5070D01*
X23330Y5070D02*
X22790Y5610D01*
X22790Y5610D02*
X22790Y6920D01*
X20680Y7580D02*
X20170Y8090D01*
X19550Y8710D02*
X19550Y11200D01*
X20170Y8090D02*
X19550Y8710D01*
X19550Y11200D02*
X21620Y11200D01*
X21620Y11200D02*
X22180Y10640D01*
X22180Y10640D02*
X22180Y9320D01*
X22587Y8422D02*
X23133Y8422D01*
X22390Y9110D02*
X22180Y9320D01*
X22390Y8620D02*
X22390Y9110D01*
X22587Y8422D02*
X22390Y8620D01*
X24385Y5065D02*
X25155Y5065D01*
X25350Y4870D02*
X25350Y4475D01*
X25155Y5065D02*
X25350Y4870D01*
X25640Y1740D02*
X25640Y2100D01*
X24650Y4800D02*
X24650Y4475D01*
X24380Y5070D02*
X24385Y5065D01*
X24385Y5065D02*
X24650Y4800D01*
X23400Y5070D02*
X24380Y5070D01*
X23070Y4740D02*
X23400Y5070D01*
X23070Y3949D02*
X23070Y4740D01*
X23300Y3720D02*
X23070Y3949D01*
X24240Y3720D02*
X23300Y3720D01*
X25100Y2860D02*
X24240Y3720D01*
X25100Y2640D02*
X25100Y2860D01*
X25640Y2100D02*
X25100Y2640D01*
X19124Y11775D02*
X19124Y12050D01*
X19550Y11200D02*
X19500Y11250D01*
X19500Y11250D02*
X19500Y11400D01*
X19500Y11400D02*
X19124Y11775D01*
X20332Y6222D02*
X21252Y6222D01*
X21252Y6222D02*
X21274Y6200D01*
X23674Y7600D02*
X23674Y8275D01*
X23674Y8275D02*
X23527Y8422D01*
X23527Y8422D02*
X23133Y8422D01*
X18254Y12543D02*
X18693Y12543D01*
X18693Y12543D02*
X18850Y12700D01*
X18850Y12700D02*
X19124Y12700D01*
X18254Y11913D02*
X18663Y11913D01*
X18800Y12050D02*
X19124Y12050D01*
X18663Y11913D02*
X18800Y12050D01*
X15830Y2350D02*
X15800Y2350D01*
X15500Y2650D02*
X15175Y2650D01*
X15800Y2350D02*
X15500Y2650D01*
X15630Y1810D02*
X15430Y2010D01*
X15185Y2010D02*
X15175Y2000D01*
X15430Y2010D02*
X15185Y2010D01*
X17024Y1350D02*
X16700Y1350D01*
X15810Y2350D02*
X15830Y2350D01*
X15830Y2350D02*
X16248Y2350D01*
X15630Y2170D02*
X15810Y2350D01*
X15630Y1810D02*
X15630Y2170D01*
X15810Y1630D02*
X15630Y1810D01*
X16420Y1630D02*
X15810Y1630D01*
X16700Y1350D02*
X16420Y1630D01*
X25225Y1050D02*
X25550Y1050D01*
X25530Y1850D02*
X25225Y1850D01*
X25660Y1720D02*
X25640Y1740D01*
X25640Y1740D02*
X25530Y1850D01*
X25660Y1160D02*
X25660Y1720D01*
X25550Y1050D02*
X25660Y1160D01*
X14946Y12857D02*
X14303Y12857D01*
X14210Y12950D02*
X13925Y12950D01*
X14303Y12857D02*
X14210Y12950D01*
X14946Y12228D02*
X14340Y12228D01*
X14340Y12228D02*
X14302Y12228D01*
X14230Y12300D02*
X13925Y12300D01*
X14302Y12228D02*
X14230Y12300D01*
G54D10*
G36*
X9960Y7283D02*
X9036Y6360D01*
X7574Y6360D01*
X7358Y6575D01*
X7385Y6639D01*
X7385Y6859D01*
X7301Y7063D01*
X7145Y7219D01*
X7012Y7275D01*
X9000Y7275D01*
X9086Y7292D01*
X9159Y7340D01*
X9207Y7413D01*
X9225Y7500D01*
X9225Y8840D01*
X9248Y8817D01*
X9250Y8816D01*
X9250Y8810D01*
X9269Y8714D01*
X9323Y8633D01*
X9960Y7996D01*
X9960Y7283D01*
X9960Y7283D01*
G37*
G54D38*
X9960Y7283D02*
X9036Y6360D01*
X7574Y6360D01*
X7358Y6575D01*
X7385Y6639D01*
X7385Y6859D01*
X7301Y7063D01*
X7145Y7219D01*
X7012Y7275D01*
X9000Y7275D01*
X9086Y7292D01*
X9159Y7340D01*
X9207Y7413D01*
X9225Y7500D01*
X9225Y8840D01*
X9248Y8817D01*
X9250Y8816D01*
X9250Y8810D01*
X9269Y8714D01*
X9323Y8633D01*
X9960Y7996D01*
X9960Y7283D01*
G54D10*
G36*
X11305Y10270D02*
X11284Y10261D01*
X11228Y10204D01*
X11197Y10131D01*
X11198Y9958D01*
X11248Y9908D01*
X11215Y9908D01*
X11207Y9926D01*
X11151Y9982D01*
X11077Y10013D01*
X10998Y10013D01*
X10975Y10013D01*
X10925Y9963D01*
X10925Y9700D01*
X10932Y9700D01*
X10932Y9650D01*
X10925Y9650D01*
X10925Y9642D01*
X10875Y9642D01*
X10875Y9650D01*
X10875Y9700D01*
X10875Y9963D01*
X10825Y10013D01*
X10801Y10013D01*
X10722Y10013D01*
X10648Y9982D01*
X10592Y9926D01*
X10562Y9852D01*
X10562Y9750D01*
X10612Y9700D01*
X10875Y9700D01*
X10875Y9650D01*
X10612Y9650D01*
X10562Y9600D01*
X10562Y9498D01*
X10592Y9424D01*
X10617Y9400D01*
X10592Y9375D01*
X10562Y9302D01*
X10562Y9222D01*
X10562Y9030D01*
X10537Y9030D01*
X10537Y9301D01*
X10507Y9375D01*
X10482Y9399D01*
X10507Y9424D01*
X10537Y9497D01*
X10537Y9577D01*
X10537Y9852D01*
X10516Y9903D01*
X10883Y10270D01*
X11305Y10270D01*
X11305Y10270D01*
G37*
G54D38*
X11305Y10270D02*
X11284Y10261D01*
X11228Y10204D01*
X11197Y10131D01*
X11198Y9958D01*
X11248Y9908D01*
X11215Y9908D01*
X11207Y9926D01*
X11151Y9982D01*
X11077Y10013D01*
X10998Y10013D01*
X10975Y10013D01*
X10925Y9963D01*
X10925Y9700D01*
X10932Y9700D01*
X10932Y9650D01*
X10925Y9650D01*
X10925Y9642D01*
X10875Y9642D01*
X10875Y9650D01*
X10875Y9700D01*
X10875Y9963D01*
X10825Y10013D01*
X10801Y10013D01*
X10722Y10013D01*
X10648Y9982D01*
X10592Y9926D01*
X10562Y9852D01*
X10562Y9750D01*
X10612Y9700D01*
X10875Y9700D01*
X10875Y9650D01*
X10612Y9650D01*
X10562Y9600D01*
X10562Y9498D01*
X10592Y9424D01*
X10617Y9400D01*
X10592Y9375D01*
X10562Y9302D01*
X10562Y9222D01*
X10562Y9030D01*
X10537Y9030D01*
X10537Y9301D01*
X10507Y9375D01*
X10482Y9399D01*
X10507Y9424D01*
X10537Y9497D01*
X10537Y9577D01*
X10537Y9852D01*
X10516Y9903D01*
X10883Y10270D01*
X11305Y10270D01*
G54D10*
G36*
X12053Y10270D02*
X12032Y10261D01*
X11976Y10205D01*
X11946Y10131D01*
X11946Y10052D01*
X11946Y9720D01*
X11853Y9720D01*
X11853Y9808D01*
X11803Y9858D01*
X11550Y9858D01*
X11550Y9850D01*
X11500Y9850D01*
X11500Y9858D01*
X11493Y9858D01*
X11493Y9908D01*
X11500Y9908D01*
X11500Y9915D01*
X11550Y9915D01*
X11550Y9908D01*
X11803Y9908D01*
X11853Y9958D01*
X11853Y10131D01*
X11823Y10204D01*
X11767Y10261D01*
X11746Y10270D01*
X12053Y10270D01*
X12053Y10270D01*
G37*
G54D38*
X12053Y10270D02*
X12032Y10261D01*
X11976Y10205D01*
X11946Y10131D01*
X11946Y10052D01*
X11946Y9720D01*
X11853Y9720D01*
X11853Y9808D01*
X11803Y9858D01*
X11550Y9858D01*
X11550Y9850D01*
X11500Y9850D01*
X11500Y9858D01*
X11493Y9858D01*
X11493Y9908D01*
X11500Y9908D01*
X11500Y9915D01*
X11550Y9915D01*
X11550Y9908D01*
X11803Y9908D01*
X11853Y9958D01*
X11853Y10131D01*
X11823Y10204D01*
X11767Y10261D01*
X11746Y10270D01*
X12053Y10270D01*
G54D10*
G36*
X13165Y12625D02*
X13123Y12607D01*
X13067Y12551D01*
X13036Y12477D01*
X13036Y12398D01*
X13036Y12375D01*
X13086Y12325D01*
X13036Y12325D01*
X13036Y12318D01*
X12968Y12386D01*
X12913Y12409D01*
X12966Y12463D01*
X13020Y12544D01*
X13040Y12640D01*
X13040Y12764D01*
X13067Y12698D01*
X13123Y12642D01*
X13165Y12625D01*
X13165Y12625D01*
G37*
G54D38*
X13165Y12625D02*
X13123Y12607D01*
X13067Y12551D01*
X13036Y12477D01*
X13036Y12398D01*
X13036Y12375D01*
X13086Y12325D01*
X13036Y12325D01*
X13036Y12318D01*
X12968Y12386D01*
X12913Y12409D01*
X12966Y12463D01*
X13020Y12544D01*
X13040Y12640D01*
X13040Y12764D01*
X13067Y12698D01*
X13123Y12642D01*
X13165Y12625D01*
G54D10*
G36*
X13357Y13287D02*
X13349Y13287D01*
X13349Y13237D01*
X13299Y13287D01*
X13197Y13287D01*
X13123Y13257D01*
X13067Y13201D01*
X13040Y13135D01*
X13040Y13386D01*
X13080Y13370D01*
X13219Y13369D01*
X13260Y13387D01*
X13263Y13382D01*
X13357Y13287D01*
X13357Y13287D01*
G37*
G54D38*
X13357Y13287D02*
X13349Y13287D01*
X13349Y13237D01*
X13299Y13287D01*
X13197Y13287D01*
X13123Y13257D01*
X13067Y13201D01*
X13040Y13135D01*
X13040Y13386D01*
X13080Y13370D01*
X13219Y13369D01*
X13260Y13387D01*
X13263Y13382D01*
X13357Y13287D01*
G54D10*
G36*
X13436Y12625D02*
X13399Y12587D01*
X13399Y12325D01*
X13407Y12325D01*
X13407Y12275D01*
X13399Y12275D01*
X13399Y12267D01*
X13349Y12267D01*
X13349Y12275D01*
X13341Y12275D01*
X13341Y12325D01*
X13349Y12325D01*
X13349Y12587D01*
X13312Y12625D01*
X13349Y12662D01*
X13349Y12925D01*
X13341Y12925D01*
X13341Y12975D01*
X13349Y12975D01*
X13349Y12982D01*
X13399Y12982D01*
X13399Y12975D01*
X13407Y12975D01*
X13407Y12925D01*
X13399Y12925D01*
X13399Y12662D01*
X13436Y12625D01*
X13436Y12625D01*
G37*
G54D38*
X13436Y12625D02*
X13399Y12587D01*
X13399Y12325D01*
X13407Y12325D01*
X13407Y12275D01*
X13399Y12275D01*
X13399Y12267D01*
X13349Y12267D01*
X13349Y12275D01*
X13341Y12275D01*
X13341Y12325D01*
X13349Y12325D01*
X13349Y12587D01*
X13312Y12625D01*
X13349Y12662D01*
X13349Y12925D01*
X13341Y12925D01*
X13341Y12975D01*
X13349Y12975D01*
X13349Y12982D01*
X13399Y12982D01*
X13399Y12975D01*
X13407Y12975D01*
X13407Y12925D01*
X13399Y12925D01*
X13399Y12662D01*
X13436Y12625D01*
G54D10*
G36*
X14094Y10420D02*
X14093Y10418D01*
X14040Y10289D01*
X14040Y10236D01*
X14015Y10261D01*
X13941Y10291D01*
X13862Y10291D01*
X13819Y10291D01*
X13896Y10343D01*
X13973Y10420D01*
X14094Y10420D01*
X14094Y10420D01*
G37*
G54D38*
X14094Y10420D02*
X14093Y10418D01*
X14040Y10289D01*
X14040Y10236D01*
X14015Y10261D01*
X13941Y10291D01*
X13862Y10291D01*
X13819Y10291D01*
X13896Y10343D01*
X13973Y10420D01*
X14094Y10420D01*
G54D10*
G36*
X14133Y14890D02*
X13773Y14890D01*
X13416Y15246D01*
X13425Y15265D01*
X13442Y15223D01*
X13498Y15167D01*
X13572Y15136D01*
X13651Y15136D01*
X13675Y15136D01*
X13725Y15186D01*
X13725Y15449D01*
X13717Y15449D01*
X13717Y15499D01*
X13725Y15499D01*
X13725Y15507D01*
X13775Y15507D01*
X13775Y15499D01*
X13782Y15499D01*
X13782Y15449D01*
X13775Y15449D01*
X13775Y15186D01*
X13825Y15136D01*
X13848Y15136D01*
X13927Y15136D01*
X14001Y15167D01*
X14047Y15214D01*
X14047Y15018D01*
X14078Y14945D01*
X14133Y14890D01*
X14133Y14890D01*
G37*
G54D38*
X14133Y14890D02*
X13773Y14890D01*
X13416Y15246D01*
X13425Y15265D01*
X13442Y15223D01*
X13498Y15167D01*
X13572Y15136D01*
X13651Y15136D01*
X13675Y15136D01*
X13725Y15186D01*
X13725Y15449D01*
X13717Y15449D01*
X13717Y15499D01*
X13725Y15499D01*
X13725Y15507D01*
X13775Y15507D01*
X13775Y15499D01*
X13782Y15499D01*
X13782Y15449D01*
X13775Y15449D01*
X13775Y15186D01*
X13825Y15136D01*
X13848Y15136D01*
X13927Y15136D01*
X14001Y15167D01*
X14047Y15214D01*
X14047Y15018D01*
X14078Y14945D01*
X14133Y14890D01*
G54D10*
G36*
X14482Y9750D02*
X14475Y9750D01*
X14475Y9742D01*
X14425Y9742D01*
X14425Y9750D01*
X14162Y9750D01*
X14112Y9700D01*
X14112Y9598D01*
X14142Y9524D01*
X14167Y9500D01*
X14142Y9475D01*
X14112Y9402D01*
X14112Y9322D01*
X14112Y9070D01*
X14053Y9070D01*
X14024Y9099D01*
X14024Y9513D01*
X14071Y9560D01*
X14101Y9634D01*
X14102Y9714D01*
X14102Y10013D01*
X14126Y9988D01*
X14112Y9952D01*
X14112Y9850D01*
X14162Y9800D01*
X14425Y9800D01*
X14425Y9808D01*
X14475Y9808D01*
X14475Y9800D01*
X14482Y9800D01*
X14482Y9750D01*
X14482Y9750D01*
G37*
G54D38*
X14482Y9750D02*
X14475Y9750D01*
X14475Y9742D01*
X14425Y9742D01*
X14425Y9750D01*
X14162Y9750D01*
X14112Y9700D01*
X14112Y9598D01*
X14142Y9524D01*
X14167Y9500D01*
X14142Y9475D01*
X14112Y9402D01*
X14112Y9322D01*
X14112Y9070D01*
X14053Y9070D01*
X14024Y9099D01*
X14024Y9513D01*
X14071Y9560D01*
X14101Y9634D01*
X14102Y9714D01*
X14102Y10013D01*
X14126Y9988D01*
X14112Y9952D01*
X14112Y9850D01*
X14162Y9800D01*
X14425Y9800D01*
X14425Y9808D01*
X14475Y9808D01*
X14475Y9800D01*
X14482Y9800D01*
X14482Y9750D01*
G54D10*
G36*
X14978Y12526D02*
X14610Y12526D01*
X14590Y12518D01*
X14500Y12518D01*
X14460Y12478D01*
X14450Y12478D01*
X14450Y12484D01*
X14450Y12478D01*
X14404Y12478D01*
X14325Y12530D01*
X14233Y12549D01*
X14233Y12550D01*
X14176Y12607D01*
X14134Y12625D01*
X14176Y12642D01*
X14178Y12644D01*
X14207Y12626D01*
X14207Y12626D01*
X14303Y12607D01*
X14450Y12607D01*
X14450Y12601D01*
X14450Y12607D01*
X14461Y12607D01*
X14500Y12568D01*
X14587Y12568D01*
X14610Y12558D01*
X14690Y12558D01*
X14978Y12558D01*
X14978Y12526D01*
X14978Y12526D01*
G37*
G54D38*
X14978Y12526D02*
X14610Y12526D01*
X14590Y12518D01*
X14500Y12518D01*
X14460Y12478D01*
X14450Y12478D01*
X14450Y12484D01*
X14450Y12478D01*
X14404Y12478D01*
X14325Y12530D01*
X14233Y12549D01*
X14233Y12550D01*
X14176Y12607D01*
X14134Y12625D01*
X14176Y12642D01*
X14178Y12644D01*
X14207Y12626D01*
X14207Y12626D01*
X14303Y12607D01*
X14450Y12607D01*
X14450Y12601D01*
X14450Y12607D01*
X14461Y12607D01*
X14500Y12568D01*
X14587Y12568D01*
X14610Y12558D01*
X14690Y12558D01*
X14978Y12558D01*
X14978Y12526D01*
G54D10*
G36*
X15600Y1485D02*
X15552Y1465D01*
X15330Y1243D01*
X15209Y953D01*
X15209Y638D01*
X15329Y348D01*
X15452Y225D01*
X8192Y225D01*
X8192Y3887D01*
X8086Y4141D01*
X7892Y4336D01*
X7638Y4441D01*
X7362Y4442D01*
X7108Y4336D01*
X6913Y4142D01*
X6808Y3888D01*
X6807Y3612D01*
X6913Y3358D01*
X7107Y3163D01*
X7361Y3058D01*
X7637Y3057D01*
X7891Y3163D01*
X8086Y3357D01*
X8191Y3611D01*
X8192Y3887D01*
X8192Y225D01*
X2408Y225D01*
X2408Y1679D01*
X2270Y2014D01*
X2015Y2269D01*
X1681Y2408D01*
X1320Y2408D01*
X985Y2270D01*
X730Y2015D01*
X591Y1681D01*
X591Y1320D01*
X729Y985D01*
X984Y730D01*
X1318Y591D01*
X1679Y591D01*
X2014Y729D01*
X2269Y984D01*
X2408Y1318D01*
X2408Y1679D01*
X2408Y225D01*
X225Y225D01*
X225Y7300D01*
X902Y7300D01*
X913Y7292D01*
X1000Y7275D01*
X6649Y7275D01*
X6517Y7220D01*
X6361Y7064D01*
X6276Y6860D01*
X6276Y6640D01*
X6360Y6436D01*
X6516Y6280D01*
X6589Y6250D01*
X6517Y6220D01*
X6361Y6064D01*
X6334Y6000D01*
X4684Y6000D01*
X4651Y6032D01*
X4577Y6063D01*
X4498Y6063D01*
X4222Y6063D01*
X4149Y6033D01*
X4092Y5976D01*
X4062Y5903D01*
X4062Y5823D01*
X4062Y5548D01*
X4092Y5474D01*
X4117Y5450D01*
X4092Y5425D01*
X4092Y5424D01*
X3843Y5424D01*
X3836Y5441D01*
X3692Y5586D01*
X3538Y5650D01*
X3691Y5713D01*
X3836Y5857D01*
X3914Y6047D01*
X3915Y6251D01*
X3836Y6441D01*
X3692Y6586D01*
X3502Y6664D01*
X3298Y6665D01*
X3108Y6586D01*
X2963Y6442D01*
X2938Y6381D01*
X2934Y6380D01*
X2853Y6326D01*
X2283Y5756D01*
X2229Y5675D01*
X2210Y5580D01*
X2210Y4600D01*
X2229Y4504D01*
X2283Y4423D01*
X2633Y4073D01*
X2633Y4073D01*
X2714Y4019D01*
X2714Y4019D01*
X2790Y4003D01*
X2809Y4000D01*
X2809Y4000D01*
X2810Y4000D01*
X5540Y4000D01*
X5635Y4019D01*
X5716Y4073D01*
X6293Y4650D01*
X13606Y4650D01*
X14143Y4113D01*
X14143Y4113D01*
X15250Y3006D01*
X15250Y2987D01*
X14998Y2987D01*
X14924Y2957D01*
X14900Y2932D01*
X14875Y2957D01*
X14802Y2987D01*
X14722Y2987D01*
X14447Y2987D01*
X14373Y2957D01*
X14349Y2933D01*
X14050Y3233D01*
X14050Y3710D01*
X14030Y3805D01*
X13976Y3886D01*
X13702Y4161D01*
X13621Y4215D01*
X13525Y4234D01*
X13479Y4234D01*
X13467Y4264D01*
X13328Y4403D01*
X13146Y4479D01*
X12949Y4479D01*
X12767Y4404D01*
X12627Y4265D01*
X12552Y4083D01*
X12551Y3886D01*
X12627Y3704D01*
X12766Y3564D01*
X12939Y3492D01*
X12771Y3422D01*
X12743Y3338D01*
X13047Y3035D01*
X13350Y3338D01*
X13323Y3422D01*
X13152Y3491D01*
X13327Y3564D01*
X13459Y3696D01*
X13550Y3606D01*
X13550Y3130D01*
X13569Y3034D01*
X13623Y2953D01*
X14103Y2473D01*
X14184Y2419D01*
X14280Y2400D01*
X14316Y2400D01*
X14316Y2399D01*
X14373Y2342D01*
X14415Y2324D01*
X14373Y2307D01*
X14331Y2265D01*
X13543Y2265D01*
X13543Y2906D01*
X13541Y3103D01*
X13469Y3276D01*
X13386Y3303D01*
X13082Y3000D01*
X13386Y2696D01*
X13469Y2723D01*
X13543Y2906D01*
X13543Y2265D01*
X13479Y2265D01*
X13467Y2295D01*
X13328Y2435D01*
X13154Y2507D01*
X13323Y2577D01*
X13350Y2661D01*
X13047Y2964D01*
X13011Y2929D01*
X13011Y3000D01*
X12708Y3303D01*
X12624Y3276D01*
X12550Y3093D01*
X12553Y2896D01*
X12624Y2723D01*
X12708Y2696D01*
X13011Y3000D01*
X13011Y2929D01*
X12743Y2661D01*
X12771Y2577D01*
X12942Y2508D01*
X12767Y2435D01*
X12627Y2296D01*
X12552Y2114D01*
X12551Y1917D01*
X12627Y1735D01*
X12766Y1596D01*
X12948Y1520D01*
X13145Y1520D01*
X13327Y1595D01*
X13466Y1734D01*
X13479Y1765D01*
X14310Y1765D01*
X14316Y1749D01*
X14373Y1692D01*
X14446Y1662D01*
X14526Y1662D01*
X14801Y1662D01*
X14875Y1692D01*
X14899Y1717D01*
X14924Y1692D01*
X14997Y1662D01*
X15077Y1662D01*
X15352Y1662D01*
X15403Y1683D01*
X15453Y1633D01*
X15453Y1633D01*
X15600Y1485D01*
X15600Y1485D01*
G37*
G54D38*
X15600Y1485D02*
X15552Y1465D01*
X15330Y1243D01*
X15209Y953D01*
X15209Y638D01*
X15329Y348D01*
X15452Y225D01*
X8192Y225D01*
X8192Y3887D01*
X8086Y4141D01*
X7892Y4336D01*
X7638Y4441D01*
X7362Y4442D01*
X7108Y4336D01*
X6913Y4142D01*
X6808Y3888D01*
X6807Y3612D01*
X6913Y3358D01*
X7107Y3163D01*
X7361Y3058D01*
X7637Y3057D01*
X7891Y3163D01*
X8086Y3357D01*
X8191Y3611D01*
X8192Y3887D01*
X8192Y225D01*
X2408Y225D01*
X2408Y1679D01*
X2270Y2014D01*
X2015Y2269D01*
X1681Y2408D01*
X1320Y2408D01*
X985Y2270D01*
X730Y2015D01*
X591Y1681D01*
X591Y1320D01*
X729Y985D01*
X984Y730D01*
X1318Y591D01*
X1679Y591D01*
X2014Y729D01*
X2269Y984D01*
X2408Y1318D01*
X2408Y1679D01*
X2408Y225D01*
X225Y225D01*
X225Y7300D01*
X902Y7300D01*
X913Y7292D01*
X1000Y7275D01*
X6649Y7275D01*
X6517Y7220D01*
X6361Y7064D01*
X6276Y6860D01*
X6276Y6640D01*
X6360Y6436D01*
X6516Y6280D01*
X6589Y6250D01*
X6517Y6220D01*
X6361Y6064D01*
X6334Y6000D01*
X4684Y6000D01*
X4651Y6032D01*
X4577Y6063D01*
X4498Y6063D01*
X4222Y6063D01*
X4149Y6033D01*
X4092Y5976D01*
X4062Y5903D01*
X4062Y5823D01*
X4062Y5548D01*
X4092Y5474D01*
X4117Y5450D01*
X4092Y5425D01*
X4092Y5424D01*
X3843Y5424D01*
X3836Y5441D01*
X3692Y5586D01*
X3538Y5650D01*
X3691Y5713D01*
X3836Y5857D01*
X3914Y6047D01*
X3915Y6251D01*
X3836Y6441D01*
X3692Y6586D01*
X3502Y6664D01*
X3298Y6665D01*
X3108Y6586D01*
X2963Y6442D01*
X2938Y6381D01*
X2934Y6380D01*
X2853Y6326D01*
X2283Y5756D01*
X2229Y5675D01*
X2210Y5580D01*
X2210Y4600D01*
X2229Y4504D01*
X2283Y4423D01*
X2633Y4073D01*
X2633Y4073D01*
X2714Y4019D01*
X2714Y4019D01*
X2790Y4003D01*
X2809Y4000D01*
X2809Y4000D01*
X2810Y4000D01*
X5540Y4000D01*
X5635Y4019D01*
X5716Y4073D01*
X6293Y4650D01*
X13606Y4650D01*
X14143Y4113D01*
X14143Y4113D01*
X15250Y3006D01*
X15250Y2987D01*
X14998Y2987D01*
X14924Y2957D01*
X14900Y2932D01*
X14875Y2957D01*
X14802Y2987D01*
X14722Y2987D01*
X14447Y2987D01*
X14373Y2957D01*
X14349Y2933D01*
X14050Y3233D01*
X14050Y3710D01*
X14030Y3805D01*
X13976Y3886D01*
X13702Y4161D01*
X13621Y4215D01*
X13525Y4234D01*
X13479Y4234D01*
X13467Y4264D01*
X13328Y4403D01*
X13146Y4479D01*
X12949Y4479D01*
X12767Y4404D01*
X12627Y4265D01*
X12552Y4083D01*
X12551Y3886D01*
X12627Y3704D01*
X12766Y3564D01*
X12939Y3492D01*
X12771Y3422D01*
X12743Y3338D01*
X13047Y3035D01*
X13350Y3338D01*
X13323Y3422D01*
X13152Y3491D01*
X13327Y3564D01*
X13459Y3696D01*
X13550Y3606D01*
X13550Y3130D01*
X13569Y3034D01*
X13623Y2953D01*
X14103Y2473D01*
X14184Y2419D01*
X14280Y2400D01*
X14316Y2400D01*
X14316Y2399D01*
X14373Y2342D01*
X14415Y2324D01*
X14373Y2307D01*
X14331Y2265D01*
X13543Y2265D01*
X13543Y2906D01*
X13541Y3103D01*
X13469Y3276D01*
X13386Y3303D01*
X13082Y3000D01*
X13386Y2696D01*
X13469Y2723D01*
X13543Y2906D01*
X13543Y2265D01*
X13479Y2265D01*
X13467Y2295D01*
X13328Y2435D01*
X13154Y2507D01*
X13323Y2577D01*
X13350Y2661D01*
X13047Y2964D01*
X13011Y2929D01*
X13011Y3000D01*
X12708Y3303D01*
X12624Y3276D01*
X12550Y3093D01*
X12553Y2896D01*
X12624Y2723D01*
X12708Y2696D01*
X13011Y3000D01*
X13011Y2929D01*
X12743Y2661D01*
X12771Y2577D01*
X12942Y2508D01*
X12767Y2435D01*
X12627Y2296D01*
X12552Y2114D01*
X12551Y1917D01*
X12627Y1735D01*
X12766Y1596D01*
X12948Y1520D01*
X13145Y1520D01*
X13327Y1595D01*
X13466Y1734D01*
X13479Y1765D01*
X14310Y1765D01*
X14316Y1749D01*
X14373Y1692D01*
X14446Y1662D01*
X14526Y1662D01*
X14801Y1662D01*
X14875Y1692D01*
X14899Y1717D01*
X14924Y1692D01*
X14997Y1662D01*
X15077Y1662D01*
X15352Y1662D01*
X15403Y1683D01*
X15453Y1633D01*
X15453Y1633D01*
X15600Y1485D01*
G54D10*
G36*
X17600Y15120D02*
X17175Y15120D01*
X17175Y15236D01*
X17175Y15499D01*
X16912Y15499D01*
X16862Y15449D01*
X16862Y15347D01*
X16892Y15273D01*
X16948Y15217D01*
X17022Y15186D01*
X17101Y15186D01*
X17125Y15186D01*
X17175Y15236D01*
X17175Y15120D01*
X16851Y15120D01*
X16851Y15191D01*
X16801Y15241D01*
X16549Y15241D01*
X16549Y15234D01*
X16499Y15234D01*
X16499Y15241D01*
X16246Y15241D01*
X16196Y15191D01*
X16196Y15120D01*
X16103Y15120D01*
X16103Y15440D01*
X16196Y15440D01*
X16196Y15341D01*
X16246Y15291D01*
X16499Y15291D01*
X16499Y15299D01*
X16549Y15299D01*
X16549Y15291D01*
X16801Y15291D01*
X16851Y15341D01*
X16852Y15515D01*
X16821Y15588D01*
X16765Y15645D01*
X16691Y15675D01*
X16685Y15675D01*
X16690Y15684D01*
X16710Y15780D01*
X16710Y16046D01*
X16823Y16160D01*
X16862Y16160D01*
X16862Y15898D01*
X16892Y15824D01*
X16917Y15800D01*
X16892Y15775D01*
X16862Y15701D01*
X16862Y15599D01*
X16912Y15549D01*
X17175Y15549D01*
X17175Y15557D01*
X17225Y15557D01*
X17225Y15549D01*
X17232Y15549D01*
X17232Y15499D01*
X17225Y15499D01*
X17225Y15236D01*
X17275Y15186D01*
X17298Y15186D01*
X17377Y15186D01*
X17451Y15217D01*
X17507Y15273D01*
X17525Y15315D01*
X17542Y15273D01*
X17598Y15217D01*
X17600Y15216D01*
X17600Y15120D01*
X17600Y15120D01*
G37*
G54D38*
X17600Y15120D02*
X17175Y15120D01*
X17175Y15236D01*
X17175Y15499D01*
X16912Y15499D01*
X16862Y15449D01*
X16862Y15347D01*
X16892Y15273D01*
X16948Y15217D01*
X17022Y15186D01*
X17101Y15186D01*
X17125Y15186D01*
X17175Y15236D01*
X17175Y15120D01*
X16851Y15120D01*
X16851Y15191D01*
X16801Y15241D01*
X16549Y15241D01*
X16549Y15234D01*
X16499Y15234D01*
X16499Y15241D01*
X16246Y15241D01*
X16196Y15191D01*
X16196Y15120D01*
X16103Y15120D01*
X16103Y15440D01*
X16196Y15440D01*
X16196Y15341D01*
X16246Y15291D01*
X16499Y15291D01*
X16499Y15299D01*
X16549Y15299D01*
X16549Y15291D01*
X16801Y15291D01*
X16851Y15341D01*
X16852Y15515D01*
X16821Y15588D01*
X16765Y15645D01*
X16691Y15675D01*
X16685Y15675D01*
X16690Y15684D01*
X16710Y15780D01*
X16710Y16046D01*
X16823Y16160D01*
X16862Y16160D01*
X16862Y15898D01*
X16892Y15824D01*
X16917Y15800D01*
X16892Y15775D01*
X16862Y15701D01*
X16862Y15599D01*
X16912Y15549D01*
X17175Y15549D01*
X17175Y15557D01*
X17225Y15557D01*
X17225Y15549D01*
X17232Y15549D01*
X17232Y15499D01*
X17225Y15499D01*
X17225Y15236D01*
X17275Y15186D01*
X17298Y15186D01*
X17377Y15186D01*
X17451Y15217D01*
X17507Y15273D01*
X17525Y15315D01*
X17542Y15273D01*
X17598Y15217D01*
X17600Y15216D01*
X17600Y15120D01*
G54D10*
G36*
X17700Y8722D02*
X17582Y8605D01*
X17413Y8605D01*
X17253Y8539D01*
X17130Y8416D01*
X17063Y8256D01*
X17063Y8082D01*
X17129Y7922D01*
X17252Y7799D01*
X17412Y7733D01*
X17519Y7733D01*
X17413Y7626D01*
X17399Y7605D01*
X17388Y7616D01*
X17259Y7669D01*
X17120Y7670D01*
X16992Y7616D01*
X16893Y7518D01*
X16840Y7389D01*
X16840Y7322D01*
X16803Y7337D01*
X16723Y7337D01*
X16448Y7337D01*
X16374Y7307D01*
X16350Y7282D01*
X16325Y7307D01*
X16252Y7337D01*
X16172Y7337D01*
X15897Y7337D01*
X15823Y7307D01*
X15767Y7251D01*
X15766Y7250D01*
X15110Y7250D01*
X15109Y7250D01*
X15090Y7246D01*
X15014Y7230D01*
X14933Y7176D01*
X14933Y7176D01*
X14143Y6386D01*
X14089Y6305D01*
X14070Y6210D01*
X14070Y4893D01*
X13886Y5076D01*
X13805Y5130D01*
X13710Y5150D01*
X13000Y5150D01*
X13000Y9524D01*
X13000Y9858D01*
X12748Y9858D01*
X12698Y9808D01*
X12697Y9634D01*
X12728Y9561D01*
X12784Y9504D01*
X12858Y9474D01*
X12937Y9474D01*
X12950Y9474D01*
X13000Y9524D01*
X13000Y5150D01*
X6190Y5150D01*
X6094Y5130D01*
X6013Y5076D01*
X6013Y5076D01*
X5436Y4500D01*
X2913Y4500D01*
X2710Y4703D01*
X2710Y5476D01*
X3027Y5794D01*
X3107Y5713D01*
X3261Y5649D01*
X3108Y5586D01*
X2963Y5442D01*
X2885Y5252D01*
X2884Y5048D01*
X2963Y4858D01*
X3107Y4713D01*
X3297Y4635D01*
X3501Y4634D01*
X3691Y4713D01*
X3836Y4857D01*
X3863Y4924D01*
X4092Y4924D01*
X4092Y4923D01*
X4148Y4867D01*
X4222Y4836D01*
X4301Y4836D01*
X4577Y4836D01*
X4650Y4866D01*
X4707Y4923D01*
X4737Y4996D01*
X4737Y5076D01*
X4737Y5351D01*
X4707Y5425D01*
X4682Y5449D01*
X4707Y5474D01*
X4717Y5500D01*
X6334Y5500D01*
X6360Y5436D01*
X6516Y5280D01*
X6720Y5195D01*
X6940Y5195D01*
X7144Y5279D01*
X7300Y5435D01*
X7327Y5500D01*
X9160Y5500D01*
X9255Y5519D01*
X9336Y5573D01*
X12076Y8313D01*
X12076Y8313D01*
X12076Y8313D01*
X12130Y8394D01*
X12130Y8394D01*
X12146Y8470D01*
X12150Y8489D01*
X12149Y8490D01*
X12150Y8490D01*
X12150Y8647D01*
X12197Y8694D01*
X12227Y8768D01*
X12227Y8847D01*
X12227Y9233D01*
X12255Y9239D01*
X12336Y9293D01*
X12450Y9407D01*
X12504Y9488D01*
X12507Y9501D01*
X12515Y9504D01*
X12571Y9560D01*
X12601Y9634D01*
X12602Y9714D01*
X12602Y10131D01*
X12571Y10204D01*
X12515Y10261D01*
X12494Y10270D01*
X12805Y10270D01*
X12784Y10261D01*
X12728Y10204D01*
X12697Y10131D01*
X12698Y9958D01*
X12748Y9908D01*
X13000Y9908D01*
X13000Y9915D01*
X13050Y9915D01*
X13050Y9908D01*
X13303Y9908D01*
X13353Y9958D01*
X13353Y10131D01*
X13323Y10204D01*
X13267Y10261D01*
X13246Y10270D01*
X13553Y10270D01*
X13532Y10261D01*
X13476Y10205D01*
X13446Y10131D01*
X13446Y10052D01*
X13446Y9634D01*
X13476Y9561D01*
X13524Y9513D01*
X13524Y9425D01*
X13488Y9425D01*
X13353Y9425D01*
X13353Y9634D01*
X13353Y9808D01*
X13303Y9858D01*
X13050Y9858D01*
X13050Y9524D01*
X13100Y9474D01*
X13114Y9474D01*
X13193Y9474D01*
X13267Y9504D01*
X13323Y9561D01*
X13353Y9634D01*
X13353Y9425D01*
X13232Y9425D01*
X13158Y9395D01*
X13102Y9339D01*
X13072Y9265D01*
X13072Y9185D01*
X13072Y8768D01*
X13102Y8695D01*
X13150Y8647D01*
X13150Y8436D01*
X13130Y8416D01*
X13063Y8256D01*
X13063Y8082D01*
X13129Y7922D01*
X13252Y7799D01*
X13412Y7733D01*
X13586Y7732D01*
X13746Y7799D01*
X13869Y7921D01*
X13936Y8082D01*
X13936Y8255D01*
X13870Y8416D01*
X13747Y8538D01*
X13650Y8579D01*
X13650Y8647D01*
X13697Y8694D01*
X13704Y8711D01*
X13773Y8643D01*
X13773Y8643D01*
X13821Y8610D01*
X13854Y8589D01*
X13854Y8589D01*
X13950Y8570D01*
X14327Y8570D01*
X14253Y8539D01*
X14130Y8416D01*
X14063Y8256D01*
X14063Y8082D01*
X14129Y7922D01*
X14252Y7799D01*
X14412Y7733D01*
X14586Y7732D01*
X14746Y7799D01*
X14869Y7921D01*
X14936Y8082D01*
X14936Y8252D01*
X15034Y8350D01*
X15102Y8350D01*
X15063Y8256D01*
X15063Y8082D01*
X15129Y7922D01*
X15252Y7799D01*
X15412Y7733D01*
X15586Y7732D01*
X15746Y7799D01*
X15869Y7921D01*
X15874Y7934D01*
X15894Y7938D01*
X15976Y7992D01*
X16064Y8080D01*
X16129Y7922D01*
X16252Y7799D01*
X16412Y7733D01*
X16586Y7732D01*
X16746Y7799D01*
X16869Y7921D01*
X16936Y8082D01*
X16936Y8252D01*
X17476Y8792D01*
X17476Y8792D01*
X17476Y8792D01*
X17530Y8873D01*
X17530Y8873D01*
X17538Y8911D01*
X17550Y8916D01*
X17607Y8973D01*
X17625Y9015D01*
X17642Y8973D01*
X17698Y8917D01*
X17700Y8916D01*
X17700Y8722D01*
X17700Y8722D01*
G37*
G54D38*
X17700Y8722D02*
X17582Y8605D01*
X17413Y8605D01*
X17253Y8539D01*
X17130Y8416D01*
X17063Y8256D01*
X17063Y8082D01*
X17129Y7922D01*
X17252Y7799D01*
X17412Y7733D01*
X17519Y7733D01*
X17413Y7626D01*
X17399Y7605D01*
X17388Y7616D01*
X17259Y7669D01*
X17120Y7670D01*
X16992Y7616D01*
X16893Y7518D01*
X16840Y7389D01*
X16840Y7322D01*
X16803Y7337D01*
X16723Y7337D01*
X16448Y7337D01*
X16374Y7307D01*
X16350Y7282D01*
X16325Y7307D01*
X16252Y7337D01*
X16172Y7337D01*
X15897Y7337D01*
X15823Y7307D01*
X15767Y7251D01*
X15766Y7250D01*
X15110Y7250D01*
X15109Y7250D01*
X15090Y7246D01*
X15014Y7230D01*
X14933Y7176D01*
X14933Y7176D01*
X14143Y6386D01*
X14089Y6305D01*
X14070Y6210D01*
X14070Y4893D01*
X13886Y5076D01*
X13805Y5130D01*
X13710Y5150D01*
X13000Y5150D01*
X13000Y9524D01*
X13000Y9858D01*
X12748Y9858D01*
X12698Y9808D01*
X12697Y9634D01*
X12728Y9561D01*
X12784Y9504D01*
X12858Y9474D01*
X12937Y9474D01*
X12950Y9474D01*
X13000Y9524D01*
X13000Y5150D01*
X6190Y5150D01*
X6094Y5130D01*
X6013Y5076D01*
X6013Y5076D01*
X5436Y4500D01*
X2913Y4500D01*
X2710Y4703D01*
X2710Y5476D01*
X3027Y5794D01*
X3107Y5713D01*
X3261Y5649D01*
X3108Y5586D01*
X2963Y5442D01*
X2885Y5252D01*
X2884Y5048D01*
X2963Y4858D01*
X3107Y4713D01*
X3297Y4635D01*
X3501Y4634D01*
X3691Y4713D01*
X3836Y4857D01*
X3863Y4924D01*
X4092Y4924D01*
X4092Y4923D01*
X4148Y4867D01*
X4222Y4836D01*
X4301Y4836D01*
X4577Y4836D01*
X4650Y4866D01*
X4707Y4923D01*
X4737Y4996D01*
X4737Y5076D01*
X4737Y5351D01*
X4707Y5425D01*
X4682Y5449D01*
X4707Y5474D01*
X4717Y5500D01*
X6334Y5500D01*
X6360Y5436D01*
X6516Y5280D01*
X6720Y5195D01*
X6940Y5195D01*
X7144Y5279D01*
X7300Y5435D01*
X7327Y5500D01*
X9160Y5500D01*
X9255Y5519D01*
X9336Y5573D01*
X12076Y8313D01*
X12076Y8313D01*
X12076Y8313D01*
X12130Y8394D01*
X12130Y8394D01*
X12146Y8470D01*
X12150Y8489D01*
X12149Y8490D01*
X12150Y8490D01*
X12150Y8647D01*
X12197Y8694D01*
X12227Y8768D01*
X12227Y8847D01*
X12227Y9233D01*
X12255Y9239D01*
X12336Y9293D01*
X12450Y9407D01*
X12504Y9488D01*
X12507Y9501D01*
X12515Y9504D01*
X12571Y9560D01*
X12601Y9634D01*
X12602Y9714D01*
X12602Y10131D01*
X12571Y10204D01*
X12515Y10261D01*
X12494Y10270D01*
X12805Y10270D01*
X12784Y10261D01*
X12728Y10204D01*
X12697Y10131D01*
X12698Y9958D01*
X12748Y9908D01*
X13000Y9908D01*
X13000Y9915D01*
X13050Y9915D01*
X13050Y9908D01*
X13303Y9908D01*
X13353Y9958D01*
X13353Y10131D01*
X13323Y10204D01*
X13267Y10261D01*
X13246Y10270D01*
X13553Y10270D01*
X13532Y10261D01*
X13476Y10205D01*
X13446Y10131D01*
X13446Y10052D01*
X13446Y9634D01*
X13476Y9561D01*
X13524Y9513D01*
X13524Y9425D01*
X13488Y9425D01*
X13353Y9425D01*
X13353Y9634D01*
X13353Y9808D01*
X13303Y9858D01*
X13050Y9858D01*
X13050Y9524D01*
X13100Y9474D01*
X13114Y9474D01*
X13193Y9474D01*
X13267Y9504D01*
X13323Y9561D01*
X13353Y9634D01*
X13353Y9425D01*
X13232Y9425D01*
X13158Y9395D01*
X13102Y9339D01*
X13072Y9265D01*
X13072Y9185D01*
X13072Y8768D01*
X13102Y8695D01*
X13150Y8647D01*
X13150Y8436D01*
X13130Y8416D01*
X13063Y8256D01*
X13063Y8082D01*
X13129Y7922D01*
X13252Y7799D01*
X13412Y7733D01*
X13586Y7732D01*
X13746Y7799D01*
X13869Y7921D01*
X13936Y8082D01*
X13936Y8255D01*
X13870Y8416D01*
X13747Y8538D01*
X13650Y8579D01*
X13650Y8647D01*
X13697Y8694D01*
X13704Y8711D01*
X13773Y8643D01*
X13773Y8643D01*
X13821Y8610D01*
X13854Y8589D01*
X13854Y8589D01*
X13950Y8570D01*
X14327Y8570D01*
X14253Y8539D01*
X14130Y8416D01*
X14063Y8256D01*
X14063Y8082D01*
X14129Y7922D01*
X14252Y7799D01*
X14412Y7733D01*
X14586Y7732D01*
X14746Y7799D01*
X14869Y7921D01*
X14936Y8082D01*
X14936Y8252D01*
X15034Y8350D01*
X15102Y8350D01*
X15063Y8256D01*
X15063Y8082D01*
X15129Y7922D01*
X15252Y7799D01*
X15412Y7733D01*
X15586Y7732D01*
X15746Y7799D01*
X15869Y7921D01*
X15874Y7934D01*
X15894Y7938D01*
X15976Y7992D01*
X16064Y8080D01*
X16129Y7922D01*
X16252Y7799D01*
X16412Y7733D01*
X16586Y7732D01*
X16746Y7799D01*
X16869Y7921D01*
X16936Y8082D01*
X16936Y8252D01*
X17476Y8792D01*
X17476Y8792D01*
X17476Y8792D01*
X17530Y8873D01*
X17530Y8873D01*
X17538Y8911D01*
X17550Y8916D01*
X17607Y8973D01*
X17625Y9015D01*
X17642Y8973D01*
X17698Y8917D01*
X17700Y8916D01*
X17700Y8722D01*
G54D10*
G36*
X18286Y12841D02*
X17918Y12841D01*
X17895Y12832D01*
X17808Y12832D01*
X17758Y12782D01*
X17758Y12798D01*
X17758Y12778D01*
X17737Y12773D01*
X17656Y12719D01*
X17656Y12719D01*
X17493Y12556D01*
X17439Y12475D01*
X17420Y12380D01*
X17420Y12040D01*
X17439Y11944D01*
X17455Y11919D01*
X17356Y11820D01*
X17053Y11820D01*
X17050Y11823D01*
X17050Y11840D01*
X17030Y11935D01*
X17030Y11935D01*
X17009Y11968D01*
X16976Y12016D01*
X16976Y12016D01*
X16786Y12206D01*
X16705Y12260D01*
X16610Y12280D01*
X16340Y12280D01*
X16244Y12260D01*
X16211Y12239D01*
X16163Y12206D01*
X16163Y12206D01*
X15963Y12006D01*
X15909Y11925D01*
X15890Y11830D01*
X15890Y11820D01*
X15810Y11820D01*
X15810Y12040D01*
X15790Y12135D01*
X15790Y12135D01*
X15736Y12216D01*
X15697Y12255D01*
X15710Y12316D01*
X15710Y12780D01*
X15709Y12780D01*
X15710Y12780D01*
X15706Y12799D01*
X15690Y12875D01*
X15690Y12875D01*
X15636Y12956D01*
X15636Y12956D01*
X15559Y13033D01*
X15478Y13087D01*
X15441Y13095D01*
X15441Y13113D01*
X15441Y13097D01*
X15391Y13147D01*
X15301Y13147D01*
X15281Y13155D01*
X15201Y13155D01*
X14610Y13155D01*
X14590Y13147D01*
X14500Y13147D01*
X14460Y13107D01*
X14450Y13107D01*
X14450Y13113D01*
X14450Y13107D01*
X14406Y13107D01*
X14386Y13126D01*
X14305Y13180D01*
X14235Y13194D01*
X14233Y13200D01*
X14214Y13220D01*
X14477Y13220D01*
X14500Y13197D01*
X14590Y13197D01*
X14610Y13188D01*
X14690Y13188D01*
X15281Y13188D01*
X15301Y13197D01*
X15391Y13197D01*
X15441Y13247D01*
X15441Y13230D01*
X15441Y13310D01*
X15433Y13329D01*
X15437Y13337D01*
X15471Y13303D01*
X15600Y13250D01*
X15690Y13249D01*
X15723Y13172D01*
X15821Y13073D01*
X15870Y13053D01*
X15869Y12940D01*
X15923Y12812D01*
X16021Y12713D01*
X16150Y12660D01*
X16289Y12659D01*
X16418Y12713D01*
X16454Y12750D01*
X16481Y12723D01*
X16610Y12670D01*
X16749Y12669D01*
X16878Y12723D01*
X16976Y12821D01*
X16984Y12840D01*
X17170Y12840D01*
X17265Y12859D01*
X17346Y12913D01*
X17726Y13293D01*
X17726Y13293D01*
X17726Y13293D01*
X17760Y13343D01*
X17766Y13329D01*
X17758Y13310D01*
X17758Y13230D01*
X17758Y13033D01*
X17766Y13014D01*
X17758Y12995D01*
X17758Y12915D01*
X17758Y12932D01*
X17808Y12882D01*
X17898Y12882D01*
X17918Y12873D01*
X17998Y12873D01*
X18286Y12873D01*
X18286Y12841D01*
X18286Y12841D01*
G37*
G54D38*
X18286Y12841D02*
X17918Y12841D01*
X17895Y12832D01*
X17808Y12832D01*
X17758Y12782D01*
X17758Y12798D01*
X17758Y12778D01*
X17737Y12773D01*
X17656Y12719D01*
X17656Y12719D01*
X17493Y12556D01*
X17439Y12475D01*
X17420Y12380D01*
X17420Y12040D01*
X17439Y11944D01*
X17455Y11919D01*
X17356Y11820D01*
X17053Y11820D01*
X17050Y11823D01*
X17050Y11840D01*
X17030Y11935D01*
X17030Y11935D01*
X17009Y11968D01*
X16976Y12016D01*
X16976Y12016D01*
X16786Y12206D01*
X16705Y12260D01*
X16610Y12280D01*
X16340Y12280D01*
X16244Y12260D01*
X16211Y12239D01*
X16163Y12206D01*
X16163Y12206D01*
X15963Y12006D01*
X15909Y11925D01*
X15890Y11830D01*
X15890Y11820D01*
X15810Y11820D01*
X15810Y12040D01*
X15790Y12135D01*
X15790Y12135D01*
X15736Y12216D01*
X15697Y12255D01*
X15710Y12316D01*
X15710Y12780D01*
X15709Y12780D01*
X15710Y12780D01*
X15706Y12799D01*
X15690Y12875D01*
X15690Y12875D01*
X15636Y12956D01*
X15636Y12956D01*
X15559Y13033D01*
X15478Y13087D01*
X15441Y13095D01*
X15441Y13113D01*
X15441Y13097D01*
X15391Y13147D01*
X15301Y13147D01*
X15281Y13155D01*
X15201Y13155D01*
X14610Y13155D01*
X14590Y13147D01*
X14500Y13147D01*
X14460Y13107D01*
X14450Y13107D01*
X14450Y13113D01*
X14450Y13107D01*
X14406Y13107D01*
X14386Y13126D01*
X14305Y13180D01*
X14235Y13194D01*
X14233Y13200D01*
X14214Y13220D01*
X14477Y13220D01*
X14500Y13197D01*
X14590Y13197D01*
X14610Y13188D01*
X14690Y13188D01*
X15281Y13188D01*
X15301Y13197D01*
X15391Y13197D01*
X15441Y13247D01*
X15441Y13230D01*
X15441Y13310D01*
X15433Y13329D01*
X15437Y13337D01*
X15471Y13303D01*
X15600Y13250D01*
X15690Y13249D01*
X15723Y13172D01*
X15821Y13073D01*
X15870Y13053D01*
X15869Y12940D01*
X15923Y12812D01*
X16021Y12713D01*
X16150Y12660D01*
X16289Y12659D01*
X16418Y12713D01*
X16454Y12750D01*
X16481Y12723D01*
X16610Y12670D01*
X16749Y12669D01*
X16878Y12723D01*
X16976Y12821D01*
X16984Y12840D01*
X17170Y12840D01*
X17265Y12859D01*
X17346Y12913D01*
X17726Y13293D01*
X17726Y13293D01*
X17726Y13293D01*
X17760Y13343D01*
X17766Y13329D01*
X17758Y13310D01*
X17758Y13230D01*
X17758Y13033D01*
X17766Y13014D01*
X17758Y12995D01*
X17758Y12915D01*
X17758Y12932D01*
X17808Y12882D01*
X17898Y12882D01*
X17918Y12873D01*
X17998Y12873D01*
X18286Y12873D01*
X18286Y12841D01*
G54D10*
G36*
X18590Y17275D02*
X18582Y17266D01*
X18413Y17267D01*
X18253Y17200D01*
X18130Y17078D01*
X18063Y16917D01*
X18063Y16744D01*
X18094Y16670D01*
X18014Y16670D01*
X17936Y16748D01*
X17936Y16917D01*
X17870Y17077D01*
X17747Y17200D01*
X17587Y17266D01*
X17413Y17267D01*
X17253Y17200D01*
X17130Y17078D01*
X17063Y16917D01*
X17063Y16744D01*
X17098Y16660D01*
X16901Y16660D01*
X16936Y16743D01*
X16936Y16917D01*
X16870Y17077D01*
X16747Y17200D01*
X16587Y17266D01*
X16413Y17267D01*
X16253Y17200D01*
X16130Y17078D01*
X16063Y16917D01*
X16063Y16839D01*
X15900Y17002D01*
X15870Y17077D01*
X15747Y17200D01*
X15587Y17266D01*
X15413Y17267D01*
X15253Y17200D01*
X15130Y17078D01*
X15063Y16917D01*
X15063Y16744D01*
X15129Y16583D01*
X15252Y16461D01*
X15412Y16394D01*
X15586Y16394D01*
X15738Y16457D01*
X15822Y16374D01*
X15822Y16302D01*
X15822Y15928D01*
X15784Y15920D01*
X15703Y15866D01*
X15599Y15762D01*
X15545Y15681D01*
X15538Y15646D01*
X15534Y15645D01*
X15478Y15589D01*
X15449Y15520D01*
X15421Y15588D01*
X15365Y15645D01*
X15291Y15675D01*
X15212Y15675D01*
X15199Y15675D01*
X15149Y15625D01*
X15149Y15291D01*
X15156Y15291D01*
X15156Y15241D01*
X15149Y15241D01*
X15149Y15234D01*
X15099Y15234D01*
X15099Y15241D01*
X15099Y15291D01*
X15099Y15625D01*
X15049Y15675D01*
X15035Y15675D01*
X14956Y15675D01*
X14882Y15645D01*
X14826Y15588D01*
X14796Y15515D01*
X14796Y15341D01*
X14846Y15291D01*
X15099Y15291D01*
X15099Y15241D01*
X14846Y15241D01*
X14796Y15191D01*
X14796Y15018D01*
X14826Y14945D01*
X14881Y14890D01*
X14618Y14890D01*
X14673Y14944D01*
X14703Y15018D01*
X14703Y15097D01*
X14703Y15515D01*
X14673Y15588D01*
X14625Y15636D01*
X14625Y15724D01*
X14661Y15724D01*
X14917Y15724D01*
X14991Y15754D01*
X15047Y15810D01*
X15077Y15884D01*
X15077Y15964D01*
X15077Y16381D01*
X15047Y16454D01*
X15000Y16502D01*
X15000Y16580D01*
X14980Y16676D01*
X14980Y16676D01*
X14936Y16743D01*
X14936Y16743D01*
X14936Y16917D01*
X14870Y17077D01*
X14747Y17200D01*
X14587Y17266D01*
X14413Y17267D01*
X14253Y17200D01*
X14130Y17078D01*
X14063Y16917D01*
X14063Y16744D01*
X14129Y16583D01*
X14144Y16569D01*
X14140Y16570D01*
X13856Y16570D01*
X13869Y16583D01*
X13936Y16743D01*
X13936Y16917D01*
X13870Y17077D01*
X13747Y17200D01*
X13587Y17266D01*
X13413Y17267D01*
X13253Y17200D01*
X13132Y17080D01*
X13080Y17080D01*
X13080Y17080D01*
X13061Y17076D01*
X12985Y17061D01*
X12903Y17007D01*
X12903Y17007D01*
X12363Y16466D01*
X12309Y16385D01*
X12290Y16290D01*
X12290Y12783D01*
X12063Y12556D01*
X12009Y12475D01*
X11990Y12380D01*
X11990Y11430D01*
X12009Y11334D01*
X12063Y11253D01*
X12493Y10823D01*
X12572Y10770D01*
X10780Y10770D01*
X10684Y10750D01*
X10603Y10696D01*
X10478Y10572D01*
X10426Y10698D01*
X10328Y10796D01*
X10199Y10849D01*
X10060Y10850D01*
X9932Y10796D01*
X9833Y10698D01*
X9780Y10569D01*
X9780Y10503D01*
X9323Y10046D01*
X9292Y10001D01*
X9249Y9983D01*
X9225Y9959D01*
X9225Y12000D01*
X9225Y12656D01*
X9409Y12840D01*
X9409Y12840D01*
X9409Y12840D01*
X9457Y12913D01*
X9475Y13000D01*
X9475Y13250D01*
X9475Y15250D01*
X9475Y15500D01*
X9457Y15586D01*
X9409Y15659D01*
X9336Y15707D01*
X9250Y15725D01*
X6000Y15725D01*
X5750Y15725D01*
X5663Y15707D01*
X5590Y15659D01*
X5542Y15586D01*
X5525Y15500D01*
X5525Y14225D01*
X2408Y14225D01*
X2408Y16179D01*
X2270Y16514D01*
X2015Y16769D01*
X1681Y16908D01*
X1320Y16908D01*
X985Y16770D01*
X730Y16515D01*
X591Y16181D01*
X591Y15820D01*
X729Y15485D01*
X984Y15230D01*
X1318Y15091D01*
X1679Y15091D01*
X2014Y15229D01*
X2269Y15484D01*
X2408Y15818D01*
X2408Y16179D01*
X2408Y14225D01*
X1000Y14225D01*
X913Y14207D01*
X902Y14200D01*
X225Y14200D01*
X225Y17275D01*
X2326Y17275D01*
X2326Y16480D01*
X10673Y16480D01*
X10673Y17275D01*
X18590Y17275D01*
X18590Y17275D01*
G37*
G54D38*
X18590Y17275D02*
X18582Y17266D01*
X18413Y17267D01*
X18253Y17200D01*
X18130Y17078D01*
X18063Y16917D01*
X18063Y16744D01*
X18094Y16670D01*
X18014Y16670D01*
X17936Y16748D01*
X17936Y16917D01*
X17870Y17077D01*
X17747Y17200D01*
X17587Y17266D01*
X17413Y17267D01*
X17253Y17200D01*
X17130Y17078D01*
X17063Y16917D01*
X17063Y16744D01*
X17098Y16660D01*
X16901Y16660D01*
X16936Y16743D01*
X16936Y16917D01*
X16870Y17077D01*
X16747Y17200D01*
X16587Y17266D01*
X16413Y17267D01*
X16253Y17200D01*
X16130Y17078D01*
X16063Y16917D01*
X16063Y16839D01*
X15900Y17002D01*
X15870Y17077D01*
X15747Y17200D01*
X15587Y17266D01*
X15413Y17267D01*
X15253Y17200D01*
X15130Y17078D01*
X15063Y16917D01*
X15063Y16744D01*
X15129Y16583D01*
X15252Y16461D01*
X15412Y16394D01*
X15586Y16394D01*
X15738Y16457D01*
X15822Y16374D01*
X15822Y16302D01*
X15822Y15928D01*
X15784Y15920D01*
X15703Y15866D01*
X15599Y15762D01*
X15545Y15681D01*
X15538Y15646D01*
X15534Y15645D01*
X15478Y15589D01*
X15449Y15520D01*
X15421Y15588D01*
X15365Y15645D01*
X15291Y15675D01*
X15212Y15675D01*
X15199Y15675D01*
X15149Y15625D01*
X15149Y15291D01*
X15156Y15291D01*
X15156Y15241D01*
X15149Y15241D01*
X15149Y15234D01*
X15099Y15234D01*
X15099Y15241D01*
X15099Y15291D01*
X15099Y15625D01*
X15049Y15675D01*
X15035Y15675D01*
X14956Y15675D01*
X14882Y15645D01*
X14826Y15588D01*
X14796Y15515D01*
X14796Y15341D01*
X14846Y15291D01*
X15099Y15291D01*
X15099Y15241D01*
X14846Y15241D01*
X14796Y15191D01*
X14796Y15018D01*
X14826Y14945D01*
X14881Y14890D01*
X14618Y14890D01*
X14673Y14944D01*
X14703Y15018D01*
X14703Y15097D01*
X14703Y15515D01*
X14673Y15588D01*
X14625Y15636D01*
X14625Y15724D01*
X14661Y15724D01*
X14917Y15724D01*
X14991Y15754D01*
X15047Y15810D01*
X15077Y15884D01*
X15077Y15964D01*
X15077Y16381D01*
X15047Y16454D01*
X15000Y16502D01*
X15000Y16580D01*
X14980Y16676D01*
X14980Y16676D01*
X14936Y16743D01*
X14936Y16743D01*
X14936Y16917D01*
X14870Y17077D01*
X14747Y17200D01*
X14587Y17266D01*
X14413Y17267D01*
X14253Y17200D01*
X14130Y17078D01*
X14063Y16917D01*
X14063Y16744D01*
X14129Y16583D01*
X14144Y16569D01*
X14140Y16570D01*
X13856Y16570D01*
X13869Y16583D01*
X13936Y16743D01*
X13936Y16917D01*
X13870Y17077D01*
X13747Y17200D01*
X13587Y17266D01*
X13413Y17267D01*
X13253Y17200D01*
X13132Y17080D01*
X13080Y17080D01*
X13080Y17080D01*
X13061Y17076D01*
X12985Y17061D01*
X12903Y17007D01*
X12903Y17007D01*
X12363Y16466D01*
X12309Y16385D01*
X12290Y16290D01*
X12290Y12783D01*
X12063Y12556D01*
X12009Y12475D01*
X11990Y12380D01*
X11990Y11430D01*
X12009Y11334D01*
X12063Y11253D01*
X12493Y10823D01*
X12572Y10770D01*
X10780Y10770D01*
X10684Y10750D01*
X10603Y10696D01*
X10478Y10572D01*
X10426Y10698D01*
X10328Y10796D01*
X10199Y10849D01*
X10060Y10850D01*
X9932Y10796D01*
X9833Y10698D01*
X9780Y10569D01*
X9780Y10503D01*
X9323Y10046D01*
X9292Y10001D01*
X9249Y9983D01*
X9225Y9959D01*
X9225Y12000D01*
X9225Y12656D01*
X9409Y12840D01*
X9409Y12840D01*
X9409Y12840D01*
X9457Y12913D01*
X9475Y13000D01*
X9475Y13250D01*
X9475Y15250D01*
X9475Y15500D01*
X9457Y15586D01*
X9409Y15659D01*
X9336Y15707D01*
X9250Y15725D01*
X6000Y15725D01*
X5750Y15725D01*
X5663Y15707D01*
X5590Y15659D01*
X5542Y15586D01*
X5525Y15500D01*
X5525Y14225D01*
X2408Y14225D01*
X2408Y16179D01*
X2270Y16514D01*
X2015Y16769D01*
X1681Y16908D01*
X1320Y16908D01*
X985Y16770D01*
X730Y16515D01*
X591Y16181D01*
X591Y15820D01*
X729Y15485D01*
X984Y15230D01*
X1318Y15091D01*
X1679Y15091D01*
X2014Y15229D01*
X2269Y15484D01*
X2408Y15818D01*
X2408Y16179D01*
X2408Y14225D01*
X1000Y14225D01*
X913Y14207D01*
X902Y14200D01*
X225Y14200D01*
X225Y17275D01*
X2326Y17275D01*
X2326Y16480D01*
X10673Y16480D01*
X10673Y17275D01*
X18590Y17275D01*
G54D10*
G36*
X20467Y3500D02*
X20442Y3475D01*
X20412Y3402D01*
X20412Y3322D01*
X20412Y3047D01*
X20423Y3019D01*
X20420Y3020D01*
X20376Y3020D01*
X20387Y3046D01*
X20387Y3126D01*
X20387Y3401D01*
X20357Y3475D01*
X20332Y3500D01*
X20357Y3524D01*
X20387Y3598D01*
X20387Y3700D01*
X20337Y3750D01*
X20075Y3750D01*
X20075Y3742D01*
X20025Y3742D01*
X20025Y3750D01*
X20025Y3800D01*
X20025Y4063D01*
X19975Y4113D01*
X19951Y4113D01*
X19872Y4113D01*
X19798Y4082D01*
X19742Y4026D01*
X19712Y3952D01*
X19712Y3850D01*
X19762Y3800D01*
X20025Y3800D01*
X20025Y3750D01*
X19762Y3750D01*
X19712Y3700D01*
X19712Y3598D01*
X19742Y3524D01*
X19767Y3500D01*
X19742Y3475D01*
X19712Y3402D01*
X19712Y3322D01*
X19712Y3047D01*
X19742Y2973D01*
X19798Y2917D01*
X19800Y2916D01*
X19800Y2900D01*
X19819Y2804D01*
X19841Y2770D01*
X19252Y2770D01*
X19252Y3890D01*
X19250Y4087D01*
X19178Y4260D01*
X19094Y4287D01*
X19059Y4252D01*
X19059Y4323D01*
X19032Y4406D01*
X18849Y4480D01*
X18652Y4478D01*
X18479Y4406D01*
X18452Y4323D01*
X18755Y4019D01*
X19059Y4323D01*
X19059Y4252D01*
X18791Y3984D01*
X19094Y3680D01*
X19178Y3708D01*
X19252Y3890D01*
X19252Y2770D01*
X19059Y2770D01*
X19059Y3645D01*
X18755Y3948D01*
X18720Y3913D01*
X18720Y3984D01*
X18416Y4287D01*
X18333Y4260D01*
X18259Y4077D01*
X18261Y3880D01*
X18333Y3708D01*
X18416Y3680D01*
X18720Y3984D01*
X18720Y3913D01*
X18452Y3645D01*
X18479Y3561D01*
X18662Y3487D01*
X18859Y3490D01*
X19032Y3561D01*
X19059Y3645D01*
X19059Y2770D01*
X18743Y2770D01*
X17986Y3526D01*
X17905Y3580D01*
X17889Y3584D01*
X17883Y3600D01*
X17826Y3657D01*
X17753Y3687D01*
X17673Y3687D01*
X17398Y3687D01*
X17324Y3657D01*
X17300Y3632D01*
X17275Y3657D01*
X17201Y3687D01*
X17099Y3687D01*
X17049Y3637D01*
X17049Y3375D01*
X17057Y3375D01*
X17057Y3325D01*
X17049Y3325D01*
X17049Y3062D01*
X17099Y3012D01*
X17201Y3012D01*
X17275Y3042D01*
X17299Y3067D01*
X17324Y3042D01*
X17397Y3012D01*
X17477Y3012D01*
X17752Y3012D01*
X17782Y3024D01*
X18036Y2770D01*
X17855Y2770D01*
X17835Y2817D01*
X17779Y2873D01*
X17706Y2904D01*
X17626Y2904D01*
X16999Y2904D01*
X16999Y3062D01*
X16999Y3325D01*
X16999Y3375D01*
X16999Y3637D01*
X16949Y3687D01*
X16847Y3687D01*
X16790Y3664D01*
X16790Y5361D01*
X16670Y5651D01*
X16448Y5874D01*
X16157Y5995D01*
X15843Y5995D01*
X15552Y5875D01*
X15330Y5653D01*
X15209Y5362D01*
X15209Y5048D01*
X15329Y4757D01*
X15551Y4534D01*
X15842Y4414D01*
X16156Y4414D01*
X16447Y4534D01*
X16669Y4756D01*
X16790Y5046D01*
X16790Y5361D01*
X16790Y3664D01*
X16773Y3657D01*
X16717Y3601D01*
X16686Y3527D01*
X16686Y3448D01*
X16686Y3425D01*
X16736Y3375D01*
X16999Y3375D01*
X16999Y3325D01*
X16736Y3325D01*
X16686Y3275D01*
X16686Y3251D01*
X16686Y3172D01*
X16717Y3098D01*
X16773Y3042D01*
X16847Y3012D01*
X16949Y3012D01*
X16999Y3062D01*
X16999Y2904D01*
X16996Y2904D01*
X16923Y2873D01*
X16866Y2817D01*
X16836Y2744D01*
X16836Y2664D01*
X16836Y1956D01*
X16866Y1882D01*
X16922Y1826D01*
X16996Y1795D01*
X17075Y1795D01*
X17705Y1795D01*
X17779Y1826D01*
X17835Y1882D01*
X17866Y1955D01*
X17866Y2035D01*
X17866Y2270D01*
X18325Y2270D01*
X18260Y2114D01*
X18260Y1917D01*
X18273Y1886D01*
X17986Y1600D01*
X17883Y1600D01*
X17883Y1600D01*
X17826Y1657D01*
X17753Y1687D01*
X17673Y1687D01*
X17398Y1687D01*
X17324Y1657D01*
X17300Y1632D01*
X17275Y1657D01*
X17202Y1687D01*
X17122Y1687D01*
X16847Y1687D01*
X16773Y1657D01*
X16759Y1643D01*
X16606Y1796D01*
X16676Y1826D01*
X16733Y1882D01*
X16763Y1955D01*
X16763Y2035D01*
X16763Y2743D01*
X16733Y2817D01*
X16677Y2873D01*
X16603Y2904D01*
X16524Y2904D01*
X15894Y2904D01*
X15820Y2873D01*
X15764Y2817D01*
X15750Y2783D01*
X15750Y3110D01*
X15749Y3110D01*
X15750Y3110D01*
X15746Y3129D01*
X15730Y3205D01*
X15730Y3205D01*
X15676Y3286D01*
X15676Y3286D01*
X14570Y4393D01*
X14570Y6106D01*
X15213Y6750D01*
X15766Y6750D01*
X15766Y6749D01*
X15823Y6692D01*
X15896Y6662D01*
X15976Y6662D01*
X16251Y6662D01*
X16325Y6692D01*
X16349Y6717D01*
X16374Y6692D01*
X16447Y6662D01*
X16527Y6662D01*
X16802Y6662D01*
X16876Y6692D01*
X16924Y6740D01*
X17054Y6740D01*
X17043Y6728D01*
X16990Y6599D01*
X16989Y6460D01*
X17043Y6332D01*
X17141Y6233D01*
X17270Y6180D01*
X17409Y6179D01*
X17525Y6228D01*
X17706Y6228D01*
X17721Y6221D01*
X17679Y6204D01*
X17671Y6197D01*
X17642Y6197D01*
X17592Y6147D01*
X17592Y6113D01*
X17600Y6094D01*
X17592Y6074D01*
X17592Y6066D01*
X17585Y6070D01*
X17490Y6090D01*
X17290Y6090D01*
X17194Y6070D01*
X17113Y6016D01*
X17023Y5926D01*
X16969Y5845D01*
X16968Y5840D01*
X16949Y5833D01*
X16892Y5776D01*
X16862Y5703D01*
X16862Y5623D01*
X16862Y5348D01*
X16892Y5274D01*
X16917Y5250D01*
X16892Y5225D01*
X16862Y5152D01*
X16862Y5072D01*
X16862Y4797D01*
X16892Y4723D01*
X16948Y4667D01*
X17022Y4636D01*
X17101Y4636D01*
X17377Y4636D01*
X17450Y4666D01*
X17507Y4723D01*
X17507Y4724D01*
X17730Y4724D01*
X17771Y4683D01*
X17900Y4630D01*
X18039Y4629D01*
X18168Y4683D01*
X18266Y4781D01*
X18319Y4910D01*
X18320Y5049D01*
X18266Y5178D01*
X18259Y5184D01*
X18383Y5184D01*
X18396Y5190D01*
X18593Y4993D01*
X18674Y4939D01*
X18770Y4920D01*
X20106Y4920D01*
X20270Y4756D01*
X20270Y4666D01*
X20222Y4646D01*
X20123Y4548D01*
X20070Y4419D01*
X20069Y4280D01*
X20123Y4152D01*
X20161Y4113D01*
X20148Y4113D01*
X20125Y4113D01*
X20075Y4063D01*
X20075Y3800D01*
X20337Y3800D01*
X20387Y3850D01*
X20387Y3952D01*
X20368Y4000D01*
X20431Y3999D01*
X20412Y3953D01*
X20412Y3873D01*
X20412Y3598D01*
X20442Y3524D01*
X20467Y3500D01*
X20467Y3500D01*
G37*
G54D38*
X20467Y3500D02*
X20442Y3475D01*
X20412Y3402D01*
X20412Y3322D01*
X20412Y3047D01*
X20423Y3019D01*
X20420Y3020D01*
X20376Y3020D01*
X20387Y3046D01*
X20387Y3126D01*
X20387Y3401D01*
X20357Y3475D01*
X20332Y3500D01*
X20357Y3524D01*
X20387Y3598D01*
X20387Y3700D01*
X20337Y3750D01*
X20075Y3750D01*
X20075Y3742D01*
X20025Y3742D01*
X20025Y3750D01*
X20025Y3800D01*
X20025Y4063D01*
X19975Y4113D01*
X19951Y4113D01*
X19872Y4113D01*
X19798Y4082D01*
X19742Y4026D01*
X19712Y3952D01*
X19712Y3850D01*
X19762Y3800D01*
X20025Y3800D01*
X20025Y3750D01*
X19762Y3750D01*
X19712Y3700D01*
X19712Y3598D01*
X19742Y3524D01*
X19767Y3500D01*
X19742Y3475D01*
X19712Y3402D01*
X19712Y3322D01*
X19712Y3047D01*
X19742Y2973D01*
X19798Y2917D01*
X19800Y2916D01*
X19800Y2900D01*
X19819Y2804D01*
X19841Y2770D01*
X19252Y2770D01*
X19252Y3890D01*
X19250Y4087D01*
X19178Y4260D01*
X19094Y4287D01*
X19059Y4252D01*
X19059Y4323D01*
X19032Y4406D01*
X18849Y4480D01*
X18652Y4478D01*
X18479Y4406D01*
X18452Y4323D01*
X18755Y4019D01*
X19059Y4323D01*
X19059Y4252D01*
X18791Y3984D01*
X19094Y3680D01*
X19178Y3708D01*
X19252Y3890D01*
X19252Y2770D01*
X19059Y2770D01*
X19059Y3645D01*
X18755Y3948D01*
X18720Y3913D01*
X18720Y3984D01*
X18416Y4287D01*
X18333Y4260D01*
X18259Y4077D01*
X18261Y3880D01*
X18333Y3708D01*
X18416Y3680D01*
X18720Y3984D01*
X18720Y3913D01*
X18452Y3645D01*
X18479Y3561D01*
X18662Y3487D01*
X18859Y3490D01*
X19032Y3561D01*
X19059Y3645D01*
X19059Y2770D01*
X18743Y2770D01*
X17986Y3526D01*
X17905Y3580D01*
X17889Y3584D01*
X17883Y3600D01*
X17826Y3657D01*
X17753Y3687D01*
X17673Y3687D01*
X17398Y3687D01*
X17324Y3657D01*
X17300Y3632D01*
X17275Y3657D01*
X17201Y3687D01*
X17099Y3687D01*
X17049Y3637D01*
X17049Y3375D01*
X17057Y3375D01*
X17057Y3325D01*
X17049Y3325D01*
X17049Y3062D01*
X17099Y3012D01*
X17201Y3012D01*
X17275Y3042D01*
X17299Y3067D01*
X17324Y3042D01*
X17397Y3012D01*
X17477Y3012D01*
X17752Y3012D01*
X17782Y3024D01*
X18036Y2770D01*
X17855Y2770D01*
X17835Y2817D01*
X17779Y2873D01*
X17706Y2904D01*
X17626Y2904D01*
X16999Y2904D01*
X16999Y3062D01*
X16999Y3325D01*
X16999Y3375D01*
X16999Y3637D01*
X16949Y3687D01*
X16847Y3687D01*
X16790Y3664D01*
X16790Y5361D01*
X16670Y5651D01*
X16448Y5874D01*
X16157Y5995D01*
X15843Y5995D01*
X15552Y5875D01*
X15330Y5653D01*
X15209Y5362D01*
X15209Y5048D01*
X15329Y4757D01*
X15551Y4534D01*
X15842Y4414D01*
X16156Y4414D01*
X16447Y4534D01*
X16669Y4756D01*
X16790Y5046D01*
X16790Y5361D01*
X16790Y3664D01*
X16773Y3657D01*
X16717Y3601D01*
X16686Y3527D01*
X16686Y3448D01*
X16686Y3425D01*
X16736Y3375D01*
X16999Y3375D01*
X16999Y3325D01*
X16736Y3325D01*
X16686Y3275D01*
X16686Y3251D01*
X16686Y3172D01*
X16717Y3098D01*
X16773Y3042D01*
X16847Y3012D01*
X16949Y3012D01*
X16999Y3062D01*
X16999Y2904D01*
X16996Y2904D01*
X16923Y2873D01*
X16866Y2817D01*
X16836Y2744D01*
X16836Y2664D01*
X16836Y1956D01*
X16866Y1882D01*
X16922Y1826D01*
X16996Y1795D01*
X17075Y1795D01*
X17705Y1795D01*
X17779Y1826D01*
X17835Y1882D01*
X17866Y1955D01*
X17866Y2035D01*
X17866Y2270D01*
X18325Y2270D01*
X18260Y2114D01*
X18260Y1917D01*
X18273Y1886D01*
X17986Y1600D01*
X17883Y1600D01*
X17883Y1600D01*
X17826Y1657D01*
X17753Y1687D01*
X17673Y1687D01*
X17398Y1687D01*
X17324Y1657D01*
X17300Y1632D01*
X17275Y1657D01*
X17202Y1687D01*
X17122Y1687D01*
X16847Y1687D01*
X16773Y1657D01*
X16759Y1643D01*
X16606Y1796D01*
X16676Y1826D01*
X16733Y1882D01*
X16763Y1955D01*
X16763Y2035D01*
X16763Y2743D01*
X16733Y2817D01*
X16677Y2873D01*
X16603Y2904D01*
X16524Y2904D01*
X15894Y2904D01*
X15820Y2873D01*
X15764Y2817D01*
X15750Y2783D01*
X15750Y3110D01*
X15749Y3110D01*
X15750Y3110D01*
X15746Y3129D01*
X15730Y3205D01*
X15730Y3205D01*
X15676Y3286D01*
X15676Y3286D01*
X14570Y4393D01*
X14570Y6106D01*
X15213Y6750D01*
X15766Y6750D01*
X15766Y6749D01*
X15823Y6692D01*
X15896Y6662D01*
X15976Y6662D01*
X16251Y6662D01*
X16325Y6692D01*
X16349Y6717D01*
X16374Y6692D01*
X16447Y6662D01*
X16527Y6662D01*
X16802Y6662D01*
X16876Y6692D01*
X16924Y6740D01*
X17054Y6740D01*
X17043Y6728D01*
X16990Y6599D01*
X16989Y6460D01*
X17043Y6332D01*
X17141Y6233D01*
X17270Y6180D01*
X17409Y6179D01*
X17525Y6228D01*
X17706Y6228D01*
X17721Y6221D01*
X17679Y6204D01*
X17671Y6197D01*
X17642Y6197D01*
X17592Y6147D01*
X17592Y6113D01*
X17600Y6094D01*
X17592Y6074D01*
X17592Y6066D01*
X17585Y6070D01*
X17490Y6090D01*
X17290Y6090D01*
X17194Y6070D01*
X17113Y6016D01*
X17023Y5926D01*
X16969Y5845D01*
X16968Y5840D01*
X16949Y5833D01*
X16892Y5776D01*
X16862Y5703D01*
X16862Y5623D01*
X16862Y5348D01*
X16892Y5274D01*
X16917Y5250D01*
X16892Y5225D01*
X16862Y5152D01*
X16862Y5072D01*
X16862Y4797D01*
X16892Y4723D01*
X16948Y4667D01*
X17022Y4636D01*
X17101Y4636D01*
X17377Y4636D01*
X17450Y4666D01*
X17507Y4723D01*
X17507Y4724D01*
X17730Y4724D01*
X17771Y4683D01*
X17900Y4630D01*
X18039Y4629D01*
X18168Y4683D01*
X18266Y4781D01*
X18319Y4910D01*
X18320Y5049D01*
X18266Y5178D01*
X18259Y5184D01*
X18383Y5184D01*
X18396Y5190D01*
X18593Y4993D01*
X18674Y4939D01*
X18770Y4920D01*
X20106Y4920D01*
X20270Y4756D01*
X20270Y4666D01*
X20222Y4646D01*
X20123Y4548D01*
X20070Y4419D01*
X20069Y4280D01*
X20123Y4152D01*
X20161Y4113D01*
X20148Y4113D01*
X20125Y4113D01*
X20075Y4063D01*
X20075Y3800D01*
X20337Y3800D01*
X20387Y3850D01*
X20387Y3952D01*
X20368Y4000D01*
X20431Y3999D01*
X20412Y3953D01*
X20412Y3873D01*
X20412Y3598D01*
X20442Y3524D01*
X20467Y3500D01*
G54D10*
G36*
X21536Y11450D02*
X20013Y11450D01*
X20013Y11951D01*
X20013Y12148D01*
X20013Y12227D01*
X19982Y12301D01*
X19926Y12357D01*
X19884Y12375D01*
X19926Y12392D01*
X19982Y12448D01*
X20013Y12522D01*
X20013Y12601D01*
X20013Y12798D01*
X20013Y12877D01*
X19982Y12951D01*
X19926Y13007D01*
X19852Y13037D01*
X19750Y13037D01*
X19700Y12987D01*
X19700Y12725D01*
X19963Y12725D01*
X20013Y12775D01*
X20013Y12798D01*
X20013Y12601D01*
X20013Y12625D01*
X19963Y12675D01*
X19700Y12675D01*
X19700Y12412D01*
X19737Y12375D01*
X19700Y12337D01*
X19700Y12075D01*
X19963Y12075D01*
X20013Y12125D01*
X20013Y12148D01*
X20013Y11951D01*
X20013Y11975D01*
X19963Y12025D01*
X19700Y12025D01*
X19700Y11762D01*
X19750Y11712D01*
X19852Y11712D01*
X19926Y11742D01*
X19982Y11798D01*
X20013Y11872D01*
X20013Y11951D01*
X20013Y11450D01*
X19794Y11450D01*
X19748Y11496D01*
X19723Y11506D01*
X19723Y11506D01*
X19676Y11576D01*
X19676Y11576D01*
X19541Y11712D01*
X19600Y11712D01*
X19650Y11762D01*
X19650Y12025D01*
X19642Y12025D01*
X19642Y12075D01*
X19650Y12075D01*
X19650Y12337D01*
X19613Y12375D01*
X19650Y12412D01*
X19650Y12675D01*
X19642Y12675D01*
X19642Y12725D01*
X19650Y12725D01*
X19650Y12987D01*
X19600Y13037D01*
X19498Y13037D01*
X19424Y13007D01*
X19400Y12982D01*
X19375Y13007D01*
X19302Y13037D01*
X19222Y13037D01*
X18947Y13037D01*
X18873Y13007D01*
X18817Y12951D01*
X18813Y12942D01*
X18754Y12930D01*
X18749Y12927D01*
X18749Y12948D01*
X18818Y12995D01*
X18873Y13050D01*
X19800Y13050D01*
X19936Y13050D01*
X21536Y11450D01*
X21536Y11450D01*
G37*
G54D38*
X21536Y11450D02*
X20013Y11450D01*
X20013Y11951D01*
X20013Y12148D01*
X20013Y12227D01*
X19982Y12301D01*
X19926Y12357D01*
X19884Y12375D01*
X19926Y12392D01*
X19982Y12448D01*
X20013Y12522D01*
X20013Y12601D01*
X20013Y12798D01*
X20013Y12877D01*
X19982Y12951D01*
X19926Y13007D01*
X19852Y13037D01*
X19750Y13037D01*
X19700Y12987D01*
X19700Y12725D01*
X19963Y12725D01*
X20013Y12775D01*
X20013Y12798D01*
X20013Y12601D01*
X20013Y12625D01*
X19963Y12675D01*
X19700Y12675D01*
X19700Y12412D01*
X19737Y12375D01*
X19700Y12337D01*
X19700Y12075D01*
X19963Y12075D01*
X20013Y12125D01*
X20013Y12148D01*
X20013Y11951D01*
X20013Y11975D01*
X19963Y12025D01*
X19700Y12025D01*
X19700Y11762D01*
X19750Y11712D01*
X19852Y11712D01*
X19926Y11742D01*
X19982Y11798D01*
X20013Y11872D01*
X20013Y11951D01*
X20013Y11450D01*
X19794Y11450D01*
X19748Y11496D01*
X19723Y11506D01*
X19723Y11506D01*
X19676Y11576D01*
X19676Y11576D01*
X19541Y11712D01*
X19600Y11712D01*
X19650Y11762D01*
X19650Y12025D01*
X19642Y12025D01*
X19642Y12075D01*
X19650Y12075D01*
X19650Y12337D01*
X19613Y12375D01*
X19650Y12412D01*
X19650Y12675D01*
X19642Y12675D01*
X19642Y12725D01*
X19650Y12725D01*
X19650Y12987D01*
X19600Y13037D01*
X19498Y13037D01*
X19424Y13007D01*
X19400Y12982D01*
X19375Y13007D01*
X19302Y13037D01*
X19222Y13037D01*
X18947Y13037D01*
X18873Y13007D01*
X18817Y12951D01*
X18813Y12942D01*
X18754Y12930D01*
X18749Y12927D01*
X18749Y12948D01*
X18818Y12995D01*
X18873Y13050D01*
X19800Y13050D01*
X19936Y13050D01*
X21536Y11450D01*
G54D10*
G36*
X23452Y1603D02*
X23406Y1584D01*
X23250Y1428D01*
X23166Y1224D01*
X23166Y1100D01*
X23142Y1123D01*
X23069Y1154D01*
X22989Y1154D01*
X22084Y1154D01*
X22015Y1125D01*
X21947Y1154D01*
X21890Y1154D01*
X21890Y1387D01*
X21890Y2017D01*
X21860Y2091D01*
X21803Y2147D01*
X21730Y2177D01*
X21650Y2177D01*
X21686Y2177D01*
X21636Y2127D01*
X21636Y1727D01*
X21840Y1727D01*
X21890Y1777D01*
X21890Y2017D01*
X21890Y1387D01*
X21890Y1627D01*
X21840Y1677D01*
X21636Y1677D01*
X21636Y1276D01*
X21686Y1226D01*
X21650Y1226D01*
X21730Y1226D01*
X21803Y1257D01*
X21860Y1313D01*
X21890Y1387D01*
X21890Y1154D01*
X21867Y1154D01*
X21158Y1154D01*
X21099Y1130D01*
X21041Y1154D01*
X20961Y1154D01*
X20253Y1154D01*
X20184Y1125D01*
X20116Y1154D01*
X20036Y1154D01*
X19131Y1154D01*
X19057Y1123D01*
X19001Y1067D01*
X18970Y994D01*
X18970Y914D01*
X18970Y225D01*
X16547Y225D01*
X16669Y346D01*
X16790Y637D01*
X16790Y951D01*
X16738Y1077D01*
X16773Y1042D01*
X16846Y1012D01*
X16926Y1012D01*
X17201Y1012D01*
X17275Y1042D01*
X17299Y1067D01*
X17324Y1042D01*
X17397Y1012D01*
X17477Y1012D01*
X17752Y1012D01*
X17826Y1042D01*
X17882Y1098D01*
X17883Y1100D01*
X18090Y1100D01*
X18185Y1119D01*
X18266Y1173D01*
X18626Y1533D01*
X18656Y1520D01*
X18853Y1520D01*
X19036Y1595D01*
X19175Y1734D01*
X19251Y1916D01*
X19251Y2113D01*
X19186Y2270D01*
X20196Y2270D01*
X20338Y2128D01*
X20338Y2087D01*
X20309Y2017D01*
X20309Y1938D01*
X20309Y1387D01*
X20339Y1313D01*
X20396Y1257D01*
X20469Y1226D01*
X20549Y1226D01*
X20706Y1226D01*
X20716Y1230D01*
X20725Y1226D01*
X20804Y1226D01*
X20962Y1226D01*
X20971Y1230D01*
X20981Y1226D01*
X21060Y1226D01*
X21218Y1226D01*
X21227Y1230D01*
X21237Y1226D01*
X21316Y1226D01*
X21474Y1226D01*
X21483Y1230D01*
X21493Y1226D01*
X21572Y1226D01*
X21536Y1226D01*
X21586Y1276D01*
X21586Y1296D01*
X21604Y1313D01*
X21634Y1386D01*
X21634Y1466D01*
X21634Y2017D01*
X21604Y2091D01*
X21586Y2108D01*
X21586Y2127D01*
X21539Y2175D01*
X21541Y2177D01*
X21572Y2177D01*
X21541Y2177D01*
X21626Y2263D01*
X21626Y2263D01*
X21626Y2263D01*
X21853Y2490D01*
X22010Y2490D01*
X22105Y2509D01*
X22186Y2563D01*
X22326Y2703D01*
X22380Y2784D01*
X22380Y2784D01*
X22400Y2880D01*
X22400Y2916D01*
X22400Y2916D01*
X22457Y2973D01*
X22487Y3046D01*
X22487Y3126D01*
X22487Y3401D01*
X22457Y3475D01*
X22432Y3500D01*
X22457Y3524D01*
X22487Y3598D01*
X22487Y3952D01*
X22457Y4026D01*
X22401Y4082D01*
X22327Y4113D01*
X22248Y4113D01*
X22225Y4113D01*
X22175Y4063D01*
X22175Y3800D01*
X22437Y3800D01*
X22487Y3850D01*
X22487Y3952D01*
X22487Y3598D01*
X22487Y3700D01*
X22437Y3750D01*
X22175Y3750D01*
X22175Y3742D01*
X22163Y3742D01*
X22163Y5451D01*
X22163Y5648D01*
X22163Y5727D01*
X22132Y5801D01*
X22076Y5857D01*
X22034Y5875D01*
X22076Y5892D01*
X22132Y5948D01*
X22163Y6022D01*
X22163Y6101D01*
X22163Y6298D01*
X22163Y6377D01*
X22132Y6451D01*
X22076Y6507D01*
X22002Y6537D01*
X21900Y6537D01*
X21850Y6487D01*
X21850Y6225D01*
X22113Y6225D01*
X22163Y6275D01*
X22163Y6298D01*
X22163Y6101D01*
X22163Y6125D01*
X22113Y6175D01*
X21850Y6175D01*
X21850Y5912D01*
X21887Y5875D01*
X21850Y5837D01*
X21850Y5575D01*
X22113Y5575D01*
X22163Y5625D01*
X22163Y5648D01*
X22163Y5451D01*
X22163Y5475D01*
X22113Y5525D01*
X21850Y5525D01*
X21850Y5262D01*
X21900Y5212D01*
X22002Y5212D01*
X22076Y5242D01*
X22132Y5298D01*
X22163Y5372D01*
X22163Y5451D01*
X22163Y3742D01*
X22125Y3742D01*
X22125Y3750D01*
X22125Y3800D01*
X22125Y4063D01*
X22075Y4113D01*
X22051Y4113D01*
X21972Y4113D01*
X21898Y4082D01*
X21842Y4026D01*
X21812Y3952D01*
X21812Y3850D01*
X21862Y3800D01*
X22125Y3800D01*
X22125Y3750D01*
X21862Y3750D01*
X21812Y3700D01*
X21812Y3598D01*
X21842Y3524D01*
X21867Y3500D01*
X21842Y3475D01*
X21812Y3402D01*
X21812Y3322D01*
X21812Y3047D01*
X21835Y2990D01*
X21764Y2990D01*
X21787Y3046D01*
X21787Y3126D01*
X21787Y3401D01*
X21757Y3475D01*
X21732Y3499D01*
X21757Y3524D01*
X21787Y3597D01*
X21787Y3677D01*
X21787Y3952D01*
X21757Y4026D01*
X21701Y4082D01*
X21648Y4104D01*
X21648Y4104D01*
X21626Y4136D01*
X21626Y4136D01*
X21430Y4333D01*
X21430Y4399D01*
X21376Y4528D01*
X21278Y4626D01*
X21149Y4679D01*
X21010Y4680D01*
X21000Y4675D01*
X21000Y4896D01*
X21026Y4923D01*
X21080Y5004D01*
X21100Y5100D01*
X21100Y5212D01*
X21176Y5212D01*
X21451Y5212D01*
X21525Y5242D01*
X21550Y5267D01*
X21574Y5242D01*
X21648Y5212D01*
X21750Y5212D01*
X21800Y5262D01*
X21800Y5525D01*
X21792Y5525D01*
X21792Y5575D01*
X21800Y5575D01*
X21800Y5837D01*
X21763Y5875D01*
X21800Y5912D01*
X21800Y6175D01*
X21792Y6175D01*
X21792Y6225D01*
X21800Y6225D01*
X21800Y6487D01*
X21750Y6537D01*
X21648Y6537D01*
X21574Y6507D01*
X21550Y6482D01*
X21525Y6507D01*
X21452Y6537D01*
X21372Y6537D01*
X21097Y6537D01*
X21023Y6507D01*
X20987Y6472D01*
X20693Y6472D01*
X20678Y6478D01*
X20693Y6484D01*
X20734Y6484D01*
X20829Y6503D01*
X20910Y6557D01*
X21115Y6762D01*
X21176Y6762D01*
X21451Y6762D01*
X21525Y6792D01*
X21549Y6817D01*
X21574Y6792D01*
X21647Y6762D01*
X21727Y6762D01*
X22002Y6762D01*
X22076Y6792D01*
X22132Y6848D01*
X22133Y6850D01*
X22230Y6850D01*
X22230Y5620D01*
X22249Y5524D01*
X22303Y5443D01*
X22620Y5126D01*
X22620Y4520D01*
X22620Y3730D01*
X22639Y3634D01*
X22693Y3553D01*
X22923Y3323D01*
X22923Y3323D01*
X23004Y3269D01*
X23004Y3269D01*
X23100Y3250D01*
X23320Y3250D01*
X23338Y3232D01*
X23248Y3197D01*
X23165Y2993D01*
X23166Y2772D01*
X23205Y2679D01*
X23128Y2756D01*
X22999Y2809D01*
X22860Y2810D01*
X22732Y2756D01*
X22633Y2658D01*
X22580Y2529D01*
X22579Y2390D01*
X22633Y2262D01*
X22731Y2163D01*
X22860Y2110D01*
X22926Y2110D01*
X23393Y1643D01*
X23393Y1643D01*
X23452Y1603D01*
X23452Y1603D01*
G37*
G54D38*
X23452Y1603D02*
X23406Y1584D01*
X23250Y1428D01*
X23166Y1224D01*
X23166Y1100D01*
X23142Y1123D01*
X23069Y1154D01*
X22989Y1154D01*
X22084Y1154D01*
X22015Y1125D01*
X21947Y1154D01*
X21890Y1154D01*
X21890Y1387D01*
X21890Y2017D01*
X21860Y2091D01*
X21803Y2147D01*
X21730Y2177D01*
X21650Y2177D01*
X21686Y2177D01*
X21636Y2127D01*
X21636Y1727D01*
X21840Y1727D01*
X21890Y1777D01*
X21890Y2017D01*
X21890Y1387D01*
X21890Y1627D01*
X21840Y1677D01*
X21636Y1677D01*
X21636Y1276D01*
X21686Y1226D01*
X21650Y1226D01*
X21730Y1226D01*
X21803Y1257D01*
X21860Y1313D01*
X21890Y1387D01*
X21890Y1154D01*
X21867Y1154D01*
X21158Y1154D01*
X21099Y1130D01*
X21041Y1154D01*
X20961Y1154D01*
X20253Y1154D01*
X20184Y1125D01*
X20116Y1154D01*
X20036Y1154D01*
X19131Y1154D01*
X19057Y1123D01*
X19001Y1067D01*
X18970Y994D01*
X18970Y914D01*
X18970Y225D01*
X16547Y225D01*
X16669Y346D01*
X16790Y637D01*
X16790Y951D01*
X16738Y1077D01*
X16773Y1042D01*
X16846Y1012D01*
X16926Y1012D01*
X17201Y1012D01*
X17275Y1042D01*
X17299Y1067D01*
X17324Y1042D01*
X17397Y1012D01*
X17477Y1012D01*
X17752Y1012D01*
X17826Y1042D01*
X17882Y1098D01*
X17883Y1100D01*
X18090Y1100D01*
X18185Y1119D01*
X18266Y1173D01*
X18626Y1533D01*
X18656Y1520D01*
X18853Y1520D01*
X19036Y1595D01*
X19175Y1734D01*
X19251Y1916D01*
X19251Y2113D01*
X19186Y2270D01*
X20196Y2270D01*
X20338Y2128D01*
X20338Y2087D01*
X20309Y2017D01*
X20309Y1938D01*
X20309Y1387D01*
X20339Y1313D01*
X20396Y1257D01*
X20469Y1226D01*
X20549Y1226D01*
X20706Y1226D01*
X20716Y1230D01*
X20725Y1226D01*
X20804Y1226D01*
X20962Y1226D01*
X20971Y1230D01*
X20981Y1226D01*
X21060Y1226D01*
X21218Y1226D01*
X21227Y1230D01*
X21237Y1226D01*
X21316Y1226D01*
X21474Y1226D01*
X21483Y1230D01*
X21493Y1226D01*
X21572Y1226D01*
X21536Y1226D01*
X21586Y1276D01*
X21586Y1296D01*
X21604Y1313D01*
X21634Y1386D01*
X21634Y1466D01*
X21634Y2017D01*
X21604Y2091D01*
X21586Y2108D01*
X21586Y2127D01*
X21539Y2175D01*
X21541Y2177D01*
X21572Y2177D01*
X21541Y2177D01*
X21626Y2263D01*
X21626Y2263D01*
X21626Y2263D01*
X21853Y2490D01*
X22010Y2490D01*
X22105Y2509D01*
X22186Y2563D01*
X22326Y2703D01*
X22380Y2784D01*
X22380Y2784D01*
X22400Y2880D01*
X22400Y2916D01*
X22400Y2916D01*
X22457Y2973D01*
X22487Y3046D01*
X22487Y3126D01*
X22487Y3401D01*
X22457Y3475D01*
X22432Y3500D01*
X22457Y3524D01*
X22487Y3598D01*
X22487Y3952D01*
X22457Y4026D01*
X22401Y4082D01*
X22327Y4113D01*
X22248Y4113D01*
X22225Y4113D01*
X22175Y4063D01*
X22175Y3800D01*
X22437Y3800D01*
X22487Y3850D01*
X22487Y3952D01*
X22487Y3598D01*
X22487Y3700D01*
X22437Y3750D01*
X22175Y3750D01*
X22175Y3742D01*
X22163Y3742D01*
X22163Y5451D01*
X22163Y5648D01*
X22163Y5727D01*
X22132Y5801D01*
X22076Y5857D01*
X22034Y5875D01*
X22076Y5892D01*
X22132Y5948D01*
X22163Y6022D01*
X22163Y6101D01*
X22163Y6298D01*
X22163Y6377D01*
X22132Y6451D01*
X22076Y6507D01*
X22002Y6537D01*
X21900Y6537D01*
X21850Y6487D01*
X21850Y6225D01*
X22113Y6225D01*
X22163Y6275D01*
X22163Y6298D01*
X22163Y6101D01*
X22163Y6125D01*
X22113Y6175D01*
X21850Y6175D01*
X21850Y5912D01*
X21887Y5875D01*
X21850Y5837D01*
X21850Y5575D01*
X22113Y5575D01*
X22163Y5625D01*
X22163Y5648D01*
X22163Y5451D01*
X22163Y5475D01*
X22113Y5525D01*
X21850Y5525D01*
X21850Y5262D01*
X21900Y5212D01*
X22002Y5212D01*
X22076Y5242D01*
X22132Y5298D01*
X22163Y5372D01*
X22163Y5451D01*
X22163Y3742D01*
X22125Y3742D01*
X22125Y3750D01*
X22125Y3800D01*
X22125Y4063D01*
X22075Y4113D01*
X22051Y4113D01*
X21972Y4113D01*
X21898Y4082D01*
X21842Y4026D01*
X21812Y3952D01*
X21812Y3850D01*
X21862Y3800D01*
X22125Y3800D01*
X22125Y3750D01*
X21862Y3750D01*
X21812Y3700D01*
X21812Y3598D01*
X21842Y3524D01*
X21867Y3500D01*
X21842Y3475D01*
X21812Y3402D01*
X21812Y3322D01*
X21812Y3047D01*
X21835Y2990D01*
X21764Y2990D01*
X21787Y3046D01*
X21787Y3126D01*
X21787Y3401D01*
X21757Y3475D01*
X21732Y3499D01*
X21757Y3524D01*
X21787Y3597D01*
X21787Y3677D01*
X21787Y3952D01*
X21757Y4026D01*
X21701Y4082D01*
X21648Y4104D01*
X21648Y4104D01*
X21626Y4136D01*
X21626Y4136D01*
X21430Y4333D01*
X21430Y4399D01*
X21376Y4528D01*
X21278Y4626D01*
X21149Y4679D01*
X21010Y4680D01*
X21000Y4675D01*
X21000Y4896D01*
X21026Y4923D01*
X21080Y5004D01*
X21100Y5100D01*
X21100Y5212D01*
X21176Y5212D01*
X21451Y5212D01*
X21525Y5242D01*
X21550Y5267D01*
X21574Y5242D01*
X21648Y5212D01*
X21750Y5212D01*
X21800Y5262D01*
X21800Y5525D01*
X21792Y5525D01*
X21792Y5575D01*
X21800Y5575D01*
X21800Y5837D01*
X21763Y5875D01*
X21800Y5912D01*
X21800Y6175D01*
X21792Y6175D01*
X21792Y6225D01*
X21800Y6225D01*
X21800Y6487D01*
X21750Y6537D01*
X21648Y6537D01*
X21574Y6507D01*
X21550Y6482D01*
X21525Y6507D01*
X21452Y6537D01*
X21372Y6537D01*
X21097Y6537D01*
X21023Y6507D01*
X20987Y6472D01*
X20693Y6472D01*
X20678Y6478D01*
X20693Y6484D01*
X20734Y6484D01*
X20829Y6503D01*
X20910Y6557D01*
X21115Y6762D01*
X21176Y6762D01*
X21451Y6762D01*
X21525Y6792D01*
X21549Y6817D01*
X21574Y6792D01*
X21647Y6762D01*
X21727Y6762D01*
X22002Y6762D01*
X22076Y6792D01*
X22132Y6848D01*
X22133Y6850D01*
X22230Y6850D01*
X22230Y5620D01*
X22249Y5524D01*
X22303Y5443D01*
X22620Y5126D01*
X22620Y4520D01*
X22620Y3730D01*
X22639Y3634D01*
X22693Y3553D01*
X22923Y3323D01*
X22923Y3323D01*
X23004Y3269D01*
X23004Y3269D01*
X23100Y3250D01*
X23320Y3250D01*
X23338Y3232D01*
X23248Y3197D01*
X23165Y2993D01*
X23166Y2772D01*
X23205Y2679D01*
X23128Y2756D01*
X22999Y2809D01*
X22860Y2810D01*
X22732Y2756D01*
X22633Y2658D01*
X22580Y2529D01*
X22579Y2390D01*
X22633Y2262D01*
X22731Y2163D01*
X22860Y2110D01*
X22926Y2110D01*
X23393Y1643D01*
X23393Y1643D01*
X23452Y1603D01*
G54D10*
G36*
X24090Y2060D02*
X24066Y2064D01*
X24040Y2070D01*
X23673Y2070D01*
X23280Y2463D01*
X23280Y2529D01*
X23263Y2568D01*
X23338Y2539D01*
X23685Y2885D01*
X23679Y2891D01*
X23714Y2926D01*
X23720Y2921D01*
X23726Y2926D01*
X23761Y2891D01*
X23755Y2885D01*
X23761Y2880D01*
X23726Y2844D01*
X23720Y2850D01*
X23374Y2504D01*
X23408Y2414D01*
X23612Y2330D01*
X23833Y2332D01*
X24032Y2414D01*
X24066Y2504D01*
X24066Y2504D01*
X24090Y2480D01*
X24090Y2060D01*
X24090Y2060D01*
G37*
G54D38*
X24090Y2060D02*
X24066Y2064D01*
X24040Y2070D01*
X23673Y2070D01*
X23280Y2463D01*
X23280Y2529D01*
X23263Y2568D01*
X23338Y2539D01*
X23685Y2885D01*
X23679Y2891D01*
X23714Y2926D01*
X23720Y2921D01*
X23726Y2926D01*
X23761Y2891D01*
X23755Y2885D01*
X23761Y2880D01*
X23726Y2844D01*
X23720Y2850D01*
X23374Y2504D01*
X23408Y2414D01*
X23612Y2330D01*
X23833Y2332D01*
X24032Y2414D01*
X24066Y2504D01*
X24066Y2504D01*
X24090Y2480D01*
X24090Y2060D01*
G54D10*
G36*
X29775Y225D02*
X29750Y225D01*
X29750Y5500D01*
X29750Y5750D01*
X29731Y5840D01*
X29730Y5845D01*
X29730Y5845D01*
X29676Y5926D01*
X29676Y5926D01*
X29515Y6088D01*
X29515Y6101D01*
X29436Y6291D01*
X29292Y6436D01*
X29102Y6514D01*
X28898Y6515D01*
X28708Y6436D01*
X28563Y6292D01*
X28499Y6138D01*
X28436Y6291D01*
X28292Y6436D01*
X28102Y6514D01*
X27898Y6515D01*
X27737Y6448D01*
X27737Y7997D01*
X27737Y8099D01*
X27687Y8149D01*
X27425Y8149D01*
X27425Y7886D01*
X27475Y7836D01*
X27498Y7836D01*
X27577Y7836D01*
X27651Y7867D01*
X27707Y7923D01*
X27737Y7997D01*
X27737Y6448D01*
X27708Y6436D01*
X27563Y6292D01*
X27485Y6102D01*
X27484Y5898D01*
X27563Y5708D01*
X27707Y5563D01*
X27897Y5485D01*
X27910Y5485D01*
X27886Y5427D01*
X27886Y5348D01*
X27886Y5325D01*
X27936Y5275D01*
X28199Y5275D01*
X28199Y5282D01*
X28249Y5282D01*
X28249Y5275D01*
X28257Y5275D01*
X28257Y5225D01*
X28249Y5225D01*
X28249Y4962D01*
X28286Y4925D01*
X28249Y4887D01*
X28249Y4625D01*
X28257Y4625D01*
X28257Y4575D01*
X28249Y4575D01*
X28249Y4567D01*
X28199Y4567D01*
X28199Y4575D01*
X28199Y4625D01*
X28199Y4887D01*
X28162Y4925D01*
X28199Y4962D01*
X28199Y5225D01*
X27936Y5225D01*
X27886Y5175D01*
X27886Y5151D01*
X27886Y5072D01*
X27917Y4998D01*
X27973Y4942D01*
X28015Y4925D01*
X27973Y4907D01*
X27917Y4851D01*
X27886Y4777D01*
X27886Y4698D01*
X27886Y4675D01*
X27936Y4625D01*
X28199Y4625D01*
X28199Y4575D01*
X27936Y4575D01*
X27886Y4525D01*
X27886Y4501D01*
X27886Y4422D01*
X27910Y4365D01*
X27898Y4365D01*
X27708Y4286D01*
X27563Y4142D01*
X27485Y3952D01*
X27484Y3748D01*
X27563Y3558D01*
X27707Y3413D01*
X27897Y3335D01*
X28101Y3334D01*
X28291Y3413D01*
X28436Y3557D01*
X28500Y3711D01*
X28563Y3558D01*
X28707Y3413D01*
X28897Y3335D01*
X29101Y3334D01*
X29291Y3413D01*
X29436Y3557D01*
X29514Y3747D01*
X29515Y3951D01*
X29497Y3994D01*
X29576Y4073D01*
X29576Y4073D01*
X29576Y4073D01*
X29630Y4154D01*
X29630Y4154D01*
X29646Y4230D01*
X29650Y4249D01*
X29649Y4250D01*
X29650Y4250D01*
X29650Y4450D01*
X29630Y4545D01*
X29630Y4545D01*
X29576Y4626D01*
X29426Y4776D01*
X29345Y4830D01*
X29250Y4850D01*
X29083Y4850D01*
X29083Y4850D01*
X29026Y4907D01*
X28984Y4925D01*
X29026Y4942D01*
X29082Y4998D01*
X29083Y5000D01*
X29250Y5000D01*
X29345Y5019D01*
X29426Y5073D01*
X29676Y5323D01*
X29676Y5323D01*
X29676Y5323D01*
X29730Y5404D01*
X29730Y5404D01*
X29750Y5500D01*
X29750Y225D01*
X29408Y225D01*
X29408Y1679D01*
X29270Y2014D01*
X29015Y2269D01*
X28681Y2408D01*
X28320Y2408D01*
X27985Y2270D01*
X27730Y2015D01*
X27591Y1681D01*
X27591Y1320D01*
X27729Y985D01*
X27984Y730D01*
X28318Y591D01*
X28679Y591D01*
X29014Y729D01*
X29269Y984D01*
X29408Y1318D01*
X29408Y1679D01*
X29408Y225D01*
X27375Y225D01*
X27375Y7886D01*
X27375Y8149D01*
X27112Y8149D01*
X27062Y8099D01*
X27062Y8076D01*
X27013Y8125D01*
X26750Y8125D01*
X26750Y7862D01*
X26800Y7812D01*
X26902Y7812D01*
X26976Y7842D01*
X27032Y7898D01*
X27063Y7972D01*
X27063Y7994D01*
X27092Y7923D01*
X27148Y7867D01*
X27222Y7836D01*
X27301Y7836D01*
X27325Y7836D01*
X27375Y7886D01*
X27375Y225D01*
X26834Y225D01*
X26834Y2778D01*
X26834Y6028D01*
X26833Y6248D01*
X26751Y6447D01*
X26661Y6482D01*
X26625Y6446D01*
X26625Y6517D01*
X26591Y6607D01*
X26387Y6690D01*
X26166Y6689D01*
X25967Y6607D01*
X25933Y6517D01*
X26279Y6171D01*
X26625Y6517D01*
X26625Y6446D01*
X26314Y6135D01*
X26661Y5789D01*
X26751Y5824D01*
X26834Y6028D01*
X26834Y2778D01*
X26833Y2867D01*
X26833Y4473D01*
X26749Y4677D01*
X26625Y4802D01*
X26625Y5754D01*
X26279Y6100D01*
X26244Y6065D01*
X26244Y6135D01*
X25897Y6482D01*
X25808Y6447D01*
X25724Y6243D01*
X25725Y6022D01*
X25808Y5824D01*
X25897Y5789D01*
X26244Y6135D01*
X26244Y6065D01*
X25933Y5754D01*
X25967Y5664D01*
X26172Y5580D01*
X26392Y5582D01*
X26591Y5664D01*
X26625Y5754D01*
X26625Y4802D01*
X26593Y4833D01*
X26390Y4918D01*
X26169Y4918D01*
X25965Y4834D01*
X25809Y4678D01*
X25725Y4474D01*
X25725Y4254D01*
X25809Y4050D01*
X25965Y3894D01*
X26168Y3809D01*
X26389Y3809D01*
X26593Y3893D01*
X26749Y4049D01*
X26833Y4253D01*
X26833Y4473D01*
X26833Y2867D01*
X26833Y2998D01*
X26751Y3197D01*
X26661Y3232D01*
X26625Y3196D01*
X26625Y3267D01*
X26591Y3357D01*
X26387Y3440D01*
X26166Y3439D01*
X25967Y3357D01*
X25933Y3267D01*
X26279Y2921D01*
X26625Y3267D01*
X26625Y3196D01*
X26314Y2885D01*
X26661Y2539D01*
X26751Y2574D01*
X26834Y2778D01*
X26834Y225D01*
X23229Y225D01*
X23229Y245D01*
X23229Y851D01*
X23250Y800D01*
X23406Y644D01*
X23609Y559D01*
X23830Y559D01*
X24034Y643D01*
X24190Y799D01*
X24219Y869D01*
X24294Y819D01*
X24364Y805D01*
X24366Y799D01*
X24423Y742D01*
X24496Y712D01*
X24576Y712D01*
X24851Y712D01*
X24925Y742D01*
X24949Y767D01*
X24974Y742D01*
X25047Y712D01*
X25127Y712D01*
X25402Y712D01*
X25476Y742D01*
X25532Y798D01*
X25533Y800D01*
X25550Y800D01*
X25645Y819D01*
X25726Y873D01*
X25763Y910D01*
X25809Y800D01*
X25965Y644D01*
X26168Y559D01*
X26389Y559D01*
X26593Y643D01*
X26749Y799D01*
X26833Y1003D01*
X26833Y1223D01*
X26749Y1427D01*
X26593Y1583D01*
X26529Y1610D01*
X26529Y1860D01*
X26510Y1956D01*
X26456Y2037D01*
X26156Y2337D01*
X26172Y2330D01*
X26392Y2332D01*
X26591Y2414D01*
X26625Y2504D01*
X26279Y2850D01*
X26273Y2844D01*
X26238Y2880D01*
X26244Y2885D01*
X25897Y3232D01*
X25808Y3197D01*
X25724Y2993D01*
X25725Y2772D01*
X25729Y2764D01*
X25600Y2893D01*
X25600Y3616D01*
X25600Y3616D01*
X25657Y3673D01*
X25687Y3746D01*
X25687Y3826D01*
X25687Y4101D01*
X25657Y4175D01*
X25632Y4199D01*
X25657Y4224D01*
X25687Y4297D01*
X25687Y4377D01*
X25687Y4652D01*
X25657Y4726D01*
X25601Y4782D01*
X25600Y4783D01*
X25600Y4870D01*
X25599Y4870D01*
X25600Y4870D01*
X25596Y4889D01*
X25580Y4965D01*
X25580Y4965D01*
X25526Y5046D01*
X25526Y5046D01*
X25331Y5241D01*
X25250Y5295D01*
X25155Y5315D01*
X24405Y5315D01*
X24380Y5320D01*
X24275Y5320D01*
X24275Y6028D01*
X24274Y6248D01*
X24191Y6447D01*
X24102Y6482D01*
X23755Y6135D01*
X24102Y5789D01*
X24191Y5824D01*
X24275Y6028D01*
X24275Y5320D01*
X24066Y5320D01*
X24066Y5754D01*
X23720Y6100D01*
X23685Y6065D01*
X23685Y6135D01*
X23338Y6482D01*
X23248Y6447D01*
X23165Y6243D01*
X23166Y6022D01*
X23248Y5824D01*
X23338Y5789D01*
X23685Y6135D01*
X23685Y6065D01*
X23374Y5754D01*
X23408Y5664D01*
X23612Y5580D01*
X23833Y5582D01*
X24032Y5664D01*
X24066Y5754D01*
X24066Y5320D01*
X23433Y5320D01*
X23040Y5713D01*
X23040Y6920D01*
X23040Y7040D01*
X23020Y7135D01*
X22966Y7216D01*
X22556Y7626D01*
X22475Y7680D01*
X22380Y7700D01*
X21249Y7700D01*
X21249Y7862D01*
X21249Y8125D01*
X20986Y8125D01*
X20936Y8075D01*
X20936Y8051D01*
X20936Y7972D01*
X20967Y7898D01*
X21023Y7842D01*
X21097Y7812D01*
X21199Y7812D01*
X21249Y7862D01*
X21249Y7700D01*
X20913Y7700D01*
X20856Y7756D01*
X20346Y8266D01*
X20346Y8266D01*
X19800Y8813D01*
X19800Y10950D01*
X20875Y10950D01*
X20683Y10757D01*
X20571Y10489D01*
X20571Y10198D01*
X20589Y10153D01*
X20573Y10136D01*
X20519Y10055D01*
X20500Y9960D01*
X20500Y9000D01*
X20519Y8904D01*
X20573Y8823D01*
X20773Y8623D01*
X20773Y8623D01*
X20821Y8590D01*
X20854Y8569D01*
X20854Y8569D01*
X20950Y8550D01*
X20966Y8550D01*
X20966Y8549D01*
X21023Y8492D01*
X21065Y8474D01*
X21023Y8457D01*
X20967Y8401D01*
X20936Y8327D01*
X20936Y8248D01*
X20936Y8225D01*
X20986Y8175D01*
X21249Y8175D01*
X21249Y8182D01*
X21299Y8182D01*
X21299Y8175D01*
X21307Y8175D01*
X21307Y8125D01*
X21299Y8125D01*
X21299Y7862D01*
X21349Y7812D01*
X21451Y7812D01*
X21525Y7842D01*
X21549Y7867D01*
X21574Y7842D01*
X21647Y7812D01*
X21727Y7812D01*
X22002Y7812D01*
X22076Y7842D01*
X22132Y7898D01*
X22133Y7900D01*
X22346Y7900D01*
X22523Y7723D01*
X22523Y7723D01*
X22604Y7669D01*
X22604Y7669D01*
X22700Y7650D01*
X22996Y7650D01*
X23050Y7596D01*
X23050Y7150D01*
X23069Y7054D01*
X23123Y6973D01*
X23323Y6773D01*
X23323Y6773D01*
X23341Y6761D01*
X23341Y6761D01*
X23366Y6699D01*
X23423Y6642D01*
X23458Y6627D01*
X23408Y6607D01*
X23374Y6517D01*
X23720Y6171D01*
X24066Y6517D01*
X24032Y6607D01*
X23931Y6648D01*
X23949Y6667D01*
X23974Y6642D01*
X24047Y6612D01*
X24127Y6612D01*
X24402Y6612D01*
X24476Y6642D01*
X24532Y6698D01*
X24533Y6700D01*
X24550Y6700D01*
X24645Y6719D01*
X24726Y6773D01*
X24826Y6873D01*
X24880Y6954D01*
X24900Y7050D01*
X24900Y7496D01*
X25103Y7700D01*
X25400Y7700D01*
X25495Y7719D01*
X25576Y7773D01*
X25703Y7900D01*
X25840Y7900D01*
X25866Y7900D01*
X25866Y7899D01*
X25923Y7842D01*
X25996Y7812D01*
X26076Y7812D01*
X26351Y7812D01*
X26425Y7842D01*
X26450Y7867D01*
X26474Y7842D01*
X26548Y7812D01*
X26650Y7812D01*
X26700Y7862D01*
X26700Y8125D01*
X26692Y8125D01*
X26692Y8175D01*
X26700Y8175D01*
X26700Y8182D01*
X26750Y8182D01*
X26750Y8175D01*
X27013Y8175D01*
X27063Y8225D01*
X27063Y8248D01*
X27063Y8248D01*
X27112Y8199D01*
X27375Y8199D01*
X27375Y8207D01*
X27425Y8207D01*
X27425Y8199D01*
X27687Y8199D01*
X27737Y8249D01*
X27737Y8351D01*
X27707Y8425D01*
X27682Y8449D01*
X27707Y8474D01*
X27737Y8547D01*
X27737Y8627D01*
X27737Y8902D01*
X27707Y8976D01*
X27651Y9032D01*
X27650Y9033D01*
X27650Y9210D01*
X27649Y9210D01*
X27650Y9210D01*
X27646Y9229D01*
X27630Y9305D01*
X27630Y9305D01*
X27576Y9386D01*
X27576Y9386D01*
X27226Y9736D01*
X27175Y9787D01*
X27316Y9928D01*
X27428Y10196D01*
X27428Y10487D01*
X27317Y10756D01*
X27111Y10962D01*
X26843Y11074D01*
X26552Y11074D01*
X26283Y10963D01*
X26077Y10757D01*
X25965Y10489D01*
X25965Y10198D01*
X26076Y9929D01*
X26282Y9723D01*
X26550Y9611D01*
X26644Y9611D01*
X26800Y9456D01*
X26800Y9137D01*
X26548Y9137D01*
X26474Y9107D01*
X26450Y9082D01*
X26425Y9107D01*
X26352Y9137D01*
X26272Y9137D01*
X25997Y9137D01*
X25923Y9107D01*
X25867Y9051D01*
X25860Y9036D01*
X25834Y9030D01*
X25753Y8976D01*
X25613Y8836D01*
X25559Y8755D01*
X25540Y8660D01*
X25540Y8400D01*
X25269Y8400D01*
X25255Y8414D01*
X25236Y8422D01*
X25254Y8429D01*
X25272Y8447D01*
X25291Y8447D01*
X25341Y8497D01*
X25341Y8461D01*
X25341Y8540D01*
X25337Y8550D01*
X25341Y8559D01*
X25341Y8638D01*
X25341Y8602D01*
X25291Y8652D01*
X25272Y8652D01*
X25254Y8670D01*
X25236Y8677D01*
X25254Y8685D01*
X25272Y8702D01*
X25291Y8702D01*
X25341Y8752D01*
X25341Y8717D01*
X25341Y8796D01*
X25337Y8805D01*
X25341Y8815D01*
X25341Y8894D01*
X25341Y9052D01*
X25311Y9125D01*
X25255Y9182D01*
X25181Y9212D01*
X25102Y9212D01*
X24550Y9212D01*
X24477Y9182D01*
X24421Y9126D01*
X24390Y9052D01*
X24390Y8972D01*
X24390Y8815D01*
X24394Y8805D01*
X24390Y8796D01*
X24390Y8717D01*
X24390Y8752D01*
X24440Y8702D01*
X24459Y8702D01*
X24477Y8685D01*
X24495Y8677D01*
X24477Y8670D01*
X24459Y8652D01*
X24440Y8652D01*
X24390Y8602D01*
X24390Y8638D01*
X24390Y8559D01*
X24394Y8550D01*
X24390Y8540D01*
X24390Y8461D01*
X24390Y8497D01*
X24440Y8447D01*
X24459Y8447D01*
X24477Y8429D01*
X24495Y8422D01*
X24477Y8414D01*
X24459Y8397D01*
X24440Y8397D01*
X24390Y8347D01*
X24390Y8382D01*
X24390Y8303D01*
X24394Y8294D01*
X24390Y8284D01*
X24390Y8205D01*
X24390Y8047D01*
X24420Y7974D01*
X24477Y7917D01*
X24550Y7887D01*
X24583Y7887D01*
X24537Y7840D01*
X24532Y7851D01*
X24476Y7907D01*
X24402Y7937D01*
X24300Y7937D01*
X24250Y7887D01*
X24250Y7625D01*
X24258Y7625D01*
X24258Y7575D01*
X24250Y7575D01*
X24250Y7567D01*
X24200Y7567D01*
X24200Y7575D01*
X24192Y7575D01*
X24192Y7625D01*
X24200Y7625D01*
X24200Y7887D01*
X24150Y7937D01*
X24048Y7937D01*
X23974Y7907D01*
X23950Y7882D01*
X23925Y7907D01*
X23924Y7907D01*
X23924Y8275D01*
X23905Y8371D01*
X23905Y8371D01*
X23883Y8403D01*
X23851Y8452D01*
X23851Y8452D01*
X23704Y8598D01*
X23623Y8653D01*
X23609Y8655D01*
X23609Y8796D01*
X23605Y8805D01*
X23609Y8815D01*
X23609Y8894D01*
X23609Y9052D01*
X23579Y9125D01*
X23522Y9182D01*
X23449Y9212D01*
X23369Y9212D01*
X22895Y9212D01*
X22895Y9930D01*
X22895Y10695D01*
X22894Y10695D01*
X22895Y10695D01*
X22891Y10714D01*
X22875Y10790D01*
X22875Y10790D01*
X22821Y10871D01*
X22821Y10871D01*
X21640Y12052D01*
X21640Y15801D01*
X21529Y16070D01*
X21323Y16276D01*
X21055Y16388D01*
X20764Y16388D01*
X20495Y16277D01*
X20289Y16071D01*
X20252Y15982D01*
X20235Y15941D01*
X20201Y15941D01*
X20251Y15991D01*
X20252Y16165D01*
X20221Y16238D01*
X20165Y16295D01*
X20091Y16325D01*
X20012Y16325D01*
X19999Y16325D01*
X19949Y16275D01*
X19949Y15941D01*
X19956Y15941D01*
X19956Y15891D01*
X19949Y15891D01*
X19949Y15558D01*
X19999Y15508D01*
X20012Y15508D01*
X20091Y15508D01*
X20165Y15538D01*
X20177Y15550D01*
X20177Y15512D01*
X20288Y15243D01*
X20494Y15037D01*
X20762Y14925D01*
X21053Y14925D01*
X21322Y15036D01*
X21528Y15242D01*
X21640Y15510D01*
X21640Y15801D01*
X21640Y12052D01*
X20216Y13476D01*
X20135Y13530D01*
X20040Y13550D01*
X19800Y13550D01*
X19083Y13550D01*
X19323Y13790D01*
X20140Y13790D01*
X20235Y13809D01*
X20316Y13863D01*
X20386Y13933D01*
X20440Y14014D01*
X20460Y14110D01*
X20460Y14390D01*
X20440Y14485D01*
X20386Y14566D01*
X20326Y14626D01*
X20245Y14680D01*
X20150Y14700D01*
X20133Y14700D01*
X20133Y14700D01*
X20076Y14757D01*
X20034Y14775D01*
X20076Y14792D01*
X20132Y14848D01*
X20163Y14922D01*
X20163Y15001D01*
X20163Y15198D01*
X20163Y15277D01*
X20132Y15351D01*
X20076Y15407D01*
X20002Y15437D01*
X19900Y15437D01*
X19899Y15436D01*
X19899Y15558D01*
X19899Y15891D01*
X19899Y15941D01*
X19899Y16275D01*
X19849Y16325D01*
X19835Y16325D01*
X19756Y16325D01*
X19682Y16295D01*
X19626Y16238D01*
X19596Y16165D01*
X19596Y15991D01*
X19646Y15941D01*
X19899Y15941D01*
X19899Y15891D01*
X19646Y15891D01*
X19596Y15841D01*
X19596Y15668D01*
X19626Y15595D01*
X19682Y15538D01*
X19756Y15508D01*
X19835Y15508D01*
X19849Y15508D01*
X19899Y15558D01*
X19899Y15436D01*
X19850Y15387D01*
X19850Y15125D01*
X20113Y15125D01*
X20163Y15175D01*
X20163Y15198D01*
X20163Y15001D01*
X20163Y15025D01*
X20113Y15075D01*
X19850Y15075D01*
X19850Y15067D01*
X19800Y15067D01*
X19800Y15075D01*
X19792Y15075D01*
X19792Y15125D01*
X19800Y15125D01*
X19800Y15387D01*
X19750Y15437D01*
X19648Y15437D01*
X19574Y15407D01*
X19550Y15382D01*
X19525Y15407D01*
X19452Y15437D01*
X19372Y15437D01*
X19371Y15437D01*
X19406Y15490D01*
X19406Y15490D01*
X19416Y15538D01*
X19417Y15538D01*
X19473Y15594D01*
X19503Y15668D01*
X19503Y15747D01*
X19503Y16165D01*
X19473Y16238D01*
X19417Y16295D01*
X19343Y16325D01*
X19264Y16325D01*
X19008Y16325D01*
X18934Y16295D01*
X18878Y16239D01*
X18848Y16165D01*
X18847Y16085D01*
X18847Y15668D01*
X18864Y15628D01*
X18837Y15601D01*
X18837Y15701D01*
X18807Y15775D01*
X18782Y15799D01*
X18807Y15824D01*
X18837Y15897D01*
X18837Y15977D01*
X18837Y16252D01*
X18807Y16326D01*
X18751Y16382D01*
X18742Y16386D01*
X18730Y16445D01*
X18726Y16452D01*
X18746Y16460D01*
X18869Y16583D01*
X18936Y16743D01*
X18936Y16910D01*
X19222Y16910D01*
X19222Y16534D01*
X19252Y16461D01*
X19308Y16404D01*
X19382Y16374D01*
X19461Y16374D01*
X19717Y16374D01*
X19791Y16404D01*
X19847Y16460D01*
X19877Y16534D01*
X19877Y16614D01*
X19877Y17031D01*
X19847Y17104D01*
X19791Y17161D01*
X19789Y17161D01*
X19780Y17205D01*
X19734Y17275D01*
X29775Y17275D01*
X29775Y14131D01*
X29703Y14202D01*
X29506Y14284D01*
X29408Y14284D01*
X29408Y16179D01*
X29270Y16514D01*
X29015Y16769D01*
X28681Y16908D01*
X28320Y16908D01*
X27985Y16770D01*
X27730Y16515D01*
X27594Y16188D01*
X27505Y16276D01*
X27237Y16388D01*
X26946Y16388D01*
X26677Y16277D01*
X26471Y16071D01*
X26359Y15803D01*
X26359Y15512D01*
X26470Y15243D01*
X26676Y15037D01*
X26944Y14925D01*
X27235Y14925D01*
X27504Y15036D01*
X27710Y15242D01*
X27787Y15427D01*
X27984Y15230D01*
X28318Y15091D01*
X28679Y15091D01*
X29014Y15229D01*
X29269Y15484D01*
X29408Y15818D01*
X29408Y16179D01*
X29408Y14284D01*
X29294Y14284D01*
X29097Y14203D01*
X28947Y14053D01*
X28934Y14023D01*
X28934Y14124D01*
X28904Y14197D01*
X28848Y14254D01*
X28774Y14284D01*
X28695Y14284D01*
X28025Y14284D01*
X27952Y14254D01*
X27895Y14198D01*
X27865Y14124D01*
X27865Y14045D01*
X27865Y13375D01*
X27895Y13302D01*
X27951Y13245D01*
X28025Y13215D01*
X28104Y13215D01*
X28126Y13215D01*
X28097Y13203D01*
X27947Y13053D01*
X27865Y12856D01*
X27865Y12644D01*
X27946Y12447D01*
X28096Y12297D01*
X28210Y12249D01*
X28097Y12203D01*
X27947Y12053D01*
X27865Y11856D01*
X27865Y11644D01*
X27946Y11447D01*
X28096Y11297D01*
X28293Y11215D01*
X28505Y11215D01*
X28702Y11296D01*
X28852Y11446D01*
X28899Y11559D01*
X28944Y11450D01*
X29032Y11418D01*
X29364Y11750D01*
X29032Y12081D01*
X28944Y12049D01*
X28900Y11939D01*
X28853Y12052D01*
X28703Y12202D01*
X28589Y12250D01*
X28702Y12296D01*
X28852Y12446D01*
X28900Y12560D01*
X28946Y12447D01*
X29096Y12297D01*
X29209Y12250D01*
X29100Y12205D01*
X29068Y12117D01*
X29400Y11785D01*
X29405Y11790D01*
X29440Y11755D01*
X29435Y11750D01*
X29440Y11744D01*
X29405Y11709D01*
X29400Y11714D01*
X29068Y11382D01*
X29100Y11294D01*
X29297Y11214D01*
X29509Y11216D01*
X29699Y11294D01*
X29731Y11382D01*
X29731Y11382D01*
X29767Y11347D01*
X29775Y11355D01*
X29775Y225D01*
X29775Y225D01*
G37*
G54D38*
X29775Y225D02*
X29750Y225D01*
X29750Y5500D01*
X29750Y5750D01*
X29731Y5840D01*
X29730Y5845D01*
X29730Y5845D01*
X29676Y5926D01*
X29676Y5926D01*
X29515Y6088D01*
X29515Y6101D01*
X29436Y6291D01*
X29292Y6436D01*
X29102Y6514D01*
X28898Y6515D01*
X28708Y6436D01*
X28563Y6292D01*
X28499Y6138D01*
X28436Y6291D01*
X28292Y6436D01*
X28102Y6514D01*
X27898Y6515D01*
X27737Y6448D01*
X27737Y7997D01*
X27737Y8099D01*
X27687Y8149D01*
X27425Y8149D01*
X27425Y7886D01*
X27475Y7836D01*
X27498Y7836D01*
X27577Y7836D01*
X27651Y7867D01*
X27707Y7923D01*
X27737Y7997D01*
X27737Y6448D01*
X27708Y6436D01*
X27563Y6292D01*
X27485Y6102D01*
X27484Y5898D01*
X27563Y5708D01*
X27707Y5563D01*
X27897Y5485D01*
X27910Y5485D01*
X27886Y5427D01*
X27886Y5348D01*
X27886Y5325D01*
X27936Y5275D01*
X28199Y5275D01*
X28199Y5282D01*
X28249Y5282D01*
X28249Y5275D01*
X28257Y5275D01*
X28257Y5225D01*
X28249Y5225D01*
X28249Y4962D01*
X28286Y4925D01*
X28249Y4887D01*
X28249Y4625D01*
X28257Y4625D01*
X28257Y4575D01*
X28249Y4575D01*
X28249Y4567D01*
X28199Y4567D01*
X28199Y4575D01*
X28199Y4625D01*
X28199Y4887D01*
X28162Y4925D01*
X28199Y4962D01*
X28199Y5225D01*
X27936Y5225D01*
X27886Y5175D01*
X27886Y5151D01*
X27886Y5072D01*
X27917Y4998D01*
X27973Y4942D01*
X28015Y4925D01*
X27973Y4907D01*
X27917Y4851D01*
X27886Y4777D01*
X27886Y4698D01*
X27886Y4675D01*
X27936Y4625D01*
X28199Y4625D01*
X28199Y4575D01*
X27936Y4575D01*
X27886Y4525D01*
X27886Y4501D01*
X27886Y4422D01*
X27910Y4365D01*
X27898Y4365D01*
X27708Y4286D01*
X27563Y4142D01*
X27485Y3952D01*
X27484Y3748D01*
X27563Y3558D01*
X27707Y3413D01*
X27897Y3335D01*
X28101Y3334D01*
X28291Y3413D01*
X28436Y3557D01*
X28500Y3711D01*
X28563Y3558D01*
X28707Y3413D01*
X28897Y3335D01*
X29101Y3334D01*
X29291Y3413D01*
X29436Y3557D01*
X29514Y3747D01*
X29515Y3951D01*
X29497Y3994D01*
X29576Y4073D01*
X29576Y4073D01*
X29576Y4073D01*
X29630Y4154D01*
X29630Y4154D01*
X29646Y4230D01*
X29650Y4249D01*
X29649Y4250D01*
X29650Y4250D01*
X29650Y4450D01*
X29630Y4545D01*
X29630Y4545D01*
X29576Y4626D01*
X29426Y4776D01*
X29345Y4830D01*
X29250Y4850D01*
X29083Y4850D01*
X29083Y4850D01*
X29026Y4907D01*
X28984Y4925D01*
X29026Y4942D01*
X29082Y4998D01*
X29083Y5000D01*
X29250Y5000D01*
X29345Y5019D01*
X29426Y5073D01*
X29676Y5323D01*
X29676Y5323D01*
X29676Y5323D01*
X29730Y5404D01*
X29730Y5404D01*
X29750Y5500D01*
X29750Y225D01*
X29408Y225D01*
X29408Y1679D01*
X29270Y2014D01*
X29015Y2269D01*
X28681Y2408D01*
X28320Y2408D01*
X27985Y2270D01*
X27730Y2015D01*
X27591Y1681D01*
X27591Y1320D01*
X27729Y985D01*
X27984Y730D01*
X28318Y591D01*
X28679Y591D01*
X29014Y729D01*
X29269Y984D01*
X29408Y1318D01*
X29408Y1679D01*
X29408Y225D01*
X27375Y225D01*
X27375Y7886D01*
X27375Y8149D01*
X27112Y8149D01*
X27062Y8099D01*
X27062Y8076D01*
X27013Y8125D01*
X26750Y8125D01*
X26750Y7862D01*
X26800Y7812D01*
X26902Y7812D01*
X26976Y7842D01*
X27032Y7898D01*
X27063Y7972D01*
X27063Y7994D01*
X27092Y7923D01*
X27148Y7867D01*
X27222Y7836D01*
X27301Y7836D01*
X27325Y7836D01*
X27375Y7886D01*
X27375Y225D01*
X26834Y225D01*
X26834Y2778D01*
X26834Y6028D01*
X26833Y6248D01*
X26751Y6447D01*
X26661Y6482D01*
X26625Y6446D01*
X26625Y6517D01*
X26591Y6607D01*
X26387Y6690D01*
X26166Y6689D01*
X25967Y6607D01*
X25933Y6517D01*
X26279Y6171D01*
X26625Y6517D01*
X26625Y6446D01*
X26314Y6135D01*
X26661Y5789D01*
X26751Y5824D01*
X26834Y6028D01*
X26834Y2778D01*
X26833Y2867D01*
X26833Y4473D01*
X26749Y4677D01*
X26625Y4802D01*
X26625Y5754D01*
X26279Y6100D01*
X26244Y6065D01*
X26244Y6135D01*
X25897Y6482D01*
X25808Y6447D01*
X25724Y6243D01*
X25725Y6022D01*
X25808Y5824D01*
X25897Y5789D01*
X26244Y6135D01*
X26244Y6065D01*
X25933Y5754D01*
X25967Y5664D01*
X26172Y5580D01*
X26392Y5582D01*
X26591Y5664D01*
X26625Y5754D01*
X26625Y4802D01*
X26593Y4833D01*
X26390Y4918D01*
X26169Y4918D01*
X25965Y4834D01*
X25809Y4678D01*
X25725Y4474D01*
X25725Y4254D01*
X25809Y4050D01*
X25965Y3894D01*
X26168Y3809D01*
X26389Y3809D01*
X26593Y3893D01*
X26749Y4049D01*
X26833Y4253D01*
X26833Y4473D01*
X26833Y2867D01*
X26833Y2998D01*
X26751Y3197D01*
X26661Y3232D01*
X26625Y3196D01*
X26625Y3267D01*
X26591Y3357D01*
X26387Y3440D01*
X26166Y3439D01*
X25967Y3357D01*
X25933Y3267D01*
X26279Y2921D01*
X26625Y3267D01*
X26625Y3196D01*
X26314Y2885D01*
X26661Y2539D01*
X26751Y2574D01*
X26834Y2778D01*
X26834Y225D01*
X23229Y225D01*
X23229Y245D01*
X23229Y851D01*
X23250Y800D01*
X23406Y644D01*
X23609Y559D01*
X23830Y559D01*
X24034Y643D01*
X24190Y799D01*
X24219Y869D01*
X24294Y819D01*
X24364Y805D01*
X24366Y799D01*
X24423Y742D01*
X24496Y712D01*
X24576Y712D01*
X24851Y712D01*
X24925Y742D01*
X24949Y767D01*
X24974Y742D01*
X25047Y712D01*
X25127Y712D01*
X25402Y712D01*
X25476Y742D01*
X25532Y798D01*
X25533Y800D01*
X25550Y800D01*
X25645Y819D01*
X25726Y873D01*
X25763Y910D01*
X25809Y800D01*
X25965Y644D01*
X26168Y559D01*
X26389Y559D01*
X26593Y643D01*
X26749Y799D01*
X26833Y1003D01*
X26833Y1223D01*
X26749Y1427D01*
X26593Y1583D01*
X26529Y1610D01*
X26529Y1860D01*
X26510Y1956D01*
X26456Y2037D01*
X26156Y2337D01*
X26172Y2330D01*
X26392Y2332D01*
X26591Y2414D01*
X26625Y2504D01*
X26279Y2850D01*
X26273Y2844D01*
X26238Y2880D01*
X26244Y2885D01*
X25897Y3232D01*
X25808Y3197D01*
X25724Y2993D01*
X25725Y2772D01*
X25729Y2764D01*
X25600Y2893D01*
X25600Y3616D01*
X25600Y3616D01*
X25657Y3673D01*
X25687Y3746D01*
X25687Y3826D01*
X25687Y4101D01*
X25657Y4175D01*
X25632Y4199D01*
X25657Y4224D01*
X25687Y4297D01*
X25687Y4377D01*
X25687Y4652D01*
X25657Y4726D01*
X25601Y4782D01*
X25600Y4783D01*
X25600Y4870D01*
X25599Y4870D01*
X25600Y4870D01*
X25596Y4889D01*
X25580Y4965D01*
X25580Y4965D01*
X25526Y5046D01*
X25526Y5046D01*
X25331Y5241D01*
X25250Y5295D01*
X25155Y5315D01*
X24405Y5315D01*
X24380Y5320D01*
X24275Y5320D01*
X24275Y6028D01*
X24274Y6248D01*
X24191Y6447D01*
X24102Y6482D01*
X23755Y6135D01*
X24102Y5789D01*
X24191Y5824D01*
X24275Y6028D01*
X24275Y5320D01*
X24066Y5320D01*
X24066Y5754D01*
X23720Y6100D01*
X23685Y6065D01*
X23685Y6135D01*
X23338Y6482D01*
X23248Y6447D01*
X23165Y6243D01*
X23166Y6022D01*
X23248Y5824D01*
X23338Y5789D01*
X23685Y6135D01*
X23685Y6065D01*
X23374Y5754D01*
X23408Y5664D01*
X23612Y5580D01*
X23833Y5582D01*
X24032Y5664D01*
X24066Y5754D01*
X24066Y5320D01*
X23433Y5320D01*
X23040Y5713D01*
X23040Y6920D01*
X23040Y7040D01*
X23020Y7135D01*
X22966Y7216D01*
X22556Y7626D01*
X22475Y7680D01*
X22380Y7700D01*
X21249Y7700D01*
X21249Y7862D01*
X21249Y8125D01*
X20986Y8125D01*
X20936Y8075D01*
X20936Y8051D01*
X20936Y7972D01*
X20967Y7898D01*
X21023Y7842D01*
X21097Y7812D01*
X21199Y7812D01*
X21249Y7862D01*
X21249Y7700D01*
X20913Y7700D01*
X20856Y7756D01*
X20346Y8266D01*
X20346Y8266D01*
X19800Y8813D01*
X19800Y10950D01*
X20875Y10950D01*
X20683Y10757D01*
X20571Y10489D01*
X20571Y10198D01*
X20589Y10153D01*
X20573Y10136D01*
X20519Y10055D01*
X20500Y9960D01*
X20500Y9000D01*
X20519Y8904D01*
X20573Y8823D01*
X20773Y8623D01*
X20773Y8623D01*
X20821Y8590D01*
X20854Y8569D01*
X20854Y8569D01*
X20950Y8550D01*
X20966Y8550D01*
X20966Y8549D01*
X21023Y8492D01*
X21065Y8474D01*
X21023Y8457D01*
X20967Y8401D01*
X20936Y8327D01*
X20936Y8248D01*
X20936Y8225D01*
X20986Y8175D01*
X21249Y8175D01*
X21249Y8182D01*
X21299Y8182D01*
X21299Y8175D01*
X21307Y8175D01*
X21307Y8125D01*
X21299Y8125D01*
X21299Y7862D01*
X21349Y7812D01*
X21451Y7812D01*
X21525Y7842D01*
X21549Y7867D01*
X21574Y7842D01*
X21647Y7812D01*
X21727Y7812D01*
X22002Y7812D01*
X22076Y7842D01*
X22132Y7898D01*
X22133Y7900D01*
X22346Y7900D01*
X22523Y7723D01*
X22523Y7723D01*
X22604Y7669D01*
X22604Y7669D01*
X22700Y7650D01*
X22996Y7650D01*
X23050Y7596D01*
X23050Y7150D01*
X23069Y7054D01*
X23123Y6973D01*
X23323Y6773D01*
X23323Y6773D01*
X23341Y6761D01*
X23341Y6761D01*
X23366Y6699D01*
X23423Y6642D01*
X23458Y6627D01*
X23408Y6607D01*
X23374Y6517D01*
X23720Y6171D01*
X24066Y6517D01*
X24032Y6607D01*
X23931Y6648D01*
X23949Y6667D01*
X23974Y6642D01*
X24047Y6612D01*
X24127Y6612D01*
X24402Y6612D01*
X24476Y6642D01*
X24532Y6698D01*
X24533Y6700D01*
X24550Y6700D01*
X24645Y6719D01*
X24726Y6773D01*
X24826Y6873D01*
X24880Y6954D01*
X24900Y7050D01*
X24900Y7496D01*
X25103Y7700D01*
X25400Y7700D01*
X25495Y7719D01*
X25576Y7773D01*
X25703Y7900D01*
X25840Y7900D01*
X25866Y7900D01*
X25866Y7899D01*
X25923Y7842D01*
X25996Y7812D01*
X26076Y7812D01*
X26351Y7812D01*
X26425Y7842D01*
X26450Y7867D01*
X26474Y7842D01*
X26548Y7812D01*
X26650Y7812D01*
X26700Y7862D01*
X26700Y8125D01*
X26692Y8125D01*
X26692Y8175D01*
X26700Y8175D01*
X26700Y8182D01*
X26750Y8182D01*
X26750Y8175D01*
X27013Y8175D01*
X27063Y8225D01*
X27063Y8248D01*
X27063Y8248D01*
X27112Y8199D01*
X27375Y8199D01*
X27375Y8207D01*
X27425Y8207D01*
X27425Y8199D01*
X27687Y8199D01*
X27737Y8249D01*
X27737Y8351D01*
X27707Y8425D01*
X27682Y8449D01*
X27707Y8474D01*
X27737Y8547D01*
X27737Y8627D01*
X27737Y8902D01*
X27707Y8976D01*
X27651Y9032D01*
X27650Y9033D01*
X27650Y9210D01*
X27649Y9210D01*
X27650Y9210D01*
X27646Y9229D01*
X27630Y9305D01*
X27630Y9305D01*
X27576Y9386D01*
X27576Y9386D01*
X27226Y9736D01*
X27175Y9787D01*
X27316Y9928D01*
X27428Y10196D01*
X27428Y10487D01*
X27317Y10756D01*
X27111Y10962D01*
X26843Y11074D01*
X26552Y11074D01*
X26283Y10963D01*
X26077Y10757D01*
X25965Y10489D01*
X25965Y10198D01*
X26076Y9929D01*
X26282Y9723D01*
X26550Y9611D01*
X26644Y9611D01*
X26800Y9456D01*
X26800Y9137D01*
X26548Y9137D01*
X26474Y9107D01*
X26450Y9082D01*
X26425Y9107D01*
X26352Y9137D01*
X26272Y9137D01*
X25997Y9137D01*
X25923Y9107D01*
X25867Y9051D01*
X25860Y9036D01*
X25834Y9030D01*
X25753Y8976D01*
X25613Y8836D01*
X25559Y8755D01*
X25540Y8660D01*
X25540Y8400D01*
X25269Y8400D01*
X25255Y8414D01*
X25236Y8422D01*
X25254Y8429D01*
X25272Y8447D01*
X25291Y8447D01*
X25341Y8497D01*
X25341Y8461D01*
X25341Y8540D01*
X25337Y8550D01*
X25341Y8559D01*
X25341Y8638D01*
X25341Y8602D01*
X25291Y8652D01*
X25272Y8652D01*
X25254Y8670D01*
X25236Y8677D01*
X25254Y8685D01*
X25272Y8702D01*
X25291Y8702D01*
X25341Y8752D01*
X25341Y8717D01*
X25341Y8796D01*
X25337Y8805D01*
X25341Y8815D01*
X25341Y8894D01*
X25341Y9052D01*
X25311Y9125D01*
X25255Y9182D01*
X25181Y9212D01*
X25102Y9212D01*
X24550Y9212D01*
X24477Y9182D01*
X24421Y9126D01*
X24390Y9052D01*
X24390Y8972D01*
X24390Y8815D01*
X24394Y8805D01*
X24390Y8796D01*
X24390Y8717D01*
X24390Y8752D01*
X24440Y8702D01*
X24459Y8702D01*
X24477Y8685D01*
X24495Y8677D01*
X24477Y8670D01*
X24459Y8652D01*
X24440Y8652D01*
X24390Y8602D01*
X24390Y8638D01*
X24390Y8559D01*
X24394Y8550D01*
X24390Y8540D01*
X24390Y8461D01*
X24390Y8497D01*
X24440Y8447D01*
X24459Y8447D01*
X24477Y8429D01*
X24495Y8422D01*
X24477Y8414D01*
X24459Y8397D01*
X24440Y8397D01*
X24390Y8347D01*
X24390Y8382D01*
X24390Y8303D01*
X24394Y8294D01*
X24390Y8284D01*
X24390Y8205D01*
X24390Y8047D01*
X24420Y7974D01*
X24477Y7917D01*
X24550Y7887D01*
X24583Y7887D01*
X24537Y7840D01*
X24532Y7851D01*
X24476Y7907D01*
X24402Y7937D01*
X24300Y7937D01*
X24250Y7887D01*
X24250Y7625D01*
X24258Y7625D01*
X24258Y7575D01*
X24250Y7575D01*
X24250Y7567D01*
X24200Y7567D01*
X24200Y7575D01*
X24192Y7575D01*
X24192Y7625D01*
X24200Y7625D01*
X24200Y7887D01*
X24150Y7937D01*
X24048Y7937D01*
X23974Y7907D01*
X23950Y7882D01*
X23925Y7907D01*
X23924Y7907D01*
X23924Y8275D01*
X23905Y8371D01*
X23905Y8371D01*
X23883Y8403D01*
X23851Y8452D01*
X23851Y8452D01*
X23704Y8598D01*
X23623Y8653D01*
X23609Y8655D01*
X23609Y8796D01*
X23605Y8805D01*
X23609Y8815D01*
X23609Y8894D01*
X23609Y9052D01*
X23579Y9125D01*
X23522Y9182D01*
X23449Y9212D01*
X23369Y9212D01*
X22895Y9212D01*
X22895Y9930D01*
X22895Y10695D01*
X22894Y10695D01*
X22895Y10695D01*
X22891Y10714D01*
X22875Y10790D01*
X22875Y10790D01*
X22821Y10871D01*
X22821Y10871D01*
X21640Y12052D01*
X21640Y15801D01*
X21529Y16070D01*
X21323Y16276D01*
X21055Y16388D01*
X20764Y16388D01*
X20495Y16277D01*
X20289Y16071D01*
X20252Y15982D01*
X20235Y15941D01*
X20201Y15941D01*
X20251Y15991D01*
X20252Y16165D01*
X20221Y16238D01*
X20165Y16295D01*
X20091Y16325D01*
X20012Y16325D01*
X19999Y16325D01*
X19949Y16275D01*
X19949Y15941D01*
X19956Y15941D01*
X19956Y15891D01*
X19949Y15891D01*
X19949Y15558D01*
X19999Y15508D01*
X20012Y15508D01*
X20091Y15508D01*
X20165Y15538D01*
X20177Y15550D01*
X20177Y15512D01*
X20288Y15243D01*
X20494Y15037D01*
X20762Y14925D01*
X21053Y14925D01*
X21322Y15036D01*
X21528Y15242D01*
X21640Y15510D01*
X21640Y15801D01*
X21640Y12052D01*
X20216Y13476D01*
X20135Y13530D01*
X20040Y13550D01*
X19800Y13550D01*
X19083Y13550D01*
X19323Y13790D01*
X20140Y13790D01*
X20235Y13809D01*
X20316Y13863D01*
X20386Y13933D01*
X20440Y14014D01*
X20460Y14110D01*
X20460Y14390D01*
X20440Y14485D01*
X20386Y14566D01*
X20326Y14626D01*
X20245Y14680D01*
X20150Y14700D01*
X20133Y14700D01*
X20133Y14700D01*
X20076Y14757D01*
X20034Y14775D01*
X20076Y14792D01*
X20132Y14848D01*
X20163Y14922D01*
X20163Y15001D01*
X20163Y15198D01*
X20163Y15277D01*
X20132Y15351D01*
X20076Y15407D01*
X20002Y15437D01*
X19900Y15437D01*
X19899Y15436D01*
X19899Y15558D01*
X19899Y15891D01*
X19899Y15941D01*
X19899Y16275D01*
X19849Y16325D01*
X19835Y16325D01*
X19756Y16325D01*
X19682Y16295D01*
X19626Y16238D01*
X19596Y16165D01*
X19596Y15991D01*
X19646Y15941D01*
X19899Y15941D01*
X19899Y15891D01*
X19646Y15891D01*
X19596Y15841D01*
X19596Y15668D01*
X19626Y15595D01*
X19682Y15538D01*
X19756Y15508D01*
X19835Y15508D01*
X19849Y15508D01*
X19899Y15558D01*
X19899Y15436D01*
X19850Y15387D01*
X19850Y15125D01*
X20113Y15125D01*
X20163Y15175D01*
X20163Y15198D01*
X20163Y15001D01*
X20163Y15025D01*
X20113Y15075D01*
X19850Y15075D01*
X19850Y15067D01*
X19800Y15067D01*
X19800Y15075D01*
X19792Y15075D01*
X19792Y15125D01*
X19800Y15125D01*
X19800Y15387D01*
X19750Y15437D01*
X19648Y15437D01*
X19574Y15407D01*
X19550Y15382D01*
X19525Y15407D01*
X19452Y15437D01*
X19372Y15437D01*
X19371Y15437D01*
X19406Y15490D01*
X19406Y15490D01*
X19416Y15538D01*
X19417Y15538D01*
X19473Y15594D01*
X19503Y15668D01*
X19503Y15747D01*
X19503Y16165D01*
X19473Y16238D01*
X19417Y16295D01*
X19343Y16325D01*
X19264Y16325D01*
X19008Y16325D01*
X18934Y16295D01*
X18878Y16239D01*
X18848Y16165D01*
X18847Y16085D01*
X18847Y15668D01*
X18864Y15628D01*
X18837Y15601D01*
X18837Y15701D01*
X18807Y15775D01*
X18782Y15799D01*
X18807Y15824D01*
X18837Y15897D01*
X18837Y15977D01*
X18837Y16252D01*
X18807Y16326D01*
X18751Y16382D01*
X18742Y16386D01*
X18730Y16445D01*
X18726Y16452D01*
X18746Y16460D01*
X18869Y16583D01*
X18936Y16743D01*
X18936Y16910D01*
X19222Y16910D01*
X19222Y16534D01*
X19252Y16461D01*
X19308Y16404D01*
X19382Y16374D01*
X19461Y16374D01*
X19717Y16374D01*
X19791Y16404D01*
X19847Y16460D01*
X19877Y16534D01*
X19877Y16614D01*
X19877Y17031D01*
X19847Y17104D01*
X19791Y17161D01*
X19789Y17161D01*
X19780Y17205D01*
X19734Y17275D01*
X29775Y17275D01*
X29775Y14131D01*
X29703Y14202D01*
X29506Y14284D01*
X29408Y14284D01*
X29408Y16179D01*
X29270Y16514D01*
X29015Y16769D01*
X28681Y16908D01*
X28320Y16908D01*
X27985Y16770D01*
X27730Y16515D01*
X27594Y16188D01*
X27505Y16276D01*
X27237Y16388D01*
X26946Y16388D01*
X26677Y16277D01*
X26471Y16071D01*
X26359Y15803D01*
X26359Y15512D01*
X26470Y15243D01*
X26676Y15037D01*
X26944Y14925D01*
X27235Y14925D01*
X27504Y15036D01*
X27710Y15242D01*
X27787Y15427D01*
X27984Y15230D01*
X28318Y15091D01*
X28679Y15091D01*
X29014Y15229D01*
X29269Y15484D01*
X29408Y15818D01*
X29408Y16179D01*
X29408Y14284D01*
X29294Y14284D01*
X29097Y14203D01*
X28947Y14053D01*
X28934Y14023D01*
X28934Y14124D01*
X28904Y14197D01*
X28848Y14254D01*
X28774Y14284D01*
X28695Y14284D01*
X28025Y14284D01*
X27952Y14254D01*
X27895Y14198D01*
X27865Y14124D01*
X27865Y14045D01*
X27865Y13375D01*
X27895Y13302D01*
X27951Y13245D01*
X28025Y13215D01*
X28104Y13215D01*
X28126Y13215D01*
X28097Y13203D01*
X27947Y13053D01*
X27865Y12856D01*
X27865Y12644D01*
X27946Y12447D01*
X28096Y12297D01*
X28210Y12249D01*
X28097Y12203D01*
X27947Y12053D01*
X27865Y11856D01*
X27865Y11644D01*
X27946Y11447D01*
X28096Y11297D01*
X28293Y11215D01*
X28505Y11215D01*
X28702Y11296D01*
X28852Y11446D01*
X28899Y11559D01*
X28944Y11450D01*
X29032Y11418D01*
X29364Y11750D01*
X29032Y12081D01*
X28944Y12049D01*
X28900Y11939D01*
X28853Y12052D01*
X28703Y12202D01*
X28589Y12250D01*
X28702Y12296D01*
X28852Y12446D01*
X28900Y12560D01*
X28946Y12447D01*
X29096Y12297D01*
X29209Y12250D01*
X29100Y12205D01*
X29068Y12117D01*
X29400Y11785D01*
X29405Y11790D01*
X29440Y11755D01*
X29435Y11750D01*
X29440Y11744D01*
X29405Y11709D01*
X29400Y11714D01*
X29068Y11382D01*
X29100Y11294D01*
X29297Y11214D01*
X29509Y11216D01*
X29699Y11294D01*
X29731Y11382D01*
X29731Y11382D01*
X29767Y11347D01*
X29775Y11355D01*
X29775Y225D01*
G54D10*
G36*
X7725Y11300D02*
X275Y11300D01*
X275Y12700D01*
X1050Y12700D01*
X1050Y12725D01*
X6700Y12725D01*
X6700Y12700D01*
X7725Y12700D01*
X7725Y11300D01*
X7725Y11300D01*
G37*
G54D38*
X7725Y11300D02*
X275Y11300D01*
X275Y12700D01*
X1050Y12700D01*
X1050Y12725D01*
X6700Y12725D01*
X6700Y12700D01*
X7725Y12700D01*
X7725Y11300D01*
G54D10*
G36*
X7725Y8775D02*
X1050Y8775D01*
X1050Y8800D01*
X275Y8800D01*
X275Y10200D01*
X7725Y10200D01*
X7725Y8775D01*
X7725Y8775D01*
G37*
G54D38*
X7725Y8775D02*
X1050Y8775D01*
X1050Y8800D01*
X275Y8800D01*
X275Y10200D01*
X7725Y10200D01*
X7725Y8775D01*
M02*
