M48
;DRILL file {Pcbnew (2013-07-07 BZR 4022)-stable} date 11/5/2013 1:48:15 AM
;FORMAT={2:4/ absolute / inch / keep zeros}
FMAT,2
INCH,TZ
T1C0.015
T2C0.028
T3C0.035
T4C0.039
T5C0.043
T6C0.051
T7C0.070
T8C0.087
T9C0.098
T10C0.142
%
G90
G05
M72
T1
X000500Y014500
X000500Y007000
X001250Y014500
X001500Y007000
X002250Y014500
X002500Y007000
X003250Y014500
X003500Y007000
X004250Y014500
X004500Y007000
X005250Y015500
X005250Y014500
X005500Y007000
X005750Y016000
X006250Y007000
X006750Y016000
X007500Y007000
X007750Y016000
X008500Y007000
X008750Y016000
X009500Y012000
X009500Y011000
X009500Y008000
X009500Y007000
X009750Y016000
X009750Y015000
X009750Y014000
X009750Y013000
X010130Y010500
X012770Y012090
X013080Y014700
X013130Y014220
X013150Y013720
X013500Y006280
X013560Y013580
X014390Y010220
X014640Y010850
X014940Y010570
X015340Y015900
X015670Y013600
X016020Y013370
X016220Y013010
X016460Y011710
X016680Y013020
X016770Y015880
X016870Y013420
X017190Y007320
X017230Y013620
X017340Y006530
X017450Y010330
X017570Y012950
X017890Y010330
X017970Y004980
X018340Y010620
X018490Y014960
X019130Y011270
X019550Y011200
X020360Y012450
X020420Y004350
X020640Y013270
X021080Y004330
X022930Y002460
T2
X013500Y016831
X013500Y008169
X014500Y016831
X014500Y008169
X015500Y016831
X015500Y008169
X016500Y016831
X016500Y008169
X017500Y016831
X017500Y008169
X018500Y016831
X018500Y008169
T3
X003400Y006150
X003400Y005150
X028000Y006000
X028000Y003850
X028400Y013750
X028400Y012750
X028400Y011750
X029000Y006000
X029000Y003850
X029400Y013750
X029400Y012750
X029400Y011750
T4
X013047Y003984
X013047Y003000
X013047Y002016
X018756Y003984
X018756Y002016
X023720Y006136
X023720Y004364
X023720Y002886
X023720Y001114
X026280Y006136
X026280Y004364
X026280Y002886
X026280Y001114
T5
X006831Y011750
X006831Y009750
X006831Y006750
X006831Y005750
T6
X001350Y011750
X001350Y009750
T7
X020909Y015657
X021303Y010343
X026697Y010343
X027091Y015657
T8
X016000Y005205
X016000Y000795
T9
X007500Y013750
X007500Y003750
T10
X001500Y016000
X001500Y001500
X028500Y016000
X028500Y001500
T0
M30
