G04 (created by PCBNEW (2013-07-07 BZR 4022)-stable) date 11/5/2013 1:48:53 AM*
%MOIN*%
G04 Gerber Fmt 3.4, Leading zero omitted, Abs format*
%FSLAX34Y34*%
G01*
G70*
G90*
G04 APERTURE LIST*
%ADD10C,0.006*%
%ADD11C,0.008*%
%ADD12C,0.009*%
%ADD13C,0.018*%
%ADD14C,0.00787402*%
%ADD15C,0.015*%
%ADD16C,0.01*%
%ADD17C,0.0590551*%
%ADD18C,0.016*%
%ADD19C,0.012*%
%ADD20C,0.0847*%
%ADD21C,0.0769*%
%ADD22C,0.1044*%
%ADD23C,0.1123*%
%ADD24C,0.0768661*%
%ADD25C,0.0650551*%
%ADD26C,0.12411*%
%ADD27R,0.0493071X0.0493071*%
%ADD28C,0.0532441*%
%ADD29R,0.0729291X0.0729291*%
%ADD30C,0.0729291*%
%ADD31C,0.0689921*%
%ADD32R,0.0847402X0.0847402*%
%ADD33C,0.0847402*%
%ADD34C,0.147732*%
G04 APERTURE END LIST*
G54D10*
G54D11*
X10599Y2604D02*
X10599Y2280D01*
X10619Y2242D01*
X10638Y2223D01*
X10676Y2204D01*
X10733Y2204D01*
X10771Y2223D01*
X10599Y2357D02*
X10638Y2338D01*
X10714Y2338D01*
X10752Y2357D01*
X10771Y2376D01*
X10790Y2414D01*
X10790Y2528D01*
X10771Y2566D01*
X10752Y2585D01*
X10714Y2604D01*
X10638Y2604D01*
X10599Y2585D01*
X10409Y2338D02*
X10409Y2604D01*
X10409Y2738D02*
X10428Y2719D01*
X10409Y2700D01*
X10390Y2719D01*
X10409Y2738D01*
X10409Y2700D01*
X10276Y2604D02*
X10123Y2604D01*
X10219Y2738D02*
X10219Y2395D01*
X10199Y2357D01*
X10161Y2338D01*
X10123Y2338D01*
X9990Y2338D02*
X9990Y2738D01*
X9819Y2338D02*
X9819Y2547D01*
X9838Y2585D01*
X9876Y2604D01*
X9933Y2604D01*
X9971Y2585D01*
X9990Y2566D01*
X9457Y2604D02*
X9457Y2338D01*
X9628Y2604D02*
X9628Y2395D01*
X9609Y2357D01*
X9571Y2338D01*
X9514Y2338D01*
X9476Y2357D01*
X9457Y2376D01*
X9266Y2338D02*
X9266Y2738D01*
X9266Y2585D02*
X9228Y2604D01*
X9152Y2604D01*
X9114Y2585D01*
X9095Y2566D01*
X9076Y2528D01*
X9076Y2414D01*
X9095Y2376D01*
X9114Y2357D01*
X9152Y2338D01*
X9228Y2338D01*
X9266Y2357D01*
X8904Y2376D02*
X8885Y2357D01*
X8904Y2338D01*
X8923Y2357D01*
X8904Y2376D01*
X8904Y2338D01*
X8542Y2357D02*
X8580Y2338D01*
X8657Y2338D01*
X8695Y2357D01*
X8714Y2376D01*
X8733Y2414D01*
X8733Y2528D01*
X8714Y2566D01*
X8695Y2585D01*
X8657Y2604D01*
X8580Y2604D01*
X8542Y2585D01*
X8314Y2338D02*
X8352Y2357D01*
X8371Y2376D01*
X8390Y2414D01*
X8390Y2528D01*
X8371Y2566D01*
X8352Y2585D01*
X8314Y2604D01*
X8257Y2604D01*
X8219Y2585D01*
X8199Y2566D01*
X8180Y2528D01*
X8180Y2414D01*
X8199Y2376D01*
X8219Y2357D01*
X8257Y2338D01*
X8314Y2338D01*
X8009Y2338D02*
X8009Y2604D01*
X8009Y2566D02*
X7990Y2585D01*
X7952Y2604D01*
X7895Y2604D01*
X7857Y2585D01*
X7838Y2547D01*
X7838Y2338D01*
X7838Y2547D02*
X7819Y2585D01*
X7780Y2604D01*
X7723Y2604D01*
X7685Y2585D01*
X7666Y2547D01*
X7666Y2338D01*
X7190Y2757D02*
X7533Y2242D01*
X7057Y2338D02*
X7057Y2604D01*
X7057Y2566D02*
X7038Y2585D01*
X6999Y2604D01*
X6942Y2604D01*
X6904Y2585D01*
X6885Y2547D01*
X6885Y2338D01*
X6885Y2547D02*
X6866Y2585D01*
X6828Y2604D01*
X6771Y2604D01*
X6733Y2585D01*
X6714Y2547D01*
X6714Y2338D01*
X6352Y2357D02*
X6390Y2338D01*
X6466Y2338D01*
X6504Y2357D01*
X6523Y2376D01*
X6542Y2414D01*
X6542Y2528D01*
X6523Y2566D01*
X6504Y2585D01*
X6466Y2604D01*
X6390Y2604D01*
X6352Y2585D01*
X6123Y2338D02*
X6161Y2357D01*
X6180Y2376D01*
X6199Y2414D01*
X6199Y2528D01*
X6180Y2566D01*
X6161Y2585D01*
X6123Y2604D01*
X6066Y2604D01*
X6028Y2585D01*
X6009Y2566D01*
X5990Y2528D01*
X5990Y2414D01*
X6009Y2376D01*
X6028Y2357D01*
X6066Y2338D01*
X6123Y2338D01*
X5647Y2604D02*
X5647Y2338D01*
X5819Y2604D02*
X5819Y2395D01*
X5799Y2357D01*
X5761Y2338D01*
X5704Y2338D01*
X5666Y2357D01*
X5647Y2376D01*
X5476Y2357D02*
X5438Y2338D01*
X5361Y2338D01*
X5323Y2357D01*
X5304Y2395D01*
X5304Y2414D01*
X5323Y2452D01*
X5361Y2471D01*
X5419Y2471D01*
X5457Y2490D01*
X5476Y2528D01*
X5476Y2547D01*
X5457Y2585D01*
X5419Y2604D01*
X5361Y2604D01*
X5323Y2585D01*
X4847Y2757D02*
X5190Y2242D01*
X4714Y2338D02*
X4714Y2604D01*
X4714Y2528D02*
X4695Y2566D01*
X4676Y2585D01*
X4638Y2604D01*
X4599Y2604D01*
X4314Y2357D02*
X4352Y2338D01*
X4428Y2338D01*
X4466Y2357D01*
X4485Y2395D01*
X4485Y2547D01*
X4466Y2585D01*
X4428Y2604D01*
X4352Y2604D01*
X4314Y2585D01*
X4295Y2547D01*
X4295Y2509D01*
X4485Y2471D01*
X4180Y2604D02*
X4028Y2604D01*
X4123Y2338D02*
X4123Y2680D01*
X4104Y2719D01*
X4066Y2738D01*
X4028Y2738D01*
X3838Y2338D02*
X3876Y2357D01*
X3895Y2395D01*
X3895Y2738D01*
X3628Y2338D02*
X3666Y2357D01*
X3685Y2376D01*
X3704Y2414D01*
X3704Y2528D01*
X3685Y2566D01*
X3666Y2585D01*
X3628Y2604D01*
X3571Y2604D01*
X3533Y2585D01*
X3514Y2566D01*
X3495Y2528D01*
X3495Y2414D01*
X3514Y2376D01*
X3533Y2357D01*
X3571Y2338D01*
X3628Y2338D01*
X3361Y2604D02*
X3285Y2338D01*
X3209Y2528D01*
X3133Y2338D01*
X3057Y2604D01*
X9571Y1698D02*
X9609Y1717D01*
X9628Y1736D01*
X9647Y1774D01*
X9647Y1888D01*
X9628Y1926D01*
X9609Y1945D01*
X9571Y1964D01*
X9514Y1964D01*
X9476Y1945D01*
X9457Y1926D01*
X9438Y1888D01*
X9438Y1774D01*
X9457Y1736D01*
X9476Y1717D01*
X9514Y1698D01*
X9571Y1698D01*
X9266Y1964D02*
X9266Y1564D01*
X9266Y1945D02*
X9228Y1964D01*
X9152Y1964D01*
X9114Y1945D01*
X9095Y1926D01*
X9076Y1888D01*
X9076Y1774D01*
X9095Y1736D01*
X9114Y1717D01*
X9152Y1698D01*
X9228Y1698D01*
X9266Y1717D01*
X8752Y1717D02*
X8790Y1698D01*
X8866Y1698D01*
X8904Y1717D01*
X8923Y1755D01*
X8923Y1907D01*
X8904Y1945D01*
X8866Y1964D01*
X8790Y1964D01*
X8752Y1945D01*
X8733Y1907D01*
X8733Y1869D01*
X8923Y1831D01*
X8561Y1964D02*
X8561Y1698D01*
X8561Y1926D02*
X8542Y1945D01*
X8504Y1964D01*
X8447Y1964D01*
X8409Y1945D01*
X8390Y1907D01*
X8390Y1698D01*
X7914Y1717D02*
X7876Y1698D01*
X7799Y1698D01*
X7761Y1717D01*
X7742Y1755D01*
X7742Y1774D01*
X7761Y1812D01*
X7799Y1831D01*
X7857Y1831D01*
X7895Y1850D01*
X7914Y1888D01*
X7914Y1907D01*
X7895Y1945D01*
X7857Y1964D01*
X7799Y1964D01*
X7761Y1945D01*
X7514Y1698D02*
X7552Y1717D01*
X7571Y1736D01*
X7590Y1774D01*
X7590Y1888D01*
X7571Y1926D01*
X7552Y1945D01*
X7514Y1964D01*
X7457Y1964D01*
X7419Y1945D01*
X7399Y1926D01*
X7380Y1888D01*
X7380Y1774D01*
X7399Y1736D01*
X7419Y1717D01*
X7457Y1698D01*
X7514Y1698D01*
X7038Y1964D02*
X7038Y1698D01*
X7209Y1964D02*
X7209Y1755D01*
X7190Y1717D01*
X7152Y1698D01*
X7095Y1698D01*
X7057Y1717D01*
X7038Y1736D01*
X6847Y1698D02*
X6847Y1964D01*
X6847Y1888D02*
X6828Y1926D01*
X6809Y1945D01*
X6771Y1964D01*
X6733Y1964D01*
X6428Y1717D02*
X6466Y1698D01*
X6542Y1698D01*
X6580Y1717D01*
X6599Y1736D01*
X6619Y1774D01*
X6619Y1888D01*
X6599Y1926D01*
X6580Y1945D01*
X6542Y1964D01*
X6466Y1964D01*
X6428Y1945D01*
X6104Y1717D02*
X6142Y1698D01*
X6219Y1698D01*
X6257Y1717D01*
X6276Y1755D01*
X6276Y1907D01*
X6257Y1945D01*
X6219Y1964D01*
X6142Y1964D01*
X6104Y1945D01*
X6085Y1907D01*
X6085Y1869D01*
X6276Y1831D01*
X5609Y1698D02*
X5609Y2098D01*
X5438Y1698D02*
X5438Y1907D01*
X5457Y1945D01*
X5495Y1964D01*
X5552Y1964D01*
X5590Y1945D01*
X5609Y1926D01*
X5076Y1698D02*
X5076Y1907D01*
X5095Y1945D01*
X5133Y1964D01*
X5209Y1964D01*
X5247Y1945D01*
X5076Y1717D02*
X5114Y1698D01*
X5209Y1698D01*
X5247Y1717D01*
X5266Y1755D01*
X5266Y1793D01*
X5247Y1831D01*
X5209Y1850D01*
X5114Y1850D01*
X5076Y1869D01*
X4885Y1698D02*
X4885Y1964D01*
X4885Y1888D02*
X4866Y1926D01*
X4847Y1945D01*
X4809Y1964D01*
X4771Y1964D01*
X4466Y1698D02*
X4466Y2098D01*
X4466Y1717D02*
X4504Y1698D01*
X4580Y1698D01*
X4619Y1717D01*
X4638Y1736D01*
X4657Y1774D01*
X4657Y1888D01*
X4638Y1926D01*
X4619Y1945D01*
X4580Y1964D01*
X4504Y1964D01*
X4466Y1945D01*
X4314Y1964D02*
X4238Y1698D01*
X4161Y1888D01*
X4085Y1698D01*
X4009Y1964D01*
X3685Y1698D02*
X3685Y1907D01*
X3704Y1945D01*
X3742Y1964D01*
X3819Y1964D01*
X3857Y1945D01*
X3685Y1717D02*
X3723Y1698D01*
X3819Y1698D01*
X3857Y1717D01*
X3876Y1755D01*
X3876Y1793D01*
X3857Y1831D01*
X3819Y1850D01*
X3723Y1850D01*
X3685Y1869D01*
X3495Y1698D02*
X3495Y1964D01*
X3495Y1888D02*
X3476Y1926D01*
X3457Y1945D01*
X3419Y1964D01*
X3380Y1964D01*
X3095Y1717D02*
X3133Y1698D01*
X3209Y1698D01*
X3247Y1717D01*
X3266Y1755D01*
X3266Y1907D01*
X3247Y1945D01*
X3209Y1964D01*
X3133Y1964D01*
X3095Y1945D01*
X3076Y1907D01*
X3076Y1869D01*
X3266Y1831D01*
X6828Y1077D02*
X6866Y1058D01*
X6942Y1058D01*
X6980Y1077D01*
X6999Y1096D01*
X7019Y1134D01*
X7019Y1248D01*
X6999Y1286D01*
X6980Y1305D01*
X6942Y1324D01*
X6866Y1324D01*
X6828Y1305D01*
X6485Y1077D02*
X6523Y1058D01*
X6599Y1058D01*
X6638Y1077D01*
X6657Y1096D01*
X6676Y1134D01*
X6676Y1248D01*
X6657Y1286D01*
X6638Y1305D01*
X6599Y1324D01*
X6523Y1324D01*
X6485Y1305D01*
X6009Y1058D02*
X6009Y1458D01*
X6009Y1305D02*
X5971Y1324D01*
X5895Y1324D01*
X5857Y1305D01*
X5838Y1286D01*
X5819Y1248D01*
X5819Y1134D01*
X5838Y1096D01*
X5857Y1077D01*
X5895Y1058D01*
X5971Y1058D01*
X6009Y1077D01*
X5685Y1324D02*
X5590Y1058D01*
X5495Y1324D02*
X5590Y1058D01*
X5628Y962D01*
X5647Y943D01*
X5685Y924D01*
X5342Y1210D02*
X5038Y1210D01*
X4866Y1077D02*
X4828Y1058D01*
X4752Y1058D01*
X4714Y1077D01*
X4695Y1115D01*
X4695Y1134D01*
X4714Y1172D01*
X4752Y1191D01*
X4809Y1191D01*
X4847Y1210D01*
X4866Y1248D01*
X4866Y1267D01*
X4847Y1305D01*
X4809Y1324D01*
X4752Y1324D01*
X4714Y1305D01*
X4352Y1058D02*
X4352Y1267D01*
X4371Y1305D01*
X4409Y1324D01*
X4485Y1324D01*
X4523Y1305D01*
X4352Y1077D02*
X4390Y1058D01*
X4485Y1058D01*
X4523Y1077D01*
X4542Y1115D01*
X4542Y1153D01*
X4523Y1191D01*
X4485Y1210D01*
X4390Y1210D01*
X4352Y1229D01*
X3895Y1458D02*
X3647Y1458D01*
X3780Y1305D01*
X3723Y1305D01*
X3685Y1286D01*
X3666Y1267D01*
X3647Y1229D01*
X3647Y1134D01*
X3666Y1096D01*
X3685Y1077D01*
X3723Y1058D01*
X3838Y1058D01*
X3876Y1077D01*
X3895Y1096D01*
X3476Y1096D02*
X3457Y1077D01*
X3476Y1058D01*
X3495Y1077D01*
X3476Y1096D01*
X3476Y1058D01*
X3209Y1458D02*
X3171Y1458D01*
X3133Y1439D01*
X3114Y1420D01*
X3095Y1381D01*
X3076Y1305D01*
X3076Y1210D01*
X3095Y1134D01*
X3114Y1096D01*
X3133Y1077D01*
X3171Y1058D01*
X3209Y1058D01*
X3247Y1077D01*
X3266Y1096D01*
X3285Y1134D01*
X3304Y1210D01*
X3304Y1305D01*
X3285Y1381D01*
X3266Y1420D01*
X3247Y1439D01*
X3209Y1458D01*
X7019Y418D02*
X7019Y684D01*
X7019Y646D02*
X7000Y665D01*
X6961Y684D01*
X6904Y684D01*
X6866Y665D01*
X6847Y627D01*
X6847Y418D01*
X6847Y627D02*
X6828Y665D01*
X6790Y684D01*
X6733Y684D01*
X6695Y665D01*
X6676Y627D01*
X6676Y418D01*
X6485Y684D02*
X6485Y341D01*
X6504Y303D01*
X6542Y284D01*
X6561Y284D01*
X6485Y818D02*
X6504Y799D01*
X6485Y780D01*
X6466Y799D01*
X6485Y818D01*
X6485Y780D01*
X6123Y437D02*
X6161Y418D01*
X6238Y418D01*
X6276Y437D01*
X6295Y456D01*
X6314Y494D01*
X6314Y608D01*
X6295Y646D01*
X6276Y665D01*
X6238Y684D01*
X6161Y684D01*
X6123Y665D01*
X5438Y418D02*
X5666Y418D01*
X5552Y418D02*
X5552Y818D01*
X5590Y760D01*
X5628Y722D01*
X5666Y703D01*
X5057Y418D02*
X5285Y418D01*
X5171Y418D02*
X5171Y818D01*
X5209Y760D01*
X5247Y722D01*
X5285Y703D01*
X4600Y837D02*
X4942Y322D01*
X4276Y818D02*
X4466Y818D01*
X4485Y627D01*
X4466Y646D01*
X4428Y665D01*
X4333Y665D01*
X4295Y646D01*
X4276Y627D01*
X4257Y589D01*
X4257Y494D01*
X4276Y456D01*
X4295Y437D01*
X4333Y418D01*
X4428Y418D01*
X4466Y437D01*
X4485Y456D01*
X3800Y837D02*
X4142Y322D01*
X3457Y418D02*
X3685Y418D01*
X3571Y418D02*
X3571Y818D01*
X3609Y760D01*
X3647Y722D01*
X3685Y703D01*
X3323Y818D02*
X3076Y818D01*
X3209Y665D01*
X3152Y665D01*
X3114Y646D01*
X3095Y627D01*
X3076Y589D01*
X3076Y494D01*
X3095Y456D01*
X3114Y437D01*
X3152Y418D01*
X3266Y418D01*
X3304Y437D01*
X3323Y456D01*
G54D12*
X12367Y5867D02*
X12367Y5417D01*
X12367Y5846D02*
X12325Y5867D01*
X12239Y5867D01*
X12196Y5846D01*
X12175Y5825D01*
X12153Y5782D01*
X12153Y5653D01*
X12175Y5610D01*
X12196Y5589D01*
X12239Y5567D01*
X12325Y5567D01*
X12367Y5589D01*
X11767Y5867D02*
X11767Y5567D01*
X11960Y5867D02*
X11960Y5632D01*
X11939Y5589D01*
X11896Y5567D01*
X11832Y5567D01*
X11789Y5589D01*
X11767Y5610D01*
X11575Y5589D02*
X11532Y5567D01*
X11446Y5567D01*
X11403Y5589D01*
X11382Y5632D01*
X11382Y5653D01*
X11403Y5696D01*
X11446Y5717D01*
X11510Y5717D01*
X11553Y5739D01*
X11575Y5782D01*
X11575Y5803D01*
X11553Y5846D01*
X11510Y5867D01*
X11446Y5867D01*
X11403Y5846D01*
X11189Y5567D02*
X11189Y6017D01*
X10996Y5567D02*
X10996Y5803D01*
X11017Y5846D01*
X11060Y5867D01*
X11124Y5867D01*
X11167Y5846D01*
X11189Y5825D01*
X10503Y5867D02*
X10332Y5867D01*
X10439Y6017D02*
X10439Y5632D01*
X10417Y5589D01*
X10374Y5567D01*
X10332Y5567D01*
X10117Y5567D02*
X10160Y5589D01*
X10182Y5610D01*
X10203Y5653D01*
X10203Y5782D01*
X10182Y5825D01*
X10160Y5846D01*
X10117Y5867D01*
X10053Y5867D01*
X10010Y5846D01*
X9989Y5825D01*
X9967Y5782D01*
X9967Y5653D01*
X9989Y5610D01*
X10010Y5589D01*
X10053Y5567D01*
X10117Y5567D01*
X9453Y5589D02*
X9410Y5567D01*
X9324Y5567D01*
X9282Y5589D01*
X9260Y5632D01*
X9260Y5653D01*
X9282Y5696D01*
X9324Y5717D01*
X9389Y5717D01*
X9432Y5739D01*
X9453Y5782D01*
X9453Y5803D01*
X9432Y5846D01*
X9389Y5867D01*
X9324Y5867D01*
X9282Y5846D01*
X8896Y5589D02*
X8939Y5567D01*
X9024Y5567D01*
X9067Y5589D01*
X9089Y5632D01*
X9089Y5803D01*
X9067Y5846D01*
X9024Y5867D01*
X8939Y5867D01*
X8896Y5846D01*
X8874Y5803D01*
X8874Y5760D01*
X9089Y5717D01*
X8617Y5567D02*
X8660Y5589D01*
X8682Y5632D01*
X8682Y6017D01*
X8275Y5589D02*
X8317Y5567D01*
X8403Y5567D01*
X8446Y5589D01*
X8467Y5632D01*
X8467Y5803D01*
X8446Y5846D01*
X8403Y5867D01*
X8317Y5867D01*
X8275Y5846D01*
X8253Y5803D01*
X8253Y5760D01*
X8467Y5717D01*
X7867Y5589D02*
X7910Y5567D01*
X7996Y5567D01*
X8039Y5589D01*
X8060Y5610D01*
X8082Y5653D01*
X8082Y5782D01*
X8060Y5825D01*
X8039Y5846D01*
X7996Y5867D01*
X7910Y5867D01*
X7867Y5846D01*
X7739Y5867D02*
X7567Y5867D01*
X7675Y6017D02*
X7675Y5632D01*
X7653Y5589D01*
X7610Y5567D01*
X7567Y5567D01*
G54D13*
X514Y6992D02*
X771Y7678D01*
X1028Y6992D01*
X771Y6564D02*
X771Y5878D01*
X857Y5492D02*
X857Y5064D01*
X1114Y5578D02*
X214Y5278D01*
X1114Y4978D01*
X1028Y4164D02*
X1071Y4207D01*
X1114Y4335D01*
X1114Y4421D01*
X1071Y4549D01*
X985Y4635D01*
X900Y4678D01*
X728Y4721D01*
X600Y4721D01*
X428Y4678D01*
X342Y4635D01*
X257Y4549D01*
X214Y4421D01*
X214Y4335D01*
X257Y4207D01*
X300Y4164D01*
X1028Y3778D02*
X1071Y3735D01*
X1114Y3778D01*
X1071Y3821D01*
X1028Y3778D01*
X1114Y3778D01*
X771Y3778D02*
X257Y3821D01*
X214Y3778D01*
X257Y3735D01*
X771Y3778D01*
X214Y3778D01*
X1028Y3349D02*
X1071Y3307D01*
X1114Y3349D01*
X1071Y3392D01*
X1028Y3349D01*
X1114Y3349D01*
X771Y3349D02*
X257Y3392D01*
X214Y3349D01*
X257Y3307D01*
X771Y3349D01*
X214Y3349D01*
X1028Y2921D02*
X1071Y2878D01*
X1114Y2921D01*
X1071Y2964D01*
X1028Y2921D01*
X1114Y2921D01*
X771Y2921D02*
X257Y2964D01*
X214Y2921D01*
X257Y2878D01*
X771Y2921D01*
X214Y2921D01*
G54D14*
X20007Y3000D02*
G75*
G03X20007Y3000I-4007J0D01*
G74*
G01*
G54D15*
X26181Y3181D02*
X26771Y3181D01*
X26771Y3181D02*
X26771Y2393D01*
X26771Y2393D02*
X26181Y2393D01*
X26181Y818D02*
X26771Y818D01*
X26771Y818D02*
X26771Y1606D01*
X26771Y1606D02*
X26181Y1606D01*
X23818Y3181D02*
X23228Y3181D01*
X23228Y3181D02*
X23228Y2393D01*
X23228Y2393D02*
X23818Y2393D01*
X23818Y1606D02*
X23228Y1606D01*
X23818Y818D02*
X23228Y818D01*
X23228Y818D02*
X23228Y1606D01*
X25590Y2000D02*
G75*
G03X25590Y2000I-590J0D01*
G74*
G01*
X23818Y818D02*
X23818Y3181D01*
X23818Y3181D02*
X26181Y3181D01*
X26181Y3181D02*
X26181Y818D01*
X26181Y818D02*
X23818Y818D01*
X26181Y6431D02*
X26771Y6431D01*
X26771Y6431D02*
X26771Y5643D01*
X26771Y5643D02*
X26181Y5643D01*
X26181Y4068D02*
X26771Y4068D01*
X26771Y4068D02*
X26771Y4856D01*
X26771Y4856D02*
X26181Y4856D01*
X23818Y6431D02*
X23228Y6431D01*
X23228Y6431D02*
X23228Y5643D01*
X23228Y5643D02*
X23818Y5643D01*
X23818Y4856D02*
X23228Y4856D01*
X23818Y4068D02*
X23228Y4068D01*
X23228Y4068D02*
X23228Y4856D01*
X25590Y5250D02*
G75*
G03X25590Y5250I-590J0D01*
G74*
G01*
X23818Y4068D02*
X23818Y6431D01*
X23818Y6431D02*
X26181Y6431D01*
X26181Y6431D02*
X26181Y4068D01*
X26181Y4068D02*
X23818Y4068D01*
G54D16*
X16590Y4181D02*
X16590Y1818D01*
X17377Y3000D02*
G75*
G03X17377Y3000I-1377J0D01*
G74*
G01*
X13440Y5362D02*
X13440Y637D01*
X13440Y637D02*
X18559Y637D01*
X18559Y637D02*
X18559Y5362D01*
X18559Y5362D02*
X13440Y5362D01*
X19346Y7775D02*
G75*
G03X19346Y7775I-196J0D01*
G74*
G01*
G54D17*
X2811Y8956D02*
G75*
G03X2811Y8956I-196J0D01*
G74*
G01*
X9897Y8956D02*
G75*
G03X9897Y8956I-196J0D01*
G74*
G01*
X16984Y8956D02*
G75*
G03X16984Y8956I-196J0D01*
G74*
G01*
X24070Y8956D02*
G75*
G03X24070Y8956I-196J0D01*
G74*
G01*
X28598Y12500D02*
X24661Y12500D01*
X24267Y16043D02*
X28204Y16043D01*
X28992Y8956D02*
X25055Y8956D01*
X28598Y13287D02*
X28204Y15255D01*
X24661Y13287D02*
X24267Y15255D01*
X25055Y9744D02*
X24661Y11712D01*
X28992Y9744D02*
X28598Y11712D01*
X21905Y9744D02*
X21511Y11712D01*
X17968Y9744D02*
X17574Y11712D01*
X17574Y13287D02*
X17181Y15255D01*
X21511Y13287D02*
X21118Y15255D01*
X21905Y8956D02*
X17968Y8956D01*
X17181Y16043D02*
X21118Y16043D01*
X21511Y12500D02*
X17574Y12500D01*
X7338Y12500D02*
X3401Y12500D01*
X3007Y16043D02*
X6944Y16043D01*
X7732Y8956D02*
X3795Y8956D01*
X7338Y13287D02*
X6944Y15255D01*
X3401Y13287D02*
X3007Y15255D01*
X3795Y9744D02*
X3401Y11712D01*
X7732Y9744D02*
X7338Y11712D01*
X14818Y9744D02*
X14425Y11712D01*
X10881Y9744D02*
X10488Y11712D01*
X10488Y13287D02*
X10094Y15255D01*
X14425Y13287D02*
X14031Y15255D01*
X14818Y8956D02*
X10881Y8956D01*
X10094Y16043D02*
X14031Y16043D01*
X14425Y12500D02*
X10488Y12500D01*
G54D16*
X1826Y7381D02*
X30173Y7381D01*
X30173Y7381D02*
X30173Y17618D01*
X30173Y17618D02*
X1826Y17618D01*
X1826Y17618D02*
X1826Y7381D01*
G54D11*
X29090Y3062D02*
X29090Y4637D01*
X28696Y3456D02*
X28696Y3062D01*
X28303Y3062D02*
X28303Y3456D01*
X28303Y3456D02*
X28696Y3259D01*
X28696Y3259D02*
X28303Y3062D01*
X28106Y3259D02*
X28893Y3259D01*
X29484Y3850D02*
G75*
G03X29484Y3850I-984J0D01*
G74*
G01*
X29090Y5212D02*
X29090Y6787D01*
X28696Y5606D02*
X28696Y5212D01*
X28303Y5212D02*
X28303Y5606D01*
X28303Y5606D02*
X28696Y5409D01*
X28696Y5409D02*
X28303Y5212D01*
X28106Y5409D02*
X28893Y5409D01*
X29484Y6000D02*
G75*
G03X29484Y6000I-984J0D01*
G74*
G01*
X2612Y5059D02*
X4187Y5059D01*
X3006Y5453D02*
X2612Y5453D01*
X2612Y5846D02*
X3006Y5846D01*
X3006Y5846D02*
X2809Y5453D01*
X2809Y5453D02*
X2612Y5846D01*
X2809Y6043D02*
X2809Y5256D01*
X4384Y5650D02*
G75*
G03X4384Y5650I-984J0D01*
G74*
G01*
G54D15*
X27515Y1500D02*
G75*
G02X28500Y2484I984J0D01*
G74*
G01*
X27712Y1500D02*
G75*
G02X28500Y2287I787J0D01*
G74*
G01*
X27909Y1500D02*
G75*
G02X28500Y2090I590J0D01*
G74*
G01*
X28106Y1500D02*
G75*
G02X28500Y1893I393J0D01*
G74*
G01*
X28303Y1500D02*
G75*
G02X28500Y1696I196J0D01*
G74*
G01*
X29484Y1500D02*
G75*
G02X28500Y515I-984J0D01*
G74*
G01*
X29287Y1500D02*
G75*
G02X28500Y712I-787J0D01*
G74*
G01*
X29090Y1500D02*
G75*
G02X28500Y909I-590J0D01*
G74*
G01*
X28893Y1500D02*
G75*
G02X28500Y1106I-393J0D01*
G74*
G01*
X28696Y1500D02*
G75*
G02X28500Y1303I-196J0D01*
G74*
G01*
X28500Y1500D02*
X28500Y2681D01*
X28500Y1500D02*
X27318Y1500D01*
X28500Y1500D02*
X29681Y1500D01*
X28500Y1500D02*
X28500Y318D01*
X29681Y1500D02*
G75*
G03X29681Y1500I-1181J0D01*
G74*
G01*
X27515Y16000D02*
G75*
G02X28500Y16984I984J0D01*
G74*
G01*
X27712Y16000D02*
G75*
G02X28500Y16787I787J0D01*
G74*
G01*
X27909Y16000D02*
G75*
G02X28500Y16590I590J0D01*
G74*
G01*
X28106Y16000D02*
G75*
G02X28500Y16393I393J0D01*
G74*
G01*
X28303Y16000D02*
G75*
G02X28500Y16196I196J0D01*
G74*
G01*
X29484Y16000D02*
G75*
G02X28500Y15015I-984J0D01*
G74*
G01*
X29287Y16000D02*
G75*
G02X28500Y15212I-787J0D01*
G74*
G01*
X29090Y16000D02*
G75*
G02X28500Y15409I-590J0D01*
G74*
G01*
X28893Y16000D02*
G75*
G02X28500Y15606I-393J0D01*
G74*
G01*
X28696Y16000D02*
G75*
G02X28500Y15803I-196J0D01*
G74*
G01*
X28500Y16000D02*
X28500Y17181D01*
X28500Y16000D02*
X27318Y16000D01*
X28500Y16000D02*
X29681Y16000D01*
X28500Y16000D02*
X28500Y14818D01*
X29681Y16000D02*
G75*
G03X29681Y16000I-1181J0D01*
G74*
G01*
X515Y1500D02*
G75*
G02X1500Y2484I984J0D01*
G74*
G01*
X712Y1500D02*
G75*
G02X1500Y2287I787J0D01*
G74*
G01*
X909Y1500D02*
G75*
G02X1500Y2090I590J0D01*
G74*
G01*
X1106Y1500D02*
G75*
G02X1500Y1893I393J0D01*
G74*
G01*
X1303Y1500D02*
G75*
G02X1500Y1696I196J0D01*
G74*
G01*
X2484Y1500D02*
G75*
G02X1500Y515I-984J0D01*
G74*
G01*
X2287Y1500D02*
G75*
G02X1500Y712I-787J0D01*
G74*
G01*
X2090Y1500D02*
G75*
G02X1500Y909I-590J0D01*
G74*
G01*
X1893Y1500D02*
G75*
G02X1500Y1106I-393J0D01*
G74*
G01*
X1696Y1500D02*
G75*
G02X1500Y1303I-196J0D01*
G74*
G01*
X1500Y1500D02*
X1500Y2681D01*
X1500Y1500D02*
X318Y1500D01*
X1500Y1500D02*
X2681Y1500D01*
X1500Y1500D02*
X1500Y318D01*
X2681Y1500D02*
G75*
G03X2681Y1500I-1181J0D01*
G74*
G01*
X515Y16000D02*
G75*
G02X1500Y16984I984J0D01*
G74*
G01*
X712Y16000D02*
G75*
G02X1500Y16787I787J0D01*
G74*
G01*
X909Y16000D02*
G75*
G02X1500Y16590I590J0D01*
G74*
G01*
X1106Y16000D02*
G75*
G02X1500Y16393I393J0D01*
G74*
G01*
X1303Y16000D02*
G75*
G02X1500Y16196I196J0D01*
G74*
G01*
X2484Y16000D02*
G75*
G02X1500Y15015I-984J0D01*
G74*
G01*
X2287Y16000D02*
G75*
G02X1500Y15212I-787J0D01*
G74*
G01*
X2090Y16000D02*
G75*
G02X1500Y15409I-590J0D01*
G74*
G01*
X1893Y16000D02*
G75*
G02X1500Y15606I-393J0D01*
G74*
G01*
X1696Y16000D02*
G75*
G02X1500Y15803I-196J0D01*
G74*
G01*
X1500Y16000D02*
X1500Y17181D01*
X1500Y16000D02*
X318Y16000D01*
X1500Y16000D02*
X2681Y16000D01*
X1500Y16000D02*
X1500Y14818D01*
X2681Y16000D02*
G75*
G03X2681Y16000I-1181J0D01*
G74*
G01*
G54D10*
X25228Y1892D02*
X25185Y1878D01*
X25114Y1878D01*
X25085Y1892D01*
X25071Y1907D01*
X25057Y1935D01*
X25057Y1964D01*
X25071Y1992D01*
X25085Y2007D01*
X25114Y2021D01*
X25171Y2035D01*
X25200Y2050D01*
X25214Y2064D01*
X25228Y2092D01*
X25228Y2121D01*
X25214Y2150D01*
X25200Y2164D01*
X25171Y2178D01*
X25100Y2178D01*
X25057Y2164D01*
X24771Y1878D02*
X24942Y1878D01*
X24857Y1878D02*
X24857Y2178D01*
X24885Y2135D01*
X24914Y2107D01*
X24942Y2092D01*
G54D18*
X22830Y464D02*
X22716Y426D01*
X22526Y426D01*
X22449Y464D01*
X22411Y502D01*
X22373Y578D01*
X22373Y654D01*
X22411Y730D01*
X22449Y769D01*
X22526Y807D01*
X22678Y845D01*
X22754Y883D01*
X22792Y921D01*
X22830Y997D01*
X22830Y1073D01*
X22792Y1150D01*
X22754Y1188D01*
X22678Y1226D01*
X22488Y1226D01*
X22373Y1188D01*
X22145Y1226D02*
X21688Y1226D01*
X21916Y426D02*
X21916Y1226D01*
X21459Y654D02*
X21078Y654D01*
X21535Y426D02*
X21269Y1226D01*
X21002Y426D01*
X20278Y426D02*
X20545Y807D01*
X20735Y426D02*
X20735Y1226D01*
X20430Y1226D01*
X20354Y1188D01*
X20316Y1150D01*
X20278Y1073D01*
X20278Y959D01*
X20316Y883D01*
X20354Y845D01*
X20430Y807D01*
X20735Y807D01*
X20050Y1226D02*
X19592Y1226D01*
X19821Y426D02*
X19821Y1226D01*
G54D10*
X25228Y5142D02*
X25185Y5128D01*
X25114Y5128D01*
X25085Y5142D01*
X25071Y5157D01*
X25057Y5185D01*
X25057Y5214D01*
X25071Y5242D01*
X25085Y5257D01*
X25114Y5271D01*
X25171Y5285D01*
X25200Y5300D01*
X25214Y5314D01*
X25228Y5342D01*
X25228Y5371D01*
X25214Y5400D01*
X25200Y5414D01*
X25171Y5428D01*
X25100Y5428D01*
X25057Y5414D01*
X24942Y5400D02*
X24928Y5414D01*
X24900Y5428D01*
X24828Y5428D01*
X24800Y5414D01*
X24785Y5400D01*
X24771Y5371D01*
X24771Y5342D01*
X24785Y5300D01*
X24957Y5128D01*
X24771Y5128D01*
G54D18*
X22852Y5714D02*
X22738Y5676D01*
X22547Y5676D01*
X22471Y5714D01*
X22433Y5752D01*
X22395Y5828D01*
X22395Y5904D01*
X22433Y5980D01*
X22471Y6019D01*
X22547Y6057D01*
X22700Y6095D01*
X22776Y6133D01*
X22814Y6171D01*
X22852Y6247D01*
X22852Y6323D01*
X22814Y6400D01*
X22776Y6438D01*
X22700Y6476D01*
X22509Y6476D01*
X22395Y6438D01*
X22166Y6476D02*
X21709Y6476D01*
X21938Y5676D02*
X21938Y6476D01*
X21290Y6476D02*
X21138Y6476D01*
X21061Y6438D01*
X20985Y6361D01*
X20947Y6209D01*
X20947Y5942D01*
X20985Y5790D01*
X21061Y5714D01*
X21138Y5676D01*
X21290Y5676D01*
X21366Y5714D01*
X21442Y5790D01*
X21480Y5942D01*
X21480Y6209D01*
X21442Y6361D01*
X21366Y6438D01*
X21290Y6476D01*
X20604Y5676D02*
X20604Y6476D01*
X20300Y6476D01*
X20223Y6438D01*
X20185Y6400D01*
X20147Y6323D01*
X20147Y6209D01*
X20185Y6133D01*
X20223Y6095D01*
X20300Y6057D01*
X20604Y6057D01*
G54D10*
X14821Y878D02*
X14921Y1021D01*
X14992Y878D02*
X14992Y1178D01*
X14878Y1178D01*
X14849Y1164D01*
X14835Y1150D01*
X14821Y1121D01*
X14821Y1078D01*
X14835Y1050D01*
X14849Y1035D01*
X14878Y1021D01*
X14992Y1021D01*
X14635Y1178D02*
X14578Y1178D01*
X14549Y1164D01*
X14521Y1135D01*
X14507Y1078D01*
X14507Y978D01*
X14521Y921D01*
X14549Y892D01*
X14578Y878D01*
X14635Y878D01*
X14664Y892D01*
X14692Y921D01*
X14707Y978D01*
X14707Y1078D01*
X14692Y1135D01*
X14664Y1164D01*
X14635Y1178D01*
X14421Y1178D02*
X14249Y1178D01*
X14335Y878D02*
X14335Y1178D01*
X13992Y878D02*
X14164Y878D01*
X14078Y878D02*
X14078Y1178D01*
X14107Y1135D01*
X14135Y1107D01*
X14164Y1092D01*
G54D18*
X12973Y6214D02*
X12859Y6176D01*
X12669Y6176D01*
X12592Y6214D01*
X12554Y6252D01*
X12516Y6328D01*
X12516Y6404D01*
X12554Y6480D01*
X12592Y6519D01*
X12669Y6557D01*
X12821Y6595D01*
X12897Y6633D01*
X12935Y6671D01*
X12973Y6747D01*
X12973Y6823D01*
X12935Y6900D01*
X12897Y6938D01*
X12821Y6976D01*
X12630Y6976D01*
X12516Y6938D01*
X12173Y6595D02*
X11907Y6595D01*
X11792Y6176D02*
X12173Y6176D01*
X12173Y6976D01*
X11792Y6976D01*
X11564Y6976D02*
X11107Y6976D01*
X11335Y6176D02*
X11335Y6976D01*
X10345Y6976D02*
X9888Y6976D01*
X10116Y6176D02*
X10116Y6976D01*
X9621Y6595D02*
X9354Y6595D01*
X9240Y6176D02*
X9621Y6176D01*
X9621Y6976D01*
X9240Y6976D01*
X8897Y6176D02*
X8897Y6976D01*
X8630Y6404D01*
X8364Y6976D01*
X8364Y6176D01*
X7983Y6176D02*
X7983Y6976D01*
X7678Y6976D01*
X7602Y6938D01*
X7564Y6900D01*
X7526Y6823D01*
X7526Y6709D01*
X7564Y6633D01*
X7602Y6595D01*
X7678Y6557D01*
X7983Y6557D01*
G54D10*
X29335Y8128D02*
X29478Y8128D01*
X29478Y8428D01*
X29235Y8285D02*
X29135Y8285D01*
X29092Y8128D02*
X29235Y8128D01*
X29235Y8428D01*
X29092Y8428D01*
X28964Y8128D02*
X28964Y8428D01*
X28892Y8428D01*
X28850Y8414D01*
X28821Y8385D01*
X28807Y8357D01*
X28792Y8300D01*
X28792Y8257D01*
X28807Y8200D01*
X28821Y8171D01*
X28850Y8142D01*
X28892Y8128D01*
X28964Y8128D01*
X28535Y8428D02*
X28592Y8428D01*
X28621Y8414D01*
X28635Y8400D01*
X28664Y8357D01*
X28678Y8300D01*
X28678Y8185D01*
X28664Y8157D01*
X28650Y8142D01*
X28621Y8128D01*
X28564Y8128D01*
X28535Y8142D01*
X28521Y8157D01*
X28507Y8185D01*
X28507Y8257D01*
X28521Y8285D01*
X28535Y8300D01*
X28564Y8314D01*
X28621Y8314D01*
X28650Y8300D01*
X28664Y8285D01*
X28678Y8257D01*
X29721Y7928D02*
X29521Y7928D01*
X29650Y7628D01*
X29407Y7742D02*
X29178Y7742D01*
X29050Y7642D02*
X29007Y7628D01*
X28935Y7628D01*
X28907Y7642D01*
X28892Y7657D01*
X28878Y7685D01*
X28878Y7714D01*
X28892Y7742D01*
X28907Y7757D01*
X28935Y7771D01*
X28992Y7785D01*
X29021Y7800D01*
X29035Y7814D01*
X29050Y7842D01*
X29050Y7871D01*
X29035Y7900D01*
X29021Y7914D01*
X28992Y7928D01*
X28921Y7928D01*
X28878Y7914D01*
X28750Y7785D02*
X28650Y7785D01*
X28607Y7628D02*
X28750Y7628D01*
X28750Y7928D01*
X28607Y7928D01*
X28321Y7914D02*
X28350Y7928D01*
X28392Y7928D01*
X28435Y7914D01*
X28464Y7885D01*
X28478Y7857D01*
X28492Y7800D01*
X28492Y7757D01*
X28478Y7700D01*
X28464Y7671D01*
X28435Y7642D01*
X28392Y7628D01*
X28364Y7628D01*
X28321Y7642D01*
X28307Y7657D01*
X28307Y7757D01*
X28364Y7757D01*
X28250Y7600D02*
X28021Y7600D01*
X27821Y7828D02*
X27821Y7628D01*
X27892Y7942D02*
X27964Y7728D01*
X27778Y7728D01*
X27664Y7742D02*
X27435Y7742D01*
X27292Y7628D02*
X27292Y7928D01*
X27121Y7628D01*
X27121Y7928D01*
X26978Y7928D02*
X26978Y7685D01*
X26964Y7657D01*
X26950Y7642D01*
X26921Y7628D01*
X26864Y7628D01*
X26835Y7642D01*
X26821Y7657D01*
X26807Y7685D01*
X26807Y7928D01*
X26664Y7628D02*
X26664Y7928D01*
X26564Y7714D01*
X26464Y7928D01*
X26464Y7628D01*
X26321Y7742D02*
X26092Y7742D01*
X25949Y7628D02*
X25949Y7928D01*
X25878Y7928D01*
X25835Y7914D01*
X25807Y7885D01*
X25792Y7857D01*
X25778Y7800D01*
X25778Y7757D01*
X25792Y7700D01*
X25807Y7671D01*
X25835Y7642D01*
X25878Y7628D01*
X25949Y7628D01*
X25649Y7628D02*
X25649Y7928D01*
X25521Y7642D02*
X25478Y7628D01*
X25407Y7628D01*
X25378Y7642D01*
X25364Y7657D01*
X25350Y7685D01*
X25350Y7714D01*
X25364Y7742D01*
X25378Y7757D01*
X25407Y7771D01*
X25464Y7785D01*
X25492Y7800D01*
X25507Y7814D01*
X25521Y7842D01*
X25521Y7871D01*
X25507Y7900D01*
X25492Y7914D01*
X25464Y7928D01*
X25392Y7928D01*
X25350Y7914D01*
X25221Y7628D02*
X25221Y7928D01*
X25107Y7928D01*
X25078Y7914D01*
X25064Y7900D01*
X25050Y7871D01*
X25050Y7828D01*
X25064Y7800D01*
X25078Y7785D01*
X25107Y7771D01*
X25221Y7771D01*
X24778Y7628D02*
X24921Y7628D01*
X24921Y7928D01*
X24692Y7714D02*
X24550Y7714D01*
X24721Y7628D02*
X24621Y7928D01*
X24521Y7628D01*
X24364Y7771D02*
X24364Y7628D01*
X24464Y7928D02*
X24364Y7771D01*
X24264Y7928D01*
X27085Y3378D02*
X27228Y3378D01*
X27228Y3678D01*
X26985Y3535D02*
X26885Y3535D01*
X26842Y3378D02*
X26985Y3378D01*
X26985Y3678D01*
X26842Y3678D01*
X26714Y3378D02*
X26714Y3678D01*
X26642Y3678D01*
X26600Y3664D01*
X26571Y3635D01*
X26557Y3607D01*
X26542Y3550D01*
X26542Y3507D01*
X26557Y3450D01*
X26571Y3421D01*
X26600Y3392D01*
X26642Y3378D01*
X26714Y3378D01*
X26442Y3678D02*
X26257Y3678D01*
X26357Y3564D01*
X26314Y3564D01*
X26285Y3550D01*
X26271Y3535D01*
X26257Y3507D01*
X26257Y3435D01*
X26271Y3407D01*
X26285Y3392D01*
X26314Y3378D01*
X26400Y3378D01*
X26428Y3392D01*
X26442Y3407D01*
X27335Y5128D02*
X27478Y5128D01*
X27478Y5428D01*
X27235Y5285D02*
X27135Y5285D01*
X27092Y5128D02*
X27235Y5128D01*
X27235Y5428D01*
X27092Y5428D01*
X26964Y5128D02*
X26964Y5428D01*
X26892Y5428D01*
X26850Y5414D01*
X26821Y5385D01*
X26807Y5357D01*
X26792Y5300D01*
X26792Y5257D01*
X26807Y5200D01*
X26821Y5171D01*
X26850Y5142D01*
X26892Y5128D01*
X26964Y5128D01*
X26535Y5328D02*
X26535Y5128D01*
X26607Y5442D02*
X26678Y5228D01*
X26492Y5228D01*
X5335Y6128D02*
X5478Y6128D01*
X5478Y6428D01*
X5235Y6285D02*
X5135Y6285D01*
X5092Y6128D02*
X5235Y6128D01*
X5235Y6428D01*
X5092Y6428D01*
X4964Y6128D02*
X4964Y6428D01*
X4892Y6428D01*
X4850Y6414D01*
X4821Y6385D01*
X4807Y6357D01*
X4792Y6300D01*
X4792Y6257D01*
X4807Y6200D01*
X4821Y6171D01*
X4850Y6142D01*
X4892Y6128D01*
X4964Y6128D01*
X4521Y6428D02*
X4664Y6428D01*
X4678Y6285D01*
X4664Y6300D01*
X4635Y6314D01*
X4564Y6314D01*
X4535Y6300D01*
X4521Y6285D01*
X4507Y6257D01*
X4507Y6185D01*
X4521Y6157D01*
X4535Y6142D01*
X4564Y6128D01*
X4635Y6128D01*
X4664Y6142D01*
X4678Y6157D01*
G54D19*
X4214Y3757D02*
X4214Y4357D01*
X4214Y4071D02*
X3871Y4071D01*
X3871Y3757D02*
X3871Y4357D01*
X3471Y4357D02*
X3357Y4357D01*
X3300Y4328D01*
X3242Y4271D01*
X3214Y4157D01*
X3214Y3957D01*
X3242Y3842D01*
X3300Y3785D01*
X3357Y3757D01*
X3471Y3757D01*
X3528Y3785D01*
X3585Y3842D01*
X3614Y3957D01*
X3614Y4157D01*
X3585Y4271D01*
X3528Y4328D01*
X3471Y4357D01*
X3042Y4357D02*
X2700Y4357D01*
X2871Y3757D02*
X2871Y4357D01*
G54D10*
X29792Y178D02*
X29792Y478D01*
X29692Y264D01*
X29592Y478D01*
X29592Y178D01*
X29478Y478D02*
X29292Y478D01*
X29392Y364D01*
X29349Y364D01*
X29321Y350D01*
X29307Y335D01*
X29292Y307D01*
X29292Y235D01*
X29307Y207D01*
X29321Y192D01*
X29349Y178D01*
X29435Y178D01*
X29464Y192D01*
X29478Y207D01*
X29792Y17028D02*
X29792Y17328D01*
X29692Y17114D01*
X29592Y17328D01*
X29592Y17028D01*
X29478Y17328D02*
X29292Y17328D01*
X29392Y17214D01*
X29349Y17214D01*
X29321Y17200D01*
X29307Y17185D01*
X29292Y17157D01*
X29292Y17085D01*
X29307Y17057D01*
X29321Y17042D01*
X29349Y17028D01*
X29435Y17028D01*
X29464Y17042D01*
X29478Y17057D01*
X692Y178D02*
X692Y478D01*
X592Y264D01*
X492Y478D01*
X492Y178D01*
X378Y478D02*
X192Y478D01*
X292Y364D01*
X249Y364D01*
X221Y350D01*
X207Y335D01*
X192Y307D01*
X192Y235D01*
X207Y207D01*
X221Y192D01*
X249Y178D01*
X335Y178D01*
X364Y192D01*
X378Y207D01*
X692Y17028D02*
X692Y17328D01*
X592Y17114D01*
X492Y17328D01*
X492Y17028D01*
X378Y17328D02*
X192Y17328D01*
X292Y17214D01*
X249Y17214D01*
X221Y17200D01*
X207Y17185D01*
X192Y17157D01*
X192Y17085D01*
X207Y17057D01*
X221Y17042D01*
X249Y17028D01*
X335Y17028D01*
X364Y17042D01*
X378Y17057D01*
%LPC*%
G54D20*
X6831Y11750D03*
X6831Y9750D03*
G54D21*
X6831Y6750D03*
X6831Y5750D03*
G54D22*
X7500Y3750D03*
X7500Y13750D03*
G54D23*
X21303Y10343D03*
X26697Y10343D03*
X20909Y15657D03*
X27091Y15657D03*
G54D24*
X23720Y2885D03*
X26279Y2885D03*
X23720Y1114D03*
X26279Y1114D03*
X23720Y6135D03*
X26279Y6135D03*
X23720Y4364D03*
X26279Y4364D03*
G54D25*
X18755Y2015D03*
X13047Y2015D03*
X13047Y3000D03*
X13047Y3984D03*
X18755Y3984D03*
G54D26*
X16000Y5204D03*
X16000Y795D03*
G54D27*
X18500Y8169D03*
G54D28*
X17500Y8169D03*
X16500Y8169D03*
X15500Y8169D03*
X14500Y8169D03*
X13500Y8169D03*
X13500Y16830D03*
X14500Y16830D03*
X15500Y16830D03*
X16500Y16830D03*
X17500Y16830D03*
X18500Y16830D03*
G54D29*
X28400Y13750D03*
G54D30*
X29400Y13750D03*
X28400Y12750D03*
X29400Y12750D03*
X28400Y11750D03*
X29400Y11750D03*
G54D31*
X28000Y3850D03*
X29000Y3850D03*
X28000Y6000D03*
X29000Y6000D03*
X3400Y6150D03*
X3400Y5150D03*
G54D32*
X1350Y11750D03*
G54D33*
X1350Y9750D03*
G54D34*
X28500Y1500D03*
X28500Y16000D03*
X1500Y1500D03*
X1500Y16000D03*
M02*
